G75*
G70*
%OFA0B0*%
%FSLAX24Y24*%
%IPPOS*%
%LPD*%
%AMOC8*
5,1,8,0,0,1.08239X$1,22.5*
%
%ADD10C,0.0000*%
%ADD11C,0.1700*%
%ADD12C,0.0660*%
%ADD13C,0.0740*%
%ADD14C,0.0660*%
%ADD15C,0.0600*%
%ADD16R,0.0800X0.0800*%
%ADD17C,0.0800*%
%ADD18C,0.0200*%
D10*
X000500Y001000D02*
X000500Y020496D01*
X013870Y020496D01*
X013870Y001000D01*
X000500Y001000D01*
X000850Y002000D02*
X000852Y002050D01*
X000858Y002100D01*
X000868Y002150D01*
X000881Y002198D01*
X000898Y002246D01*
X000919Y002292D01*
X000943Y002336D01*
X000971Y002378D01*
X001002Y002418D01*
X001036Y002455D01*
X001073Y002490D01*
X001112Y002521D01*
X001153Y002550D01*
X001197Y002575D01*
X001243Y002597D01*
X001290Y002615D01*
X001338Y002629D01*
X001387Y002640D01*
X001437Y002647D01*
X001487Y002650D01*
X001538Y002649D01*
X001588Y002644D01*
X001638Y002635D01*
X001686Y002623D01*
X001734Y002606D01*
X001780Y002586D01*
X001825Y002563D01*
X001868Y002536D01*
X001908Y002506D01*
X001946Y002473D01*
X001981Y002437D01*
X002014Y002398D01*
X002043Y002357D01*
X002069Y002314D01*
X002092Y002269D01*
X002111Y002222D01*
X002126Y002174D01*
X002138Y002125D01*
X002146Y002075D01*
X002150Y002025D01*
X002150Y001975D01*
X002146Y001925D01*
X002138Y001875D01*
X002126Y001826D01*
X002111Y001778D01*
X002092Y001731D01*
X002069Y001686D01*
X002043Y001643D01*
X002014Y001602D01*
X001981Y001563D01*
X001946Y001527D01*
X001908Y001494D01*
X001868Y001464D01*
X001825Y001437D01*
X001780Y001414D01*
X001734Y001394D01*
X001686Y001377D01*
X001638Y001365D01*
X001588Y001356D01*
X001538Y001351D01*
X001487Y001350D01*
X001437Y001353D01*
X001387Y001360D01*
X001338Y001371D01*
X001290Y001385D01*
X001243Y001403D01*
X001197Y001425D01*
X001153Y001450D01*
X001112Y001479D01*
X001073Y001510D01*
X001036Y001545D01*
X001002Y001582D01*
X000971Y001622D01*
X000943Y001664D01*
X000919Y001708D01*
X000898Y001754D01*
X000881Y001802D01*
X000868Y001850D01*
X000858Y001900D01*
X000852Y001950D01*
X000850Y002000D01*
X011250Y009500D02*
X011252Y009550D01*
X011258Y009600D01*
X011268Y009650D01*
X011281Y009698D01*
X011298Y009746D01*
X011319Y009792D01*
X011343Y009836D01*
X011371Y009878D01*
X011402Y009918D01*
X011436Y009955D01*
X011473Y009990D01*
X011512Y010021D01*
X011553Y010050D01*
X011597Y010075D01*
X011643Y010097D01*
X011690Y010115D01*
X011738Y010129D01*
X011787Y010140D01*
X011837Y010147D01*
X011887Y010150D01*
X011938Y010149D01*
X011988Y010144D01*
X012038Y010135D01*
X012086Y010123D01*
X012134Y010106D01*
X012180Y010086D01*
X012225Y010063D01*
X012268Y010036D01*
X012308Y010006D01*
X012346Y009973D01*
X012381Y009937D01*
X012414Y009898D01*
X012443Y009857D01*
X012469Y009814D01*
X012492Y009769D01*
X012511Y009722D01*
X012526Y009674D01*
X012538Y009625D01*
X012546Y009575D01*
X012550Y009525D01*
X012550Y009475D01*
X012546Y009425D01*
X012538Y009375D01*
X012526Y009326D01*
X012511Y009278D01*
X012492Y009231D01*
X012469Y009186D01*
X012443Y009143D01*
X012414Y009102D01*
X012381Y009063D01*
X012346Y009027D01*
X012308Y008994D01*
X012268Y008964D01*
X012225Y008937D01*
X012180Y008914D01*
X012134Y008894D01*
X012086Y008877D01*
X012038Y008865D01*
X011988Y008856D01*
X011938Y008851D01*
X011887Y008850D01*
X011837Y008853D01*
X011787Y008860D01*
X011738Y008871D01*
X011690Y008885D01*
X011643Y008903D01*
X011597Y008925D01*
X011553Y008950D01*
X011512Y008979D01*
X011473Y009010D01*
X011436Y009045D01*
X011402Y009082D01*
X011371Y009122D01*
X011343Y009164D01*
X011319Y009208D01*
X011298Y009254D01*
X011281Y009302D01*
X011268Y009350D01*
X011258Y009400D01*
X011252Y009450D01*
X011250Y009500D01*
X012350Y002000D02*
X012352Y002050D01*
X012358Y002100D01*
X012368Y002150D01*
X012381Y002198D01*
X012398Y002246D01*
X012419Y002292D01*
X012443Y002336D01*
X012471Y002378D01*
X012502Y002418D01*
X012536Y002455D01*
X012573Y002490D01*
X012612Y002521D01*
X012653Y002550D01*
X012697Y002575D01*
X012743Y002597D01*
X012790Y002615D01*
X012838Y002629D01*
X012887Y002640D01*
X012937Y002647D01*
X012987Y002650D01*
X013038Y002649D01*
X013088Y002644D01*
X013138Y002635D01*
X013186Y002623D01*
X013234Y002606D01*
X013280Y002586D01*
X013325Y002563D01*
X013368Y002536D01*
X013408Y002506D01*
X013446Y002473D01*
X013481Y002437D01*
X013514Y002398D01*
X013543Y002357D01*
X013569Y002314D01*
X013592Y002269D01*
X013611Y002222D01*
X013626Y002174D01*
X013638Y002125D01*
X013646Y002075D01*
X013650Y002025D01*
X013650Y001975D01*
X013646Y001925D01*
X013638Y001875D01*
X013626Y001826D01*
X013611Y001778D01*
X013592Y001731D01*
X013569Y001686D01*
X013543Y001643D01*
X013514Y001602D01*
X013481Y001563D01*
X013446Y001527D01*
X013408Y001494D01*
X013368Y001464D01*
X013325Y001437D01*
X013280Y001414D01*
X013234Y001394D01*
X013186Y001377D01*
X013138Y001365D01*
X013088Y001356D01*
X013038Y001351D01*
X012987Y001350D01*
X012937Y001353D01*
X012887Y001360D01*
X012838Y001371D01*
X012790Y001385D01*
X012743Y001403D01*
X012697Y001425D01*
X012653Y001450D01*
X012612Y001479D01*
X012573Y001510D01*
X012536Y001545D01*
X012502Y001582D01*
X012471Y001622D01*
X012443Y001664D01*
X012419Y001708D01*
X012398Y001754D01*
X012381Y001802D01*
X012368Y001850D01*
X012358Y001900D01*
X012352Y001950D01*
X012350Y002000D01*
X009350Y018400D02*
X009352Y018450D01*
X009358Y018500D01*
X009368Y018550D01*
X009381Y018598D01*
X009398Y018646D01*
X009419Y018692D01*
X009443Y018736D01*
X009471Y018778D01*
X009502Y018818D01*
X009536Y018855D01*
X009573Y018890D01*
X009612Y018921D01*
X009653Y018950D01*
X009697Y018975D01*
X009743Y018997D01*
X009790Y019015D01*
X009838Y019029D01*
X009887Y019040D01*
X009937Y019047D01*
X009987Y019050D01*
X010038Y019049D01*
X010088Y019044D01*
X010138Y019035D01*
X010186Y019023D01*
X010234Y019006D01*
X010280Y018986D01*
X010325Y018963D01*
X010368Y018936D01*
X010408Y018906D01*
X010446Y018873D01*
X010481Y018837D01*
X010514Y018798D01*
X010543Y018757D01*
X010569Y018714D01*
X010592Y018669D01*
X010611Y018622D01*
X010626Y018574D01*
X010638Y018525D01*
X010646Y018475D01*
X010650Y018425D01*
X010650Y018375D01*
X010646Y018325D01*
X010638Y018275D01*
X010626Y018226D01*
X010611Y018178D01*
X010592Y018131D01*
X010569Y018086D01*
X010543Y018043D01*
X010514Y018002D01*
X010481Y017963D01*
X010446Y017927D01*
X010408Y017894D01*
X010368Y017864D01*
X010325Y017837D01*
X010280Y017814D01*
X010234Y017794D01*
X010186Y017777D01*
X010138Y017765D01*
X010088Y017756D01*
X010038Y017751D01*
X009987Y017750D01*
X009937Y017753D01*
X009887Y017760D01*
X009838Y017771D01*
X009790Y017785D01*
X009743Y017803D01*
X009697Y017825D01*
X009653Y017850D01*
X009612Y017879D01*
X009573Y017910D01*
X009536Y017945D01*
X009502Y017982D01*
X009471Y018022D01*
X009443Y018064D01*
X009419Y018108D01*
X009398Y018154D01*
X009381Y018202D01*
X009368Y018250D01*
X009358Y018300D01*
X009352Y018350D01*
X009350Y018400D01*
X012350Y019500D02*
X012352Y019550D01*
X012358Y019600D01*
X012368Y019650D01*
X012381Y019698D01*
X012398Y019746D01*
X012419Y019792D01*
X012443Y019836D01*
X012471Y019878D01*
X012502Y019918D01*
X012536Y019955D01*
X012573Y019990D01*
X012612Y020021D01*
X012653Y020050D01*
X012697Y020075D01*
X012743Y020097D01*
X012790Y020115D01*
X012838Y020129D01*
X012887Y020140D01*
X012937Y020147D01*
X012987Y020150D01*
X013038Y020149D01*
X013088Y020144D01*
X013138Y020135D01*
X013186Y020123D01*
X013234Y020106D01*
X013280Y020086D01*
X013325Y020063D01*
X013368Y020036D01*
X013408Y020006D01*
X013446Y019973D01*
X013481Y019937D01*
X013514Y019898D01*
X013543Y019857D01*
X013569Y019814D01*
X013592Y019769D01*
X013611Y019722D01*
X013626Y019674D01*
X013638Y019625D01*
X013646Y019575D01*
X013650Y019525D01*
X013650Y019475D01*
X013646Y019425D01*
X013638Y019375D01*
X013626Y019326D01*
X013611Y019278D01*
X013592Y019231D01*
X013569Y019186D01*
X013543Y019143D01*
X013514Y019102D01*
X013481Y019063D01*
X013446Y019027D01*
X013408Y018994D01*
X013368Y018964D01*
X013325Y018937D01*
X013280Y018914D01*
X013234Y018894D01*
X013186Y018877D01*
X013138Y018865D01*
X013088Y018856D01*
X013038Y018851D01*
X012987Y018850D01*
X012937Y018853D01*
X012887Y018860D01*
X012838Y018871D01*
X012790Y018885D01*
X012743Y018903D01*
X012697Y018925D01*
X012653Y018950D01*
X012612Y018979D01*
X012573Y019010D01*
X012536Y019045D01*
X012502Y019082D01*
X012471Y019122D01*
X012443Y019164D01*
X012419Y019208D01*
X012398Y019254D01*
X012381Y019302D01*
X012368Y019350D01*
X012358Y019400D01*
X012352Y019450D01*
X012350Y019500D01*
X000850Y019500D02*
X000852Y019550D01*
X000858Y019600D01*
X000868Y019650D01*
X000881Y019698D01*
X000898Y019746D01*
X000919Y019792D01*
X000943Y019836D01*
X000971Y019878D01*
X001002Y019918D01*
X001036Y019955D01*
X001073Y019990D01*
X001112Y020021D01*
X001153Y020050D01*
X001197Y020075D01*
X001243Y020097D01*
X001290Y020115D01*
X001338Y020129D01*
X001387Y020140D01*
X001437Y020147D01*
X001487Y020150D01*
X001538Y020149D01*
X001588Y020144D01*
X001638Y020135D01*
X001686Y020123D01*
X001734Y020106D01*
X001780Y020086D01*
X001825Y020063D01*
X001868Y020036D01*
X001908Y020006D01*
X001946Y019973D01*
X001981Y019937D01*
X002014Y019898D01*
X002043Y019857D01*
X002069Y019814D01*
X002092Y019769D01*
X002111Y019722D01*
X002126Y019674D01*
X002138Y019625D01*
X002146Y019575D01*
X002150Y019525D01*
X002150Y019475D01*
X002146Y019425D01*
X002138Y019375D01*
X002126Y019326D01*
X002111Y019278D01*
X002092Y019231D01*
X002069Y019186D01*
X002043Y019143D01*
X002014Y019102D01*
X001981Y019063D01*
X001946Y019027D01*
X001908Y018994D01*
X001868Y018964D01*
X001825Y018937D01*
X001780Y018914D01*
X001734Y018894D01*
X001686Y018877D01*
X001638Y018865D01*
X001588Y018856D01*
X001538Y018851D01*
X001487Y018850D01*
X001437Y018853D01*
X001387Y018860D01*
X001338Y018871D01*
X001290Y018885D01*
X001243Y018903D01*
X001197Y018925D01*
X001153Y018950D01*
X001112Y018979D01*
X001073Y019010D01*
X001036Y019045D01*
X001002Y019082D01*
X000971Y019122D01*
X000943Y019164D01*
X000919Y019208D01*
X000898Y019254D01*
X000881Y019302D01*
X000868Y019350D01*
X000858Y019400D01*
X000852Y019450D01*
X000850Y019500D01*
D11*
X003531Y016000D03*
X004713Y014150D03*
X005894Y016000D03*
X005000Y006394D03*
X005000Y004031D03*
X006850Y005213D03*
X010000Y005894D03*
X010000Y003531D03*
X011850Y004713D03*
D12*
X005330Y008500D02*
X004670Y008500D01*
X004670Y009500D02*
X005330Y009500D01*
X005330Y010500D02*
X004670Y010500D01*
D13*
X004500Y012500D03*
X007500Y012500D03*
D14*
X001500Y008000D03*
X001500Y004000D03*
D15*
X009000Y012200D02*
X009000Y012800D01*
X010000Y012800D02*
X010000Y012200D01*
X011000Y012200D02*
X011000Y012800D01*
D16*
X002000Y012000D03*
D17*
X002000Y010031D03*
D18*
X002060Y010120D01*
X003500Y011560D01*
X003500Y016000D01*
X003531Y016000D01*
X005894Y016000D02*
X005900Y016000D01*
X005900Y015520D01*
X006920Y014500D01*
X006860Y014440D01*
X006860Y008200D01*
X005060Y006400D01*
X005000Y006394D01*
X005000Y004031D02*
X004940Y004000D01*
X003860Y004000D01*
X003860Y009400D01*
X004940Y009400D01*
X005000Y009500D01*
X005000Y010500D02*
X004940Y010600D01*
X004580Y010960D01*
X004580Y012400D01*
X004500Y012500D01*
X006920Y014500D02*
X008900Y012520D01*
X009000Y012500D01*
X007580Y012400D02*
X007500Y012500D01*
X007580Y012400D02*
X009980Y010000D01*
X009980Y005920D01*
X010000Y005894D01*
X003860Y004000D02*
X001500Y004000D01*
M02*
