G75*
G70*
%OFA0B0*%
%FSLAX24Y24*%
%IPPOS*%
%LPD*%
%AMOC8*
5,1,8,0,0,1.08239X$1,22.5*
%
%ADD10C,0.0110*%
%ADD11C,0.0050*%
D10*
X011855Y011572D02*
X012249Y011572D01*
X012052Y011572D02*
X012249Y011769D01*
X012249Y011868D01*
X012347Y012109D02*
X012446Y012208D01*
X012446Y012405D01*
X012347Y012503D01*
X012249Y012503D01*
X011855Y012109D01*
X011855Y012503D01*
X011953Y012754D02*
X012347Y013148D01*
X011953Y013148D01*
X011855Y013049D01*
X011855Y012852D01*
X011953Y012754D01*
X012347Y012754D01*
X012446Y012852D01*
X012446Y013049D01*
X012347Y013148D01*
X012249Y013399D02*
X012446Y013595D01*
X011855Y013595D01*
X011855Y013399D02*
X011855Y013792D01*
X012150Y014043D02*
X012150Y014437D01*
X011953Y014688D02*
X012347Y015081D01*
X011953Y015081D01*
X011855Y014983D01*
X011855Y014786D01*
X011953Y014688D01*
X012347Y014688D01*
X012446Y014786D01*
X012446Y014983D01*
X012347Y015081D01*
X012347Y015332D02*
X012446Y015431D01*
X012446Y015627D01*
X012347Y015726D01*
X012249Y015726D01*
X012150Y015627D01*
X012052Y015726D01*
X011953Y015726D01*
X011855Y015627D01*
X011855Y015431D01*
X011953Y015332D01*
X012150Y015529D02*
X012150Y015627D01*
X011953Y015977D02*
X011855Y016075D01*
X011855Y016272D01*
X011953Y016370D01*
X012347Y016370D01*
X011953Y015977D01*
X012347Y015977D01*
X012446Y016075D01*
X012446Y016272D01*
X012347Y016370D01*
X012347Y016621D02*
X012249Y016621D01*
X012150Y016720D01*
X012150Y016917D01*
X012052Y017015D01*
X011953Y017015D01*
X011855Y016917D01*
X011855Y016720D01*
X011953Y016621D01*
X012052Y016621D01*
X012150Y016720D01*
X012150Y016917D02*
X012249Y017015D01*
X012347Y017015D01*
X012446Y016917D01*
X012446Y016720D01*
X012347Y016621D01*
X012150Y017266D02*
X012150Y017660D01*
X012249Y017910D02*
X012446Y018107D01*
X011855Y018107D01*
X011855Y017910D02*
X011855Y018304D01*
X012855Y016518D02*
X013249Y016518D01*
X013249Y016715D02*
X013249Y016813D01*
X013249Y016715D02*
X013052Y016518D01*
X013052Y016267D02*
X013052Y015873D01*
X013150Y015873D02*
X012953Y015873D01*
X012855Y015972D01*
X012855Y016169D01*
X013052Y016267D02*
X013150Y016267D01*
X013249Y016169D01*
X013249Y015972D01*
X013150Y015873D01*
X013249Y015622D02*
X012855Y015229D01*
X012855Y015622D01*
X013249Y015622D02*
X013249Y015229D01*
X013249Y014978D02*
X012855Y014584D01*
X012855Y014978D01*
X013249Y014978D02*
X013249Y014584D01*
X013249Y014333D02*
X012855Y014333D01*
X012855Y014038D01*
X012953Y013940D01*
X013249Y013940D01*
X013249Y013689D02*
X013150Y013590D01*
X013150Y013295D01*
X013150Y013590D02*
X013052Y013689D01*
X012953Y013689D01*
X012855Y013590D01*
X012855Y013295D01*
X013446Y013295D01*
X013446Y013590D01*
X013347Y013689D01*
X013249Y013689D01*
X012446Y014338D02*
X012150Y014043D01*
X011855Y014338D02*
X012446Y014338D01*
X013249Y012409D02*
X013249Y012310D01*
X013052Y012113D01*
X012855Y012113D02*
X013249Y012113D01*
X013150Y011863D02*
X013249Y011764D01*
X013249Y011567D01*
X013150Y011469D01*
X012953Y011469D01*
X012855Y011567D01*
X012855Y011764D01*
X012953Y011863D01*
X013150Y011863D01*
X013249Y011236D02*
X013249Y011039D01*
X013347Y011138D02*
X012953Y011138D01*
X012855Y011236D01*
X012855Y010806D02*
X012855Y010609D01*
X012855Y010708D02*
X013249Y010708D01*
X013249Y010609D01*
X013446Y010708D02*
X013544Y010708D01*
X013150Y010359D02*
X013249Y010260D01*
X013249Y009965D01*
X012855Y009965D01*
X012855Y010359D02*
X013150Y010359D01*
X013150Y009714D02*
X012953Y009714D01*
X012855Y009616D01*
X012855Y009419D01*
X012953Y009320D01*
X013150Y009320D01*
X013249Y009419D01*
X013249Y009616D01*
X013150Y009714D01*
X013446Y009070D02*
X012855Y009070D01*
X012855Y008676D02*
X013446Y008676D01*
X013249Y008873D01*
X013446Y009070D01*
X013249Y007780D02*
X012757Y007780D01*
X012658Y007682D01*
X012658Y007584D01*
X012855Y007485D02*
X012855Y007780D01*
X012855Y007485D02*
X012953Y007387D01*
X013249Y007387D01*
X013150Y007136D02*
X013249Y007037D01*
X013249Y006742D01*
X013446Y006742D02*
X012855Y006742D01*
X012855Y007037D01*
X012953Y007136D01*
X013150Y007136D01*
X013150Y006491D02*
X012855Y006491D01*
X012855Y006196D01*
X012953Y006098D01*
X013052Y006196D01*
X013052Y006491D01*
X013150Y006491D02*
X013249Y006393D01*
X013249Y006196D01*
X013249Y005847D02*
X013150Y005748D01*
X013150Y005453D01*
X013150Y005748D02*
X013052Y005847D01*
X012953Y005847D01*
X012855Y005748D01*
X012855Y005453D01*
X013446Y005453D01*
X013446Y005748D01*
X013347Y005847D01*
X013249Y005847D01*
D11*
X004212Y001555D02*
X004167Y001555D01*
X004212Y001555D02*
X004302Y001465D01*
X004302Y001375D02*
X004302Y001555D01*
X004416Y001510D02*
X004416Y001465D01*
X004596Y001465D01*
X004596Y001420D02*
X004596Y001510D01*
X004551Y001555D01*
X004461Y001555D01*
X004416Y001510D01*
X004461Y001375D02*
X004551Y001375D01*
X004596Y001420D01*
X004711Y001375D02*
X004891Y001375D01*
X004711Y001555D01*
X004891Y001555D01*
X005006Y001555D02*
X005186Y001375D01*
X005006Y001375D01*
X005006Y001555D02*
X005186Y001555D01*
X005300Y001555D02*
X005300Y001375D01*
X005435Y001375D01*
X005480Y001420D01*
X005480Y001555D01*
X005595Y001555D02*
X005640Y001510D01*
X005775Y001510D01*
X005775Y001375D02*
X005775Y001645D01*
X005640Y001645D01*
X005595Y001600D01*
X005595Y001555D01*
X005640Y001510D02*
X005595Y001465D01*
X005595Y001420D01*
X005640Y001375D01*
X005775Y001375D01*
X009119Y001555D02*
X009164Y001555D01*
X009254Y001465D01*
X009254Y001375D02*
X009254Y001555D01*
X009369Y001510D02*
X009369Y001465D01*
X009549Y001465D01*
X009549Y001420D02*
X009549Y001510D01*
X009504Y001555D01*
X009414Y001555D01*
X009369Y001510D01*
X009414Y001375D02*
X009504Y001375D01*
X009549Y001420D01*
X009664Y001375D02*
X009799Y001375D01*
X009844Y001420D01*
X009844Y001510D01*
X009799Y001555D01*
X009664Y001555D01*
X009664Y001330D01*
X009709Y001285D01*
X009754Y001285D01*
X009958Y001330D02*
X009958Y001555D01*
X010093Y001555D01*
X010138Y001510D01*
X010138Y001420D01*
X010093Y001375D01*
X009958Y001375D01*
X009958Y001330D02*
X010003Y001285D01*
X010048Y001285D01*
X010245Y001375D02*
X010335Y001375D01*
X010290Y001375D02*
X010290Y001555D01*
X010335Y001555D01*
X010290Y001645D02*
X010290Y001690D01*
X010445Y001555D02*
X010490Y001555D01*
X010580Y001465D01*
X010580Y001375D02*
X010580Y001555D01*
X010695Y001645D02*
X010875Y001645D01*
X010785Y001645D02*
X010785Y001375D01*
X007775Y008123D02*
X007775Y008303D01*
X007775Y008213D02*
X007505Y008213D01*
X007505Y008418D02*
X007685Y008418D01*
X007685Y008508D02*
X007685Y008553D01*
X007685Y008508D02*
X007595Y008418D01*
X007550Y008663D02*
X007595Y008708D01*
X007595Y008843D01*
X007640Y008843D02*
X007505Y008843D01*
X007505Y008708D01*
X007550Y008663D01*
X007685Y008708D02*
X007685Y008798D01*
X007640Y008843D01*
X007685Y008958D02*
X007505Y008958D01*
X007505Y009138D02*
X007640Y009138D01*
X007685Y009093D01*
X007685Y008958D01*
X007640Y009253D02*
X007685Y009298D01*
X007685Y009433D01*
X007595Y009388D02*
X007595Y009298D01*
X007640Y009253D01*
X007505Y009253D02*
X007505Y009388D01*
X007550Y009433D01*
X007595Y009388D01*
X007505Y009547D02*
X007505Y009637D01*
X007505Y009592D02*
X007685Y009592D01*
X007685Y009547D01*
X007775Y009592D02*
X007820Y009592D01*
X007640Y009744D02*
X007685Y009789D01*
X007685Y009924D01*
X007595Y009879D02*
X007595Y009789D01*
X007640Y009744D01*
X007505Y009744D02*
X007505Y009879D01*
X007550Y009924D01*
X007595Y009879D01*
X007685Y010038D02*
X007685Y010128D01*
X007730Y010083D02*
X007550Y010083D01*
X007505Y010128D01*
X007550Y010235D02*
X007505Y010280D01*
X007505Y010370D01*
X007550Y010415D01*
X007640Y010415D01*
X007685Y010370D01*
X007685Y010280D01*
X007640Y010235D01*
X007550Y010235D01*
X007505Y010529D02*
X007685Y010529D01*
X007595Y010529D02*
X007685Y010620D01*
X007685Y010665D01*
X009917Y014685D02*
X009872Y014730D01*
X009872Y014955D01*
X010007Y014955D01*
X010052Y014910D01*
X010052Y014820D01*
X010007Y014775D01*
X009872Y014775D01*
X009917Y014685D02*
X009962Y014685D01*
X010211Y014775D02*
X010301Y014775D01*
X010346Y014820D01*
X010346Y014910D01*
X010301Y014955D01*
X010211Y014955D01*
X010166Y014910D01*
X010166Y014865D01*
X010346Y014865D01*
X010461Y014910D02*
X010461Y015000D01*
X010506Y015045D01*
X010641Y015045D01*
X010641Y014775D01*
X010641Y014865D02*
X010506Y014865D01*
X010461Y014910D01*
X010551Y014865D02*
X010461Y014775D01*
X011050Y014865D02*
X011050Y015045D01*
X011050Y014865D02*
X011140Y014775D01*
X011230Y014865D01*
X011230Y015045D01*
X011345Y015045D02*
X011435Y015000D01*
X011525Y014910D01*
X011390Y014910D01*
X011345Y014865D01*
X011345Y014820D01*
X011390Y014775D01*
X011480Y014775D01*
X011525Y014820D01*
X011525Y014910D01*
X009757Y014955D02*
X009757Y014820D01*
X009712Y014775D01*
X009577Y014775D01*
X009577Y014955D01*
X009462Y015045D02*
X009417Y015045D01*
X009417Y014775D01*
X009462Y014775D02*
X009372Y014775D01*
X009266Y014820D02*
X009221Y014865D01*
X009086Y014865D01*
X009086Y014910D02*
X009086Y014775D01*
X009221Y014775D01*
X009266Y014820D01*
X009221Y014955D02*
X009131Y014955D01*
X009086Y014910D01*
X008971Y014955D02*
X008881Y014955D01*
X008926Y015000D02*
X008926Y014820D01*
X008881Y014775D01*
X008775Y014820D02*
X008730Y014775D01*
X008640Y014775D01*
X008595Y014820D01*
X008595Y014910D01*
X008640Y014955D01*
X008730Y014955D01*
X008775Y014910D01*
X008775Y014820D01*
X008480Y014775D02*
X008480Y014955D01*
X008480Y014865D02*
X008390Y014955D01*
X008345Y014955D01*
X003025Y012361D02*
X002845Y012361D01*
X002755Y012270D01*
X002845Y012180D01*
X003025Y012180D01*
X003025Y012066D02*
X002980Y011976D01*
X002890Y011886D01*
X002890Y012021D01*
X002845Y012066D01*
X002800Y012066D01*
X002755Y012021D01*
X002755Y011931D01*
X002800Y011886D01*
X002890Y011886D01*
X002890Y011771D02*
X002890Y011591D01*
X002980Y011681D02*
X002800Y011681D01*
X002800Y010361D02*
X002980Y010361D01*
X003025Y010315D01*
X003025Y010180D01*
X002755Y010180D01*
X002755Y010315D01*
X002800Y010361D01*
X002755Y010066D02*
X003025Y010066D01*
X003025Y009886D02*
X002755Y010066D01*
X002755Y009886D02*
X003025Y009886D01*
X002980Y009771D02*
X003025Y009726D01*
X003025Y009636D01*
X002980Y009591D01*
X002800Y009591D01*
X002755Y009636D01*
X002755Y009726D01*
X002800Y009771D01*
X002890Y009771D01*
X002890Y009681D01*
X001160Y014125D02*
X001160Y014305D01*
X001205Y014420D02*
X001295Y014510D01*
X001025Y014510D01*
X001025Y014420D02*
X001025Y014600D01*
X001025Y014714D02*
X001205Y014894D01*
X001250Y014894D01*
X001295Y014849D01*
X001295Y014759D01*
X001250Y014714D01*
X001025Y014714D02*
X001025Y014894D01*
X001115Y015009D02*
X001025Y015099D01*
X001115Y015189D01*
X001295Y015189D01*
X001295Y015009D02*
X001115Y015009D01*
X001070Y015598D02*
X001025Y015643D01*
X001025Y015733D01*
X001070Y015778D01*
X001070Y015893D02*
X001025Y015938D01*
X001025Y016028D01*
X001070Y016073D01*
X001160Y016073D01*
X001205Y016028D01*
X001205Y015938D01*
X001160Y015893D01*
X001070Y015893D01*
X001250Y015778D02*
X001295Y015733D01*
X001295Y015643D01*
X001250Y015598D01*
X001070Y015598D01*
X001025Y016188D02*
X001205Y016188D01*
X001205Y016323D01*
X001160Y016368D01*
X001025Y016368D01*
X001025Y016482D02*
X001205Y016482D01*
X001205Y016617D01*
X001160Y016662D01*
X001025Y016662D01*
X001070Y016777D02*
X001160Y016777D01*
X001205Y016822D01*
X001205Y016912D01*
X001160Y016957D01*
X001115Y016957D01*
X001115Y016777D01*
X001070Y016777D02*
X001025Y016822D01*
X001025Y016912D01*
X001070Y017072D02*
X001025Y017117D01*
X001025Y017252D01*
X001070Y017411D02*
X001025Y017456D01*
X001070Y017411D02*
X001250Y017411D01*
X001205Y017366D02*
X001205Y017456D01*
X001160Y017563D02*
X001070Y017563D01*
X001025Y017608D01*
X001025Y017698D01*
X001070Y017743D01*
X001160Y017743D01*
X001205Y017698D01*
X001205Y017608D01*
X001160Y017563D01*
X001205Y017252D02*
X001205Y017117D01*
X001160Y017072D01*
X001070Y017072D01*
X001025Y017857D02*
X001205Y017857D01*
X001115Y017857D02*
X001205Y017947D01*
X001205Y017992D01*
X001250Y014215D02*
X001070Y014215D01*
M02*
