%
M48
M72
T01C0.0354
T02C0.0400
T03C0.0440
T04C0.0512
T05C0.1180
T06C0.1300
%
T01
X4500Y12500
X7500Y12500
T02
X9000Y12500
X10000Y12500
X11000Y12500
T03
X5000Y10500
X5000Y9500
X5000Y8500
X1500Y8000
X1500Y4000
T04
X2000Y10031
X2000Y12000
T05
X4713Y14150
X5894Y16000
X3531Y16000
X5000Y6394
X5000Y4031
X6850Y5213
X10000Y5894
X10000Y3531
X11850Y4713
T06
X1500Y2000
X11900Y9500
X13000Y2000
X10000Y18400
X13000Y19500
X1500Y19500
M30
