%
M48
M72
T01C0.0280
T02C0.0315
T03C0.0320
T04C0.0400
T05C0.1300
%
T01
X8833Y2250
X8833Y2950
T02
X8121Y9600
X8121Y10600
T03
X10333Y10100
X10833Y8600
X11833Y8600
X12833Y8600
X13833Y8600
X15833Y8100
X17833Y8100
X15833Y6600
X13833Y5600
X12833Y5600
X11833Y5600
X10833Y5600
X8833Y5600
X7333Y4600
X6333Y4600
X10333Y4100
X10333Y2100
X14333Y2100
X15833Y2600
X14333Y4100
X8833Y7600
X14333Y10100
X14333Y12100
X15833Y12100
X17833Y12100
X10333Y12100
T04
X18833Y5600
X18833Y4600
X18833Y3600
T05
X6333Y1600
X18333Y1600
X18333Y13600
X6333Y13600
M30
