G75*
G70*
%OFA0B0*%
%FSLAX24Y24*%
%IPPOS*%
%LPD*%
%AMOC8*
5,1,8,0,0,1.08239X$1,22.5*
%
%ADD10C,0.0080*%
%ADD11C,0.0520*%
%ADD12OC8,0.0520*%
%ADD13OC8,0.0630*%
%ADD14C,0.0630*%
%ADD15C,0.0750*%
%ADD16OC8,0.0750*%
%ADD17OC8,0.0480*%
%ADD18C,0.0480*%
%ADD19C,0.0660*%
%ADD20C,0.0740*%
%ADD21C,0.0100*%
D10*
X018873Y007190D02*
X019154Y007470D01*
X019224Y007470D01*
X019294Y007400D01*
X019294Y007260D01*
X019224Y007190D01*
X018873Y007190D02*
X018873Y007470D01*
X018943Y007650D02*
X019224Y007931D01*
X018943Y007931D01*
X018873Y007861D01*
X018873Y007720D01*
X018943Y007650D01*
X019224Y007650D01*
X019294Y007720D01*
X019294Y007861D01*
X019224Y007931D01*
X019154Y008111D02*
X019294Y008251D01*
X018873Y008251D01*
X018873Y008111D02*
X018873Y008391D01*
X018943Y008571D02*
X018873Y008641D01*
X018873Y008781D01*
X018943Y008851D01*
X019013Y008851D01*
X019084Y008781D01*
X019084Y008711D01*
X019084Y008781D02*
X019154Y008851D01*
X019224Y008851D01*
X019294Y008781D01*
X019294Y008641D01*
X019224Y008571D01*
X019224Y009032D02*
X018943Y009032D01*
X019224Y009312D01*
X018943Y009312D01*
X018873Y009242D01*
X018873Y009102D01*
X018943Y009032D01*
X019224Y009032D02*
X019294Y009102D01*
X019294Y009242D01*
X019224Y009312D01*
X019084Y009492D02*
X018943Y009492D01*
X018873Y009562D01*
X018873Y009702D01*
X018943Y009772D01*
X019013Y009772D01*
X019084Y009702D01*
X019084Y009492D01*
X019224Y009632D01*
X019294Y009772D01*
X019154Y009952D02*
X019294Y010092D01*
X018873Y010092D01*
X018873Y009952D02*
X018873Y010233D01*
X018943Y010413D02*
X018873Y010483D01*
X018873Y010623D01*
X018943Y010693D01*
X019013Y010693D01*
X019084Y010623D01*
X019084Y010553D01*
X019084Y010623D02*
X019154Y010693D01*
X019224Y010693D01*
X019294Y010623D01*
X019294Y010483D01*
X019224Y010413D01*
X019154Y010873D02*
X018873Y010873D01*
X019013Y010873D02*
X019154Y011013D01*
X019154Y011083D01*
X019224Y011257D02*
X018943Y011257D01*
X019224Y011537D01*
X018943Y011537D01*
X018873Y011467D01*
X018873Y011327D01*
X018943Y011257D01*
X019224Y011257D02*
X019294Y011327D01*
X019294Y011467D01*
X019224Y011537D01*
X019154Y011717D02*
X019294Y011857D01*
X018873Y011857D01*
X018873Y011717D02*
X018873Y011997D01*
D11*
X013833Y008650D03*
X012833Y008650D03*
X011833Y008650D03*
X010833Y008650D03*
X010833Y005650D03*
X011833Y005650D03*
X012833Y005650D03*
X013833Y005650D03*
D12*
X015833Y006650D03*
X015833Y008150D03*
X017833Y008150D03*
X014333Y010150D03*
X014333Y012150D03*
X015833Y012150D03*
X017833Y012150D03*
X010333Y012150D03*
X010333Y010150D03*
X010333Y004150D03*
X010333Y002150D03*
X014333Y002150D03*
X015833Y002650D03*
X014333Y004150D03*
D13*
X006333Y004650D03*
D14*
X007333Y004650D03*
D15*
X008833Y007650D03*
D16*
X008833Y005650D03*
D17*
X008833Y003000D03*
D18*
X008833Y002300D03*
D19*
X008121Y009650D03*
X008121Y010650D03*
D20*
X018833Y005650D03*
X018833Y004650D03*
X018833Y003650D03*
D21*
X008593Y001990D02*
X007393Y001990D01*
X007393Y004630D01*
X007333Y004650D01*
X007233Y005590D02*
X006353Y004710D01*
X006333Y004650D01*
X007233Y005590D02*
X008113Y005590D01*
X008113Y009590D01*
X008121Y009650D01*
X008193Y009670D01*
X009073Y010550D01*
X013873Y010550D01*
X014273Y010150D01*
X014333Y010150D01*
X012833Y008710D02*
X012433Y009110D01*
X011393Y009110D01*
X010353Y010150D01*
X010333Y010150D01*
X012833Y008710D02*
X012833Y008650D01*
X013793Y008630D02*
X013833Y008650D01*
X013793Y008630D02*
X011393Y006230D01*
X011393Y005110D01*
X008833Y005110D01*
X008833Y003000D01*
X008593Y001990D02*
X008673Y001910D01*
X009473Y001910D01*
X011713Y004150D01*
X014333Y004150D01*
X014273Y005110D02*
X015793Y006630D01*
X015833Y006650D01*
X015873Y008150D02*
X015833Y008150D01*
X015873Y008150D02*
X018353Y005670D01*
X018833Y005670D01*
X018833Y005650D01*
X018833Y004650D02*
X018833Y004630D01*
X016913Y002710D01*
X015873Y002710D01*
X015833Y002650D01*
X015793Y002630D01*
X014833Y002630D01*
X014353Y002150D01*
X014333Y002150D01*
X014273Y005110D02*
X011393Y005110D01*
X011833Y005650D02*
X011873Y005670D01*
X014753Y008550D01*
X017393Y008550D01*
X017793Y008150D01*
X017833Y008150D01*
X010833Y005670D02*
X010833Y005650D01*
X010833Y005670D02*
X008913Y007590D01*
X008833Y007590D01*
X008833Y007650D01*
X008833Y005650D02*
X008833Y005590D01*
X008113Y005590D01*
M02*
