G75*
G70*
%OFA0B0*%
%FSLAX24Y24*%
%IPPOS*%
%LPD*%
%AMOC8*
5,1,8,0,0,1.08239X$1,22.5*
%
%ADD10C,0.0080*%
%ADD11C,0.0100*%
%ADD12C,0.0050*%
%ADD13C,0.0060*%
%ADD14R,0.0340X0.0240*%
%ADD15R,0.0240X0.0340*%
%ADD16R,0.0800X0.0200*%
%ADD17C,0.0040*%
D10*
X007873Y000690D02*
X008154Y000690D01*
X008334Y000690D02*
X008614Y001110D01*
X008794Y000900D02*
X009074Y000900D01*
X009255Y000900D02*
X009465Y000900D01*
X009535Y000830D01*
X009535Y000760D01*
X009465Y000690D01*
X009255Y000690D01*
X009255Y001110D01*
X009465Y001110D01*
X009535Y001040D01*
X009535Y000970D01*
X009465Y000900D01*
X009715Y000760D02*
X009785Y000830D01*
X009995Y000830D01*
X009995Y000900D02*
X009995Y000690D01*
X009785Y000690D01*
X009715Y000760D01*
X009785Y000970D02*
X009925Y000970D01*
X009995Y000900D01*
X010175Y000900D02*
X010245Y000970D01*
X010456Y000970D01*
X010385Y000830D02*
X010245Y000830D01*
X010175Y000900D01*
X010175Y000690D02*
X010385Y000690D01*
X010456Y000760D01*
X010385Y000830D01*
X010636Y000830D02*
X010916Y000830D01*
X010916Y000900D01*
X010846Y000970D01*
X010706Y000970D01*
X010636Y000900D01*
X010636Y000760D01*
X010706Y000690D01*
X010846Y000690D01*
X011096Y000760D02*
X011096Y000900D01*
X011166Y000970D01*
X011376Y000970D01*
X011376Y001110D02*
X011376Y000690D01*
X011166Y000690D01*
X011096Y000760D01*
X012017Y000760D02*
X012087Y000690D01*
X012227Y000690D01*
X012297Y000760D01*
X012297Y000830D01*
X012227Y000900D01*
X012087Y000900D01*
X012017Y000970D01*
X012017Y001040D01*
X012087Y001110D01*
X012227Y001110D01*
X012297Y001040D01*
X012477Y000900D02*
X012477Y000760D01*
X012547Y000690D01*
X012687Y000690D01*
X012757Y000760D01*
X012757Y000900D01*
X012687Y000970D01*
X012547Y000970D01*
X012477Y000900D01*
X012938Y000970D02*
X012938Y000760D01*
X013008Y000690D01*
X013218Y000690D01*
X013218Y000970D01*
X013398Y000970D02*
X013398Y000690D01*
X013398Y000970D02*
X013608Y000970D01*
X013678Y000900D01*
X013678Y000690D01*
X013858Y000760D02*
X013858Y000900D01*
X013928Y000970D01*
X014139Y000970D01*
X014139Y001110D02*
X014139Y000690D01*
X013928Y000690D01*
X013858Y000760D01*
X014779Y000690D02*
X014989Y000690D01*
X015059Y000760D01*
X015059Y000830D01*
X014989Y000900D01*
X014779Y000900D01*
X014779Y000690D02*
X014779Y001110D01*
X014989Y001110D01*
X015059Y001040D01*
X015059Y000970D01*
X014989Y000900D01*
X015240Y000900D02*
X015240Y000760D01*
X015310Y000690D01*
X015450Y000690D01*
X015520Y000760D01*
X015520Y000900D01*
X015450Y000970D01*
X015310Y000970D01*
X015240Y000900D01*
X015700Y000760D02*
X015770Y000830D01*
X015980Y000830D01*
X015980Y000900D02*
X015980Y000690D01*
X015770Y000690D01*
X015700Y000760D01*
X015770Y000970D02*
X015910Y000970D01*
X015980Y000900D01*
X016160Y000830D02*
X016301Y000970D01*
X016371Y000970D01*
X016544Y000900D02*
X016614Y000970D01*
X016824Y000970D01*
X016824Y001110D02*
X016824Y000690D01*
X016614Y000690D01*
X016544Y000760D01*
X016544Y000900D01*
X016160Y000970D02*
X016160Y000690D01*
X018583Y003150D02*
X018333Y003400D01*
X018333Y003900D01*
X018583Y004150D01*
X018333Y004400D01*
X018333Y004900D01*
X018583Y005150D01*
X018333Y005400D01*
X018333Y005900D01*
X018583Y006150D01*
X019083Y006150D01*
X019333Y005900D01*
X019333Y005400D01*
X019083Y005150D01*
X019333Y004900D01*
X019333Y004400D01*
X019083Y004150D01*
X019333Y003900D01*
X019333Y003400D01*
X019083Y003150D01*
X018583Y003150D01*
X018071Y003510D02*
X018071Y003650D01*
X017931Y003650D01*
X018071Y003510D02*
X018001Y003440D01*
X017861Y003440D01*
X017791Y003510D01*
X017791Y003790D01*
X017861Y003860D01*
X018001Y003860D01*
X018071Y003790D01*
X017624Y003860D02*
X017484Y003860D01*
X017554Y003860D02*
X017554Y003440D01*
X017484Y003440D02*
X017624Y003440D01*
X017304Y003510D02*
X017234Y003440D01*
X017093Y003440D01*
X017023Y003510D01*
X017093Y003650D02*
X017234Y003650D01*
X017304Y003580D01*
X017304Y003510D01*
X017093Y003650D02*
X017023Y003720D01*
X017023Y003790D01*
X017093Y003860D01*
X017234Y003860D01*
X017304Y003790D01*
X017334Y004490D02*
X017334Y004910D01*
X017614Y004490D01*
X017614Y004910D01*
X017794Y004910D02*
X018004Y004910D01*
X018074Y004840D01*
X018074Y004560D01*
X018004Y004490D01*
X017794Y004490D01*
X017794Y004910D01*
X017154Y004840D02*
X017084Y004910D01*
X016943Y004910D01*
X016873Y004840D01*
X016873Y004560D01*
X016943Y004490D01*
X017084Y004490D01*
X017154Y004560D01*
X017154Y004700D01*
X017013Y004700D01*
X017013Y005440D02*
X017154Y005580D01*
X017154Y005860D01*
X017334Y005790D02*
X017334Y005510D01*
X017404Y005440D01*
X017544Y005440D01*
X017614Y005510D01*
X017794Y005510D02*
X017864Y005440D01*
X018004Y005440D01*
X018074Y005510D01*
X017794Y005510D02*
X017794Y005790D01*
X017864Y005860D01*
X018004Y005860D01*
X018074Y005790D01*
X017614Y005790D02*
X017544Y005860D01*
X017404Y005860D01*
X017334Y005790D01*
X016873Y005860D02*
X016873Y005580D01*
X017013Y005440D01*
X008614Y000690D02*
X008334Y001110D01*
X008154Y001110D02*
X008154Y001040D01*
X007873Y000760D01*
X007873Y000690D01*
X007873Y001110D02*
X008154Y001110D01*
X005424Y010150D02*
X005426Y010244D01*
X005433Y010337D01*
X005445Y010430D01*
X005461Y010522D01*
X005481Y010614D01*
X005506Y010704D01*
X005536Y010793D01*
X005569Y010881D01*
X005607Y010966D01*
X005649Y011050D01*
X005696Y011131D01*
X005746Y011211D01*
X005800Y011287D01*
X005857Y011361D01*
X005919Y011432D01*
X005983Y011500D01*
X006051Y011564D01*
X006122Y011626D01*
X006196Y011683D01*
X006272Y011737D01*
X006352Y011787D01*
X006433Y011834D01*
X006517Y011876D01*
X006602Y011914D01*
X006690Y011947D01*
X006779Y011977D01*
X006869Y012002D01*
X006961Y012022D01*
X007053Y012038D01*
X007146Y012050D01*
X007239Y012057D01*
X007333Y012059D01*
X007427Y012057D01*
X007520Y012050D01*
X007613Y012038D01*
X007705Y012022D01*
X007797Y012002D01*
X007887Y011977D01*
X007976Y011947D01*
X008064Y011914D01*
X008149Y011876D01*
X008233Y011834D01*
X008314Y011787D01*
X008394Y011737D01*
X008470Y011683D01*
X008544Y011626D01*
X008615Y011564D01*
X008683Y011500D01*
X008747Y011432D01*
X008809Y011361D01*
X008866Y011287D01*
X008920Y011211D01*
X008970Y011131D01*
X009017Y011050D01*
X009059Y010966D01*
X009097Y010881D01*
X009130Y010793D01*
X009160Y010704D01*
X009185Y010614D01*
X009205Y010522D01*
X009221Y010430D01*
X009233Y010337D01*
X009240Y010244D01*
X009242Y010150D01*
X009240Y010056D01*
X009233Y009963D01*
X009221Y009870D01*
X009205Y009778D01*
X009185Y009686D01*
X009160Y009596D01*
X009130Y009507D01*
X009097Y009419D01*
X009059Y009334D01*
X009017Y009250D01*
X008970Y009169D01*
X008920Y009089D01*
X008866Y009013D01*
X008809Y008939D01*
X008747Y008868D01*
X008683Y008800D01*
X008615Y008736D01*
X008544Y008674D01*
X008470Y008617D01*
X008394Y008563D01*
X008314Y008513D01*
X008233Y008466D01*
X008149Y008424D01*
X008064Y008386D01*
X007976Y008353D01*
X007887Y008323D01*
X007797Y008298D01*
X007705Y008278D01*
X007613Y008262D01*
X007520Y008250D01*
X007427Y008243D01*
X007333Y008241D01*
X007239Y008243D01*
X007146Y008250D01*
X007053Y008262D01*
X006961Y008278D01*
X006869Y008298D01*
X006779Y008323D01*
X006690Y008353D01*
X006602Y008386D01*
X006517Y008424D01*
X006433Y008466D01*
X006352Y008513D01*
X006272Y008563D01*
X006196Y008617D01*
X006122Y008674D01*
X006051Y008736D01*
X005983Y008800D01*
X005919Y008868D01*
X005857Y008939D01*
X005800Y009013D01*
X005746Y009089D01*
X005696Y009169D01*
X005649Y009250D01*
X005607Y009334D01*
X005569Y009419D01*
X005536Y009507D01*
X005506Y009596D01*
X005481Y009686D01*
X005461Y009778D01*
X005445Y009870D01*
X005433Y009963D01*
X005426Y010056D01*
X005424Y010150D01*
X010873Y013760D02*
X010873Y013900D01*
X010943Y013970D01*
X011154Y013970D01*
X011154Y014110D02*
X011154Y013690D01*
X010943Y013690D01*
X010873Y013760D01*
X011334Y013760D02*
X011334Y013900D01*
X011404Y013970D01*
X011544Y013970D01*
X011614Y013900D01*
X011614Y013830D01*
X011334Y013830D01*
X011334Y013760D02*
X011404Y013690D01*
X011544Y013690D01*
X011794Y013690D02*
X012004Y013690D01*
X012074Y013760D01*
X012004Y013830D01*
X011864Y013830D01*
X011794Y013900D01*
X011864Y013970D01*
X012074Y013970D01*
X012255Y013970D02*
X012325Y013970D01*
X012325Y013690D01*
X012255Y013690D02*
X012395Y013690D01*
X012561Y013760D02*
X012561Y013900D01*
X012631Y013970D01*
X012842Y013970D01*
X012842Y013620D01*
X012772Y013550D01*
X012702Y013550D01*
X012631Y013690D02*
X012842Y013690D01*
X013022Y013690D02*
X013022Y013970D01*
X013232Y013970D01*
X013302Y013900D01*
X013302Y013690D01*
X012631Y013690D02*
X012561Y013760D01*
X012325Y014110D02*
X012325Y014180D01*
D11*
X010933Y014800D02*
X010433Y014800D01*
X009933Y014300D01*
X009933Y013800D01*
X010433Y013300D01*
X010933Y013300D01*
X009933Y013300D02*
X009933Y013800D01*
X009933Y014300D02*
X009433Y014800D01*
X008933Y014300D01*
X008933Y013800D01*
X008933Y014300D02*
X008433Y014800D01*
X007933Y014300D01*
X007933Y013300D01*
D12*
X006343Y003945D02*
X006343Y003675D01*
X006388Y003810D02*
X006208Y003810D01*
X006343Y003945D01*
X006503Y003945D02*
X006683Y003945D01*
X006683Y003900D01*
X006503Y003720D01*
X006503Y003675D01*
X006798Y003720D02*
X006978Y003900D01*
X006978Y003720D01*
X006933Y003675D01*
X006843Y003675D01*
X006798Y003720D01*
X006798Y003900D01*
X006843Y003945D01*
X006933Y003945D01*
X006978Y003900D01*
X007092Y003855D02*
X007092Y003720D01*
X007137Y003675D01*
X007272Y003675D01*
X007272Y003855D01*
X007387Y003810D02*
X007477Y003810D01*
X007387Y003675D02*
X007387Y003945D01*
X007567Y003945D01*
X008382Y003830D02*
X008382Y003650D01*
X008563Y003830D01*
X008563Y003650D01*
X008518Y003605D01*
X008427Y003605D01*
X008382Y003650D01*
X008382Y003830D02*
X008427Y003875D01*
X008518Y003875D01*
X008563Y003830D01*
X008677Y003650D02*
X008722Y003650D01*
X008722Y003605D01*
X008677Y003605D01*
X008677Y003650D01*
X008824Y003605D02*
X009005Y003605D01*
X008914Y003605D02*
X008914Y003875D01*
X008824Y003785D01*
X009119Y003785D02*
X009119Y003650D01*
X009164Y003605D01*
X009299Y003605D01*
X009299Y003785D01*
X009414Y003740D02*
X009504Y003740D01*
X009414Y003875D02*
X009594Y003875D01*
X009414Y003875D02*
X009414Y003605D01*
X011958Y003925D02*
X012138Y004105D01*
X012138Y004150D01*
X012093Y004195D01*
X012003Y004195D01*
X011958Y004150D01*
X012253Y004150D02*
X012298Y004195D01*
X012388Y004195D01*
X012433Y004150D01*
X012433Y004105D01*
X012253Y003925D01*
X012433Y003925D01*
X012548Y003925D02*
X012548Y004195D01*
X012683Y004105D02*
X012548Y004015D01*
X012683Y003925D01*
X012138Y003925D02*
X011958Y003925D01*
X012498Y002195D02*
X012498Y001925D01*
X012408Y001925D02*
X012588Y001925D01*
X012703Y001925D02*
X012703Y002195D01*
X012838Y002105D02*
X012703Y002015D01*
X012838Y001925D01*
X012498Y002195D02*
X012408Y002105D01*
X015788Y003865D02*
X016058Y003865D01*
X016058Y003775D02*
X016058Y003955D01*
X016013Y004070D02*
X015833Y004250D01*
X016013Y004250D01*
X016058Y004205D01*
X016058Y004115D01*
X016013Y004070D01*
X015833Y004070D01*
X015788Y004115D01*
X015788Y004205D01*
X015833Y004250D01*
X015833Y004364D02*
X015788Y004409D01*
X015788Y004499D01*
X015833Y004544D01*
X016013Y004364D01*
X016058Y004409D01*
X016058Y004499D01*
X016013Y004544D01*
X015833Y004544D01*
X015788Y004659D02*
X016058Y004659D01*
X015968Y004659D02*
X015878Y004794D01*
X015968Y004659D02*
X016058Y004794D01*
X016013Y004364D02*
X015833Y004364D01*
X015788Y003865D02*
X015878Y003775D01*
X012861Y007015D02*
X012726Y007015D01*
X012726Y006925D02*
X012726Y007195D01*
X012861Y007195D01*
X012906Y007150D01*
X012906Y007060D01*
X012861Y007015D01*
X012612Y006925D02*
X012432Y006925D01*
X012612Y007105D01*
X012612Y007150D01*
X012567Y007195D01*
X012477Y007195D01*
X012432Y007150D01*
X012317Y007150D02*
X012137Y006970D01*
X012137Y006925D01*
X012022Y006925D02*
X011842Y006925D01*
X012022Y007105D01*
X012022Y007150D01*
X011977Y007195D01*
X011887Y007195D01*
X011842Y007150D01*
X011728Y007150D02*
X011683Y007195D01*
X011593Y007195D01*
X011548Y007150D01*
X011548Y006970D01*
X011593Y006925D01*
X011683Y006925D01*
X011728Y006970D01*
X011433Y006925D02*
X011253Y006925D01*
X011253Y007195D01*
X011138Y007195D02*
X010958Y007195D01*
X011048Y007195D02*
X011048Y006925D01*
X012137Y007195D02*
X012317Y007195D01*
X012317Y007150D01*
X015788Y009765D02*
X016058Y009765D01*
X016058Y009675D02*
X016058Y009855D01*
X016058Y009970D02*
X015878Y010150D01*
X015833Y010150D01*
X015788Y010105D01*
X015788Y010015D01*
X015833Y009970D01*
X015788Y009765D02*
X015878Y009675D01*
X016058Y009970D02*
X016058Y010150D01*
X016058Y010264D02*
X015788Y010264D01*
X015788Y010399D01*
X015833Y010444D01*
X015923Y010444D01*
X015968Y010399D01*
X015968Y010264D01*
X015968Y010354D02*
X016058Y010444D01*
X017788Y009864D02*
X018058Y009864D01*
X017968Y009864D02*
X017878Y009999D01*
X017968Y009864D02*
X018058Y009999D01*
X018013Y009750D02*
X018058Y009705D01*
X018058Y009615D01*
X018013Y009570D01*
X017968Y009570D01*
X017923Y009615D01*
X017923Y009705D01*
X017968Y009750D01*
X018013Y009750D01*
X017923Y009705D02*
X017878Y009750D01*
X017833Y009750D01*
X017788Y009705D01*
X017788Y009615D01*
X017833Y009570D01*
X017878Y009570D01*
X017923Y009615D01*
X017968Y009455D02*
X017923Y009410D01*
X017923Y009275D01*
X018013Y009275D01*
X018058Y009320D01*
X018058Y009410D01*
X018013Y009455D01*
X017968Y009455D01*
X017833Y009365D02*
X017923Y009275D01*
X017833Y009365D02*
X017788Y009455D01*
X012477Y011925D02*
X012342Y012015D01*
X012477Y012105D01*
X012342Y012195D02*
X012342Y011925D01*
X012228Y011970D02*
X012183Y011925D01*
X012093Y011925D01*
X012048Y011970D01*
X012228Y012150D01*
X012228Y011970D01*
X012228Y012150D02*
X012183Y012195D01*
X012093Y012195D01*
X012048Y012150D01*
X012048Y011970D01*
X011933Y011970D02*
X011888Y011925D01*
X011798Y011925D01*
X011753Y011970D01*
X011933Y012150D01*
X011933Y011970D01*
X011753Y011970D02*
X011753Y012150D01*
X011798Y012195D01*
X011888Y012195D01*
X011933Y012150D01*
X011638Y011925D02*
X011458Y011925D01*
X011548Y011925D02*
X011548Y012195D01*
X011458Y012105D01*
X011858Y010375D02*
X011858Y010105D01*
X011768Y010105D02*
X011948Y010105D01*
X012063Y010105D02*
X012063Y010375D01*
X012198Y010285D02*
X012063Y010195D01*
X012198Y010105D01*
X011858Y010375D02*
X011768Y010285D01*
X007773Y007299D02*
X007773Y007209D01*
X007728Y007094D02*
X007908Y007094D01*
X007908Y006959D01*
X007863Y006914D01*
X007728Y006914D01*
X007728Y006800D02*
X007683Y006800D01*
X007638Y006755D01*
X007638Y006665D01*
X007683Y006620D01*
X007683Y006505D02*
X007638Y006460D01*
X007638Y006370D01*
X007683Y006325D01*
X007683Y006505D02*
X007728Y006505D01*
X007908Y006325D01*
X007908Y006505D01*
X007908Y006620D02*
X007728Y006800D01*
X007908Y006800D02*
X007908Y006620D01*
X007908Y007209D02*
X007638Y007209D01*
X007638Y007389D01*
D13*
X008433Y006950D02*
X008433Y006750D01*
X009233Y006750D01*
X009233Y006950D01*
X008833Y006950D01*
X008433Y006950D01*
X008833Y006950D02*
X008833Y007200D01*
X008983Y007150D02*
X009183Y007150D01*
X009083Y007250D02*
X009083Y007050D01*
X008394Y007319D02*
X008349Y007287D01*
X008307Y007253D01*
X008267Y007215D01*
X008230Y007176D01*
X008195Y007133D01*
X008164Y007089D01*
X008136Y007042D01*
X008110Y006993D01*
X008089Y006943D01*
X008070Y006892D01*
X008056Y006839D01*
X008045Y006786D01*
X008037Y006732D01*
X008033Y006677D01*
X008033Y006623D01*
X008037Y006568D01*
X008045Y006514D01*
X008056Y006461D01*
X008070Y006408D01*
X008089Y006357D01*
X008110Y006307D01*
X008136Y006258D01*
X008164Y006211D01*
X008195Y006167D01*
X008230Y006124D01*
X008267Y006085D01*
X008307Y006047D01*
X008349Y006013D01*
X008394Y005981D01*
X008833Y006100D02*
X008833Y006400D01*
X009272Y005981D02*
X009317Y006013D01*
X009359Y006047D01*
X009399Y006085D01*
X009436Y006124D01*
X009471Y006167D01*
X009502Y006211D01*
X009530Y006258D01*
X009556Y006307D01*
X009577Y006357D01*
X009596Y006408D01*
X009610Y006461D01*
X009621Y006514D01*
X009629Y006568D01*
X009633Y006623D01*
X009633Y006677D01*
X009629Y006732D01*
X009621Y006786D01*
X009610Y006839D01*
X009596Y006892D01*
X009577Y006943D01*
X009556Y006993D01*
X009530Y007042D01*
X009502Y007089D01*
X009471Y007133D01*
X009436Y007176D01*
X009399Y007215D01*
X009359Y007253D01*
X009317Y007287D01*
X009272Y007319D01*
X010333Y007550D02*
X010372Y007548D01*
X010411Y007542D01*
X010449Y007533D01*
X010486Y007520D01*
X010522Y007503D01*
X010555Y007483D01*
X010587Y007459D01*
X010616Y007433D01*
X010642Y007404D01*
X010666Y007372D01*
X010686Y007339D01*
X010703Y007303D01*
X010716Y007266D01*
X010725Y007228D01*
X010731Y007189D01*
X010733Y007150D01*
X010731Y007111D01*
X010725Y007072D01*
X010716Y007034D01*
X010703Y006997D01*
X010686Y006961D01*
X010666Y006928D01*
X010642Y006896D01*
X010616Y006867D01*
X010587Y006841D01*
X010555Y006817D01*
X010522Y006797D01*
X010486Y006780D01*
X010449Y006767D01*
X010411Y006758D01*
X010372Y006752D01*
X010333Y006750D01*
X010333Y006000D01*
X014333Y006000D01*
X014333Y008300D01*
X010333Y008300D01*
X010333Y007550D01*
X011183Y009700D02*
X011333Y009700D01*
X011383Y009750D01*
X013283Y009750D01*
X013333Y009700D01*
X013483Y009700D01*
X013500Y009702D01*
X013517Y009706D01*
X013533Y009713D01*
X013547Y009723D01*
X013560Y009736D01*
X013570Y009750D01*
X013577Y009766D01*
X013581Y009783D01*
X013583Y009800D01*
X013583Y010500D01*
X013581Y010517D01*
X013577Y010534D01*
X013570Y010550D01*
X013560Y010564D01*
X013547Y010577D01*
X013533Y010587D01*
X013517Y010594D01*
X013500Y010598D01*
X013483Y010600D01*
X013333Y010600D01*
X013283Y010550D01*
X011383Y010550D01*
X011333Y010600D01*
X011183Y010600D01*
X011166Y010598D01*
X011149Y010594D01*
X011133Y010587D01*
X011119Y010577D01*
X011106Y010564D01*
X011096Y010550D01*
X011089Y010534D01*
X011085Y010517D01*
X011083Y010500D01*
X011083Y009800D01*
X011085Y009783D01*
X011089Y009766D01*
X011096Y009750D01*
X011106Y009736D01*
X011119Y009723D01*
X011133Y009713D01*
X011149Y009706D01*
X011166Y009702D01*
X011183Y009700D01*
X011183Y011700D02*
X011333Y011700D01*
X011383Y011750D01*
X013283Y011750D01*
X013333Y011700D01*
X013483Y011700D01*
X013500Y011702D01*
X013517Y011706D01*
X013533Y011713D01*
X013547Y011723D01*
X013560Y011736D01*
X013570Y011750D01*
X013577Y011766D01*
X013581Y011783D01*
X013583Y011800D01*
X013583Y012500D01*
X013581Y012517D01*
X013577Y012534D01*
X013570Y012550D01*
X013560Y012564D01*
X013547Y012577D01*
X013533Y012587D01*
X013517Y012594D01*
X013500Y012598D01*
X013483Y012600D01*
X013333Y012600D01*
X013283Y012550D01*
X011383Y012550D01*
X011333Y012600D01*
X011183Y012600D01*
X011166Y012598D01*
X011149Y012594D01*
X011133Y012587D01*
X011119Y012577D01*
X011106Y012564D01*
X011096Y012550D01*
X011089Y012534D01*
X011085Y012517D01*
X011083Y012500D01*
X011083Y011800D01*
X011085Y011783D01*
X011089Y011766D01*
X011096Y011750D01*
X011106Y011736D01*
X011119Y011723D01*
X011133Y011713D01*
X011149Y011706D01*
X011166Y011702D01*
X011183Y011700D01*
X015383Y011300D02*
X015383Y011150D01*
X015433Y011100D01*
X015433Y009200D01*
X015383Y009150D01*
X015383Y009000D01*
X015385Y008983D01*
X015389Y008966D01*
X015396Y008950D01*
X015406Y008936D01*
X015419Y008923D01*
X015433Y008913D01*
X015449Y008906D01*
X015466Y008902D01*
X015483Y008900D01*
X016183Y008900D01*
X016200Y008902D01*
X016217Y008906D01*
X016233Y008913D01*
X016247Y008923D01*
X016260Y008936D01*
X016270Y008950D01*
X016277Y008966D01*
X016281Y008983D01*
X016283Y009000D01*
X016283Y009150D01*
X016233Y009200D01*
X016233Y011100D01*
X016283Y011150D01*
X016283Y011300D01*
X016281Y011317D01*
X016277Y011334D01*
X016270Y011350D01*
X016260Y011364D01*
X016247Y011377D01*
X016233Y011387D01*
X016217Y011394D01*
X016200Y011398D01*
X016183Y011400D01*
X015483Y011400D01*
X015466Y011398D01*
X015449Y011394D01*
X015433Y011387D01*
X015419Y011377D01*
X015406Y011364D01*
X015396Y011350D01*
X015389Y011334D01*
X015385Y011317D01*
X015383Y011300D01*
X017383Y011300D02*
X017383Y011150D01*
X017433Y011100D01*
X017433Y009200D01*
X017383Y009150D01*
X017383Y009000D01*
X017385Y008983D01*
X017389Y008966D01*
X017396Y008950D01*
X017406Y008936D01*
X017419Y008923D01*
X017433Y008913D01*
X017449Y008906D01*
X017466Y008902D01*
X017483Y008900D01*
X018183Y008900D01*
X018200Y008902D01*
X018217Y008906D01*
X018233Y008913D01*
X018247Y008923D01*
X018260Y008936D01*
X018270Y008950D01*
X018277Y008966D01*
X018281Y008983D01*
X018283Y009000D01*
X018283Y009150D01*
X018233Y009200D01*
X018233Y011100D01*
X018283Y011150D01*
X018283Y011300D01*
X018281Y011317D01*
X018277Y011334D01*
X018270Y011350D01*
X018260Y011364D01*
X018247Y011377D01*
X018233Y011387D01*
X018217Y011394D01*
X018200Y011398D01*
X018183Y011400D01*
X017483Y011400D01*
X017466Y011398D01*
X017449Y011394D01*
X017433Y011387D01*
X017419Y011377D01*
X017406Y011364D01*
X017396Y011350D01*
X017389Y011334D01*
X017385Y011317D01*
X017383Y011300D01*
X016183Y005900D02*
X015483Y005900D01*
X015466Y005898D01*
X015449Y005894D01*
X015433Y005887D01*
X015419Y005877D01*
X015406Y005864D01*
X015396Y005850D01*
X015389Y005834D01*
X015385Y005817D01*
X015383Y005800D01*
X015383Y005650D01*
X015433Y005600D01*
X015433Y003700D01*
X015383Y003650D01*
X015383Y003500D01*
X015385Y003483D01*
X015389Y003466D01*
X015396Y003450D01*
X015406Y003436D01*
X015419Y003423D01*
X015433Y003413D01*
X015449Y003406D01*
X015466Y003402D01*
X015483Y003400D01*
X016183Y003400D01*
X016200Y003402D01*
X016217Y003406D01*
X016233Y003413D01*
X016247Y003423D01*
X016260Y003436D01*
X016270Y003450D01*
X016277Y003466D01*
X016281Y003483D01*
X016283Y003500D01*
X016283Y003650D01*
X016233Y003700D01*
X016233Y005600D01*
X016283Y005650D01*
X016283Y005800D01*
X016281Y005817D01*
X016277Y005834D01*
X016270Y005850D01*
X016260Y005864D01*
X016247Y005877D01*
X016233Y005887D01*
X016217Y005894D01*
X016200Y005898D01*
X016183Y005900D01*
X013583Y004500D02*
X013583Y003800D01*
X013581Y003783D01*
X013577Y003766D01*
X013570Y003750D01*
X013560Y003736D01*
X013547Y003723D01*
X013533Y003713D01*
X013517Y003706D01*
X013500Y003702D01*
X013483Y003700D01*
X013333Y003700D01*
X013283Y003750D01*
X011383Y003750D01*
X011333Y003700D01*
X011183Y003700D01*
X011166Y003702D01*
X011149Y003706D01*
X011133Y003713D01*
X011119Y003723D01*
X011106Y003736D01*
X011096Y003750D01*
X011089Y003766D01*
X011085Y003783D01*
X011083Y003800D01*
X011083Y004500D01*
X011085Y004517D01*
X011089Y004534D01*
X011096Y004550D01*
X011106Y004564D01*
X011119Y004577D01*
X011133Y004587D01*
X011149Y004594D01*
X011166Y004598D01*
X011183Y004600D01*
X011333Y004600D01*
X011383Y004550D01*
X013283Y004550D01*
X013333Y004600D01*
X013483Y004600D01*
X013500Y004598D01*
X013517Y004594D01*
X013533Y004587D01*
X013547Y004577D01*
X013560Y004564D01*
X013570Y004550D01*
X013577Y004534D01*
X013581Y004517D01*
X013583Y004500D01*
X013483Y002600D02*
X013333Y002600D01*
X013283Y002550D01*
X011383Y002550D01*
X011333Y002600D01*
X011183Y002600D01*
X011166Y002598D01*
X011149Y002594D01*
X011133Y002587D01*
X011119Y002577D01*
X011106Y002564D01*
X011096Y002550D01*
X011089Y002534D01*
X011085Y002517D01*
X011083Y002500D01*
X011083Y001800D01*
X011085Y001783D01*
X011089Y001766D01*
X011096Y001750D01*
X011106Y001736D01*
X011119Y001723D01*
X011133Y001713D01*
X011149Y001706D01*
X011166Y001702D01*
X011183Y001700D01*
X011333Y001700D01*
X011383Y001750D01*
X013283Y001750D01*
X013333Y001700D01*
X013483Y001700D01*
X013500Y001702D01*
X013517Y001706D01*
X013533Y001713D01*
X013547Y001723D01*
X013560Y001736D01*
X013570Y001750D01*
X013577Y001766D01*
X013581Y001783D01*
X013583Y001800D01*
X013583Y002500D01*
X013581Y002517D01*
X013577Y002534D01*
X013570Y002550D01*
X013560Y002564D01*
X013547Y002577D01*
X013533Y002587D01*
X013517Y002594D01*
X013500Y002598D01*
X013483Y002600D01*
X008033Y002650D02*
X008035Y002706D01*
X008041Y002763D01*
X008051Y002818D01*
X008065Y002873D01*
X008082Y002927D01*
X008104Y002979D01*
X008129Y003029D01*
X008157Y003078D01*
X008189Y003125D01*
X008224Y003169D01*
X008262Y003211D01*
X008303Y003250D01*
X008347Y003285D01*
X008393Y003318D01*
X008441Y003347D01*
X008491Y003373D01*
X008543Y003396D01*
X008597Y003414D01*
X008651Y003429D01*
X008706Y003440D01*
X008762Y003447D01*
X008819Y003450D01*
X008875Y003449D01*
X008932Y003444D01*
X008987Y003435D01*
X009042Y003422D01*
X009096Y003405D01*
X009149Y003385D01*
X009200Y003361D01*
X009249Y003333D01*
X009296Y003302D01*
X009341Y003268D01*
X009384Y003230D01*
X009423Y003190D01*
X009460Y003147D01*
X009493Y003102D01*
X009523Y003054D01*
X009550Y003004D01*
X009573Y002953D01*
X009593Y002900D01*
X009609Y002846D01*
X009621Y002790D01*
X009629Y002735D01*
X009633Y002678D01*
X009633Y002622D01*
X009629Y002565D01*
X009621Y002510D01*
X009609Y002454D01*
X009593Y002400D01*
X009573Y002347D01*
X009550Y002296D01*
X009523Y002246D01*
X009493Y002198D01*
X009460Y002153D01*
X009423Y002110D01*
X009384Y002070D01*
X009341Y002032D01*
X009296Y001998D01*
X009249Y001967D01*
X009200Y001939D01*
X009149Y001915D01*
X009096Y001895D01*
X009042Y001878D01*
X008987Y001865D01*
X008932Y001856D01*
X008875Y001851D01*
X008819Y001850D01*
X008762Y001853D01*
X008706Y001860D01*
X008651Y001871D01*
X008597Y001886D01*
X008543Y001904D01*
X008491Y001927D01*
X008441Y001953D01*
X008393Y001982D01*
X008347Y002015D01*
X008303Y002050D01*
X008262Y002089D01*
X008224Y002131D01*
X008189Y002175D01*
X008157Y002222D01*
X008129Y002271D01*
X008104Y002321D01*
X008082Y002373D01*
X008065Y002427D01*
X008051Y002482D01*
X008041Y002537D01*
X008035Y002594D01*
X008033Y002650D01*
X008283Y002450D02*
X008283Y002250D01*
X008383Y002350D02*
X008183Y002350D01*
X007883Y004500D02*
X007883Y004800D01*
X008033Y004650D02*
X007733Y004650D01*
X005483Y004650D02*
X005485Y004723D01*
X005491Y004796D01*
X005501Y004868D01*
X005515Y004940D01*
X005532Y005011D01*
X005554Y005081D01*
X005579Y005150D01*
X005608Y005217D01*
X005640Y005282D01*
X005676Y005346D01*
X005716Y005408D01*
X005758Y005467D01*
X005804Y005524D01*
X005853Y005578D01*
X005905Y005630D01*
X005959Y005679D01*
X006016Y005725D01*
X006075Y005767D01*
X006137Y005807D01*
X006201Y005843D01*
X006266Y005875D01*
X006333Y005904D01*
X006402Y005929D01*
X006472Y005951D01*
X006543Y005968D01*
X006615Y005982D01*
X006687Y005992D01*
X006760Y005998D01*
X006833Y006000D01*
X006906Y005998D01*
X006979Y005992D01*
X007051Y005982D01*
X007123Y005968D01*
X007194Y005951D01*
X007264Y005929D01*
X007333Y005904D01*
X007400Y005875D01*
X007465Y005843D01*
X007529Y005807D01*
X007591Y005767D01*
X007650Y005725D01*
X007707Y005679D01*
X007761Y005630D01*
X007813Y005578D01*
X007862Y005524D01*
X007908Y005467D01*
X007950Y005408D01*
X007990Y005346D01*
X008026Y005282D01*
X008058Y005217D01*
X008087Y005150D01*
X008112Y005081D01*
X008134Y005011D01*
X008151Y004940D01*
X008165Y004868D01*
X008175Y004796D01*
X008181Y004723D01*
X008183Y004650D01*
X008181Y004577D01*
X008175Y004504D01*
X008165Y004432D01*
X008151Y004360D01*
X008134Y004289D01*
X008112Y004219D01*
X008087Y004150D01*
X008058Y004083D01*
X008026Y004018D01*
X007990Y003954D01*
X007950Y003892D01*
X007908Y003833D01*
X007862Y003776D01*
X007813Y003722D01*
X007761Y003670D01*
X007707Y003621D01*
X007650Y003575D01*
X007591Y003533D01*
X007529Y003493D01*
X007465Y003457D01*
X007400Y003425D01*
X007333Y003396D01*
X007264Y003371D01*
X007194Y003349D01*
X007123Y003332D01*
X007051Y003318D01*
X006979Y003308D01*
X006906Y003302D01*
X006833Y003300D01*
X006760Y003302D01*
X006687Y003308D01*
X006615Y003318D01*
X006543Y003332D01*
X006472Y003349D01*
X006402Y003371D01*
X006333Y003396D01*
X006266Y003425D01*
X006201Y003457D01*
X006137Y003493D01*
X006075Y003533D01*
X006016Y003575D01*
X005959Y003621D01*
X005905Y003670D01*
X005853Y003722D01*
X005804Y003776D01*
X005758Y003833D01*
X005716Y003892D01*
X005676Y003954D01*
X005640Y004018D01*
X005608Y004083D01*
X005579Y004150D01*
X005554Y004219D01*
X005532Y004289D01*
X005515Y004360D01*
X005501Y004432D01*
X005491Y004504D01*
X005485Y004577D01*
X005483Y004650D01*
D14*
X010913Y004150D03*
X013753Y004150D03*
X013753Y002150D03*
X010913Y002150D03*
X010913Y010150D03*
X013753Y010150D03*
X013753Y012150D03*
X010913Y012150D03*
D15*
X015833Y011570D03*
X017833Y011570D03*
X017833Y008730D03*
X015833Y008730D03*
X015833Y006070D03*
X015833Y003230D03*
D16*
X008833Y006450D03*
D17*
X007746Y011054D02*
X007439Y011054D01*
M02*
