%
M48
M72
T01C0.0280
T02C0.0315
T03C0.0320
T04C0.0400
T05C0.1300
%
T01
X8833Y2300
X8833Y3000
T02
X8121Y9650
X8121Y10650
T03
X10333Y10150
X10833Y8650
X11833Y8650
X12833Y8650
X13833Y8650
X15833Y8150
X17833Y8150
X15833Y6650
X13833Y5650
X12833Y5650
X11833Y5650
X10833Y5650
X8833Y5650
X7333Y4650
X6333Y4650
X10333Y4150
X10333Y2150
X14333Y2150
X15833Y2650
X14333Y4150
X8833Y7650
X14333Y10150
X14333Y12150
X15833Y12150
X17833Y12150
X10333Y12150
T04
X18833Y5650
X18833Y4650
X18833Y3650
T05
X6333Y1650
X18333Y1650
X18333Y13650
X6333Y13650
M30
