G75*
G70*
%OFA0B0*%
%FSLAX24Y24*%
%IPPOS*%
%LPD*%
%AMOC8*
5,1,8,0,0,1.08239X$1,22.5*
%
%ADD10C,0.0100*%
%ADD11C,0.0120*%
%ADD12C,0.0130*%
%ADD13C,0.0040*%
%ADD14C,0.0080*%
%ADD15R,0.0059X0.0118*%
%ADD16R,0.0118X0.0118*%
D10*
X001225Y016725D02*
X001174Y016770D01*
X001126Y016818D01*
X001081Y016869D01*
X001039Y016922D01*
X001000Y016978D01*
X000964Y017036D01*
X000932Y017095D01*
X000903Y017157D01*
X000878Y017220D01*
X000857Y017284D01*
X000839Y017350D01*
X000826Y017416D01*
X000816Y017484D01*
X000810Y017551D01*
X000808Y017619D01*
X000810Y017687D01*
X000816Y017754D01*
X000826Y017822D01*
X000839Y017888D01*
X000857Y017954D01*
X000878Y018018D01*
X000903Y018081D01*
X000932Y018143D01*
X000964Y018203D01*
X001000Y018260D01*
X001039Y018316D01*
X001081Y018369D01*
X001126Y018420D01*
X001174Y018468D01*
X001225Y018513D01*
X001278Y018555D01*
X001334Y018594D01*
X001391Y018630D01*
X001451Y018662D01*
X001513Y018691D01*
X001576Y018716D01*
X001640Y018737D01*
X001706Y018755D01*
X001772Y018768D01*
X001840Y018778D01*
X001907Y018784D01*
X001975Y018786D01*
X002043Y018784D01*
X002110Y018778D01*
X002178Y018768D01*
X002244Y018755D01*
X002310Y018737D01*
X002374Y018716D01*
X002437Y018691D01*
X002499Y018662D01*
X002558Y018630D01*
X002616Y018594D01*
X002672Y018555D01*
X002725Y018513D01*
X002776Y018468D01*
X002824Y018420D01*
X002869Y018369D01*
X002911Y018316D01*
X002950Y018260D01*
X002986Y018203D01*
X003018Y018143D01*
X003047Y018081D01*
X003072Y018018D01*
X003093Y017954D01*
X003111Y017888D01*
X003124Y017822D01*
X003134Y017754D01*
X003140Y017687D01*
X003142Y017619D01*
X003140Y017551D01*
X003134Y017484D01*
X003124Y017416D01*
X003111Y017350D01*
X003093Y017284D01*
X003072Y017220D01*
X003047Y017157D01*
X003018Y017095D01*
X002986Y017036D01*
X002950Y016978D01*
X002911Y016922D01*
X002869Y016869D01*
X002824Y016818D01*
X002776Y016770D01*
X002725Y016725D01*
D11*
X001925Y017625D02*
X001927Y017638D01*
X001932Y017651D01*
X001941Y017662D01*
X001952Y017669D01*
X001965Y017674D01*
X001978Y017675D01*
X001992Y017672D01*
X002004Y017666D01*
X002014Y017657D01*
X002021Y017645D01*
X002025Y017632D01*
X002025Y017618D01*
X002021Y017605D01*
X002014Y017593D01*
X002004Y017584D01*
X001992Y017578D01*
X001978Y017575D01*
X001965Y017576D01*
X001952Y017581D01*
X001941Y017588D01*
X001932Y017599D01*
X001927Y017612D01*
X001925Y017625D01*
D12*
X001290Y003924D02*
X001290Y003559D01*
X002021Y003559D01*
X001777Y003559D02*
X001777Y003924D01*
X001655Y004046D01*
X001412Y004046D01*
X001290Y003924D01*
X001777Y004340D02*
X001777Y004462D01*
X001534Y004706D01*
X001777Y004706D02*
X001290Y004706D01*
X001290Y005011D02*
X001290Y005376D01*
X001412Y005498D01*
X001534Y005376D01*
X001534Y005011D01*
X001655Y005011D02*
X001290Y005011D01*
X001655Y005011D02*
X001777Y005132D01*
X001777Y005376D01*
X001655Y005802D02*
X001412Y005802D01*
X001290Y005924D01*
X001290Y006168D01*
X001412Y006289D01*
X001655Y006289D01*
X001777Y006168D01*
X001777Y005924D01*
X001655Y005802D01*
X001534Y006594D02*
X001412Y006594D01*
X001290Y006716D01*
X001290Y007081D01*
X002021Y007081D01*
X002021Y006716D01*
X001899Y006594D01*
X001777Y006594D01*
X001655Y006716D01*
X001655Y007081D01*
X001655Y006716D02*
X001534Y006594D01*
X001655Y008178D02*
X001290Y008178D01*
X001290Y008422D02*
X001655Y008422D01*
X001777Y008300D01*
X001655Y008178D01*
X001655Y008422D02*
X001777Y008543D01*
X001777Y008665D01*
X001290Y008665D01*
X001777Y008960D02*
X001777Y009081D01*
X001534Y009325D01*
X001777Y009325D02*
X001290Y009325D01*
X001534Y009630D02*
X001534Y010117D01*
X001655Y010117D02*
X001777Y009995D01*
X001777Y009752D01*
X001655Y009630D01*
X001534Y009630D01*
X001290Y009752D02*
X001290Y009995D01*
X001412Y010117D01*
X001655Y010117D01*
X001655Y010422D02*
X001290Y010422D01*
X001655Y010422D02*
X001777Y010543D01*
X001777Y010787D01*
X001655Y010909D01*
X001290Y010909D02*
X002021Y010909D01*
X002021Y011214D02*
X002021Y011701D01*
X002021Y011457D02*
X001290Y011457D01*
X001534Y012797D02*
X001534Y013284D01*
X001655Y013284D02*
X001777Y013163D01*
X001777Y012919D01*
X001655Y012797D01*
X001534Y012797D01*
X001290Y012919D02*
X001290Y013163D01*
X001412Y013284D01*
X001655Y013284D01*
X001655Y013589D02*
X001534Y013589D01*
X001534Y014076D01*
X001655Y014076D02*
X001412Y014076D01*
X001290Y013954D01*
X001290Y013711D01*
X001655Y013589D02*
X001777Y013711D01*
X001777Y013954D01*
X001655Y014076D01*
X001534Y014381D02*
X001412Y014381D01*
X001290Y014503D01*
X001290Y014868D01*
X002021Y014868D01*
X002021Y014503D01*
X001899Y014381D01*
X001777Y014381D01*
X001655Y014503D01*
X001655Y014868D01*
X001655Y014503D02*
X001534Y014381D01*
X001290Y015173D02*
X002021Y015660D01*
X002021Y015173D02*
X001290Y015660D01*
D13*
X006595Y010905D02*
X006795Y010905D01*
X006595Y010772D01*
X006795Y010772D01*
X006762Y010684D02*
X006628Y010684D01*
X006595Y010651D01*
X006595Y010584D01*
X006628Y010551D01*
X006595Y010463D02*
X006795Y010463D01*
X006795Y010363D01*
X006762Y010330D01*
X006695Y010330D01*
X006662Y010363D01*
X006662Y010463D01*
X006762Y010551D02*
X006795Y010584D01*
X006795Y010651D01*
X006762Y010684D01*
X006728Y010242D02*
X006795Y010175D01*
X006595Y010175D01*
X006595Y010109D02*
X006595Y010242D01*
X006695Y010021D02*
X006695Y009888D01*
X006595Y009921D02*
X006795Y009921D01*
X006695Y010021D01*
X006628Y009800D02*
X006762Y009667D01*
X006628Y009667D01*
X006595Y009700D01*
X006595Y009767D01*
X006628Y009800D01*
X006762Y009800D01*
X006795Y009767D01*
X006795Y009700D01*
X006762Y009667D01*
X006762Y009579D02*
X006795Y009546D01*
X006795Y009479D01*
X006762Y009446D01*
X006728Y009446D01*
X006595Y009579D01*
X006595Y009446D01*
X006495Y009055D02*
X006428Y009055D01*
X006395Y009022D01*
X006395Y008955D01*
X006428Y008922D01*
X006462Y008922D01*
X006495Y008955D01*
X006495Y009055D01*
X006562Y008988D01*
X006595Y008922D01*
X006562Y008834D02*
X006528Y008834D01*
X006495Y008801D01*
X006495Y008734D01*
X006462Y008701D01*
X006428Y008701D01*
X006395Y008734D01*
X006395Y008801D01*
X006428Y008834D01*
X006462Y008834D01*
X006495Y008801D01*
X006495Y008734D02*
X006528Y008701D01*
X006562Y008701D01*
X006595Y008734D01*
X006595Y008801D01*
X006562Y008834D01*
X006528Y008613D02*
X006428Y008613D01*
X006395Y008580D01*
X006395Y008480D01*
X006528Y008480D01*
X006495Y008392D02*
X006495Y008325D01*
X006595Y008259D02*
X006595Y008392D01*
X006395Y008392D01*
X007228Y008188D02*
X007362Y008188D01*
X007295Y008255D02*
X007295Y008122D01*
X007545Y006955D02*
X007545Y006822D01*
X007545Y006888D02*
X007745Y006888D01*
X007678Y006955D01*
X007678Y006734D02*
X007578Y006734D01*
X007545Y006701D01*
X007545Y006601D01*
X007678Y006601D01*
X007645Y006513D02*
X007645Y006446D01*
X007745Y006380D02*
X007745Y006513D01*
X007545Y006513D01*
X010095Y007034D02*
X010162Y007134D01*
X010228Y007034D01*
X010295Y007134D02*
X010095Y007134D01*
X010095Y007222D02*
X010095Y007355D01*
X010095Y007288D02*
X010295Y007288D01*
X010228Y007355D01*
X011595Y007355D02*
X011595Y007222D01*
X011595Y007288D02*
X011795Y007288D01*
X011728Y007355D01*
X011662Y007134D02*
X011728Y007034D01*
X011662Y007134D02*
X011595Y007034D01*
X011595Y007134D02*
X011795Y007134D01*
X011728Y008534D02*
X011662Y008634D01*
X011595Y008534D01*
X011595Y008634D02*
X011795Y008634D01*
X011795Y008788D02*
X011595Y008788D01*
X011595Y008722D02*
X011595Y008855D01*
X011728Y008855D02*
X011795Y008788D01*
X011745Y009809D02*
X011745Y009942D01*
X011778Y010030D02*
X011645Y010030D01*
X011645Y010130D01*
X011678Y010163D01*
X011778Y010163D01*
X011812Y010251D02*
X011678Y010384D01*
X011645Y010384D01*
X011645Y010505D02*
X011845Y010505D01*
X011745Y010605D01*
X011745Y010472D01*
X011845Y010384D02*
X011845Y010251D01*
X011812Y010251D01*
X011845Y009942D02*
X011645Y009942D01*
X011645Y009809D02*
X011845Y009809D01*
X011728Y012342D02*
X011662Y012442D01*
X011595Y012342D01*
X011595Y012442D02*
X011795Y012442D01*
X011762Y012530D02*
X011628Y012663D01*
X011595Y012630D01*
X011595Y012563D01*
X011628Y012530D01*
X011762Y012530D01*
X011795Y012563D01*
X011795Y012630D01*
X011762Y012663D01*
X011628Y012663D01*
X011628Y012751D02*
X011595Y012784D01*
X011595Y012851D01*
X011628Y012884D01*
X011762Y012751D01*
X011628Y012751D01*
X011628Y012884D02*
X011762Y012884D01*
X011795Y012851D01*
X011795Y012784D01*
X011762Y012751D01*
X011595Y012972D02*
X011595Y013105D01*
X011595Y013038D02*
X011795Y013038D01*
X011728Y013105D01*
X011695Y013709D02*
X011595Y013709D01*
X011595Y013775D02*
X011695Y013775D01*
X011728Y013742D01*
X011695Y013709D01*
X011695Y013775D02*
X011728Y013809D01*
X011728Y013842D01*
X011595Y013842D01*
X011595Y013930D02*
X011695Y013930D01*
X011728Y013963D01*
X011728Y014030D01*
X011695Y014063D01*
X011795Y014063D02*
X011595Y014063D01*
X011628Y014151D02*
X011762Y014151D01*
X011795Y014184D01*
X011795Y014251D01*
X011762Y014284D01*
X011628Y014284D01*
X011595Y014251D01*
X011595Y014184D01*
X011628Y014151D01*
X011628Y014372D02*
X011595Y014405D01*
X011595Y014472D01*
X011628Y014505D01*
X011762Y014372D01*
X011628Y014372D01*
X011628Y014505D02*
X011762Y014505D01*
X011795Y014472D01*
X011795Y014405D01*
X011762Y014372D01*
X010750Y012795D02*
X010683Y012795D01*
X010650Y012762D01*
X010562Y012762D02*
X010429Y012628D01*
X010462Y012595D01*
X010529Y012595D01*
X010562Y012628D01*
X010562Y012762D01*
X010529Y012795D01*
X010462Y012795D01*
X010429Y012762D01*
X010429Y012628D01*
X010341Y012628D02*
X010308Y012595D01*
X010241Y012595D01*
X010208Y012628D01*
X010275Y012695D02*
X010308Y012695D01*
X010341Y012662D01*
X010341Y012628D01*
X010308Y012695D02*
X010341Y012728D01*
X010341Y012762D01*
X010308Y012795D01*
X010241Y012795D01*
X010208Y012762D01*
X010120Y012762D02*
X010120Y012695D01*
X010087Y012662D01*
X009987Y012662D01*
X009987Y012595D02*
X009987Y012795D01*
X010087Y012795D01*
X010120Y012762D01*
X009899Y012762D02*
X009866Y012795D01*
X009799Y012795D01*
X009766Y012762D01*
X009766Y012628D01*
X009799Y012595D01*
X009866Y012595D01*
X009899Y012628D01*
X009678Y012595D02*
X009678Y012795D01*
X009545Y012795D02*
X009678Y012595D01*
X009545Y012595D02*
X009545Y012795D01*
X009245Y012405D02*
X009245Y012305D01*
X009212Y012272D01*
X009078Y012272D01*
X009045Y012305D01*
X009045Y012405D01*
X009245Y012405D01*
X009178Y012184D02*
X009245Y012117D01*
X009045Y012117D01*
X009045Y012051D02*
X009045Y012184D01*
X010650Y012595D02*
X010783Y012728D01*
X010783Y012762D01*
X010750Y012795D01*
X010783Y012595D02*
X010650Y012595D01*
X009672Y014845D02*
X009538Y014978D01*
X009672Y014978D01*
X009705Y014945D01*
X009705Y014878D01*
X009672Y014845D01*
X009538Y014845D01*
X009505Y014878D01*
X009505Y014945D01*
X009538Y014978D01*
X009672Y015066D02*
X009672Y015099D01*
X009705Y015099D01*
X009705Y015066D01*
X009672Y015066D01*
X009705Y015176D02*
X009705Y015310D01*
X009705Y015243D02*
X009505Y015243D01*
X009572Y015176D01*
X009572Y015397D02*
X009672Y015397D01*
X009705Y015431D01*
X009705Y015531D01*
X009572Y015531D01*
X009605Y015618D02*
X009605Y015685D01*
X009705Y015618D02*
X009505Y015618D01*
X009505Y015752D01*
X008141Y014945D02*
X008008Y014945D01*
X008008Y014745D01*
X007920Y014745D02*
X007920Y014878D01*
X008008Y014845D02*
X008075Y014845D01*
X007920Y014745D02*
X007820Y014745D01*
X007787Y014778D01*
X007787Y014878D01*
X007699Y014912D02*
X007566Y014778D01*
X007599Y014745D01*
X007666Y014745D01*
X007699Y014778D01*
X007699Y014912D01*
X007666Y014945D01*
X007599Y014945D01*
X007566Y014912D01*
X007566Y014778D01*
X007478Y014745D02*
X007345Y014745D01*
X007412Y014745D02*
X007412Y014945D01*
X007345Y014878D01*
X008395Y017298D02*
X008395Y017432D01*
X008195Y017432D01*
X008195Y017519D02*
X008328Y017519D01*
X008295Y017432D02*
X008295Y017365D01*
X008195Y017519D02*
X008195Y017619D01*
X008228Y017653D01*
X008328Y017653D01*
X008195Y017740D02*
X008195Y017874D01*
X008195Y017807D02*
X008395Y017807D01*
X008328Y017874D01*
X008228Y017951D02*
X008228Y017984D01*
X008195Y017984D01*
X008195Y017951D01*
X008228Y017951D01*
X008228Y018072D02*
X008195Y018105D01*
X008195Y018172D01*
X008228Y018205D01*
X008362Y018072D01*
X008228Y018072D01*
X008228Y018205D02*
X008362Y018205D01*
X008395Y018172D01*
X008395Y018105D01*
X008362Y018072D01*
X009128Y018388D02*
X009262Y018388D01*
X009195Y018455D02*
X009195Y018322D01*
X008445Y019188D02*
X008412Y019254D01*
X008345Y019321D01*
X008345Y019221D01*
X008312Y019188D01*
X008278Y019188D01*
X008245Y019221D01*
X008245Y019288D01*
X008278Y019321D01*
X008345Y019321D01*
X008312Y019409D02*
X008278Y019409D01*
X008245Y019442D01*
X008245Y019509D01*
X008278Y019542D01*
X008345Y019475D02*
X008345Y019442D01*
X008312Y019409D01*
X008345Y019442D02*
X008378Y019409D01*
X008412Y019409D01*
X008445Y019442D01*
X008445Y019509D01*
X008412Y019542D01*
X008412Y019630D02*
X008345Y019630D01*
X008312Y019663D01*
X008312Y019763D01*
X008245Y019763D02*
X008445Y019763D01*
X008445Y019663D01*
X008412Y019630D01*
X008445Y019851D02*
X008245Y019851D01*
X008245Y019984D02*
X008445Y019984D01*
X008378Y019917D01*
X008445Y019851D01*
X008445Y020072D02*
X008445Y020205D01*
X008445Y020138D02*
X008245Y020138D01*
X010245Y018205D02*
X010378Y018072D01*
X010412Y018072D01*
X010445Y018105D01*
X010445Y018172D01*
X010412Y018205D01*
X010245Y018205D02*
X010245Y018072D01*
X010245Y017984D02*
X010245Y017951D01*
X010278Y017951D01*
X010278Y017984D01*
X010245Y017984D01*
X010245Y017874D02*
X010378Y017740D01*
X010412Y017740D01*
X010445Y017773D01*
X010445Y017840D01*
X010412Y017874D01*
X010245Y017874D02*
X010245Y017740D01*
X010278Y017653D02*
X010245Y017619D01*
X010245Y017519D01*
X010378Y017519D01*
X010345Y017432D02*
X010345Y017365D01*
X010245Y017432D02*
X010445Y017432D01*
X010445Y017298D01*
X010378Y017653D02*
X010278Y017653D01*
X016095Y014105D02*
X016295Y014105D01*
X016295Y014005D01*
X016262Y013972D01*
X016195Y013972D01*
X016162Y014005D01*
X016162Y014105D01*
X016162Y014038D02*
X016095Y013972D01*
X016128Y013884D02*
X016095Y013851D01*
X016095Y013784D01*
X016128Y013751D01*
X016162Y013751D01*
X016195Y013784D01*
X016195Y013851D01*
X016228Y013884D01*
X016262Y013884D01*
X016295Y013851D01*
X016295Y013784D01*
X016262Y013751D01*
X016262Y013663D02*
X016228Y013663D01*
X016195Y013630D01*
X016195Y013563D01*
X016162Y013530D01*
X016128Y013530D01*
X016095Y013563D01*
X016095Y013630D01*
X016128Y013663D01*
X016262Y013663D02*
X016295Y013630D01*
X016295Y013563D01*
X016262Y013530D01*
X016295Y013442D02*
X016295Y013375D01*
X016295Y013409D02*
X016095Y013409D01*
X016095Y013442D02*
X016095Y013375D01*
X016095Y011705D02*
X016228Y011705D01*
X016295Y011638D01*
X016228Y011572D01*
X016095Y011572D01*
X016128Y011484D02*
X016095Y011451D01*
X016095Y011384D01*
X016128Y011351D01*
X016162Y011351D01*
X016195Y011384D01*
X016195Y011451D01*
X016228Y011484D01*
X016262Y011484D01*
X016295Y011451D01*
X016295Y011384D01*
X016262Y011351D01*
X016262Y011263D02*
X016228Y011263D01*
X016195Y011230D01*
X016195Y011163D01*
X016162Y011130D01*
X016128Y011130D01*
X016095Y011163D01*
X016095Y011230D01*
X016128Y011263D01*
X016262Y011263D02*
X016295Y011230D01*
X016295Y011163D01*
X016262Y011130D01*
X016262Y011042D02*
X016128Y011042D01*
X016095Y011009D01*
X016095Y010942D01*
X016128Y010909D01*
X016262Y010909D01*
X016295Y010942D01*
X016295Y011009D01*
X016262Y011042D01*
X016262Y010821D02*
X016128Y010821D01*
X016095Y010788D01*
X016095Y010721D01*
X016128Y010688D01*
X016262Y010688D02*
X016295Y010721D01*
X016295Y010788D01*
X016262Y010821D01*
X016195Y011572D02*
X016195Y011705D01*
X016228Y009355D02*
X016195Y009322D01*
X016195Y009255D01*
X016162Y009222D01*
X016128Y009222D01*
X016095Y009255D01*
X016095Y009322D01*
X016128Y009355D01*
X016228Y009355D02*
X016262Y009355D01*
X016295Y009322D01*
X016295Y009255D01*
X016262Y009222D01*
X016295Y009134D02*
X016295Y009001D01*
X016295Y009067D02*
X016095Y009067D01*
X016095Y008913D02*
X016228Y008913D01*
X016295Y008846D01*
X016228Y008780D01*
X016095Y008780D01*
X016195Y008780D02*
X016195Y008913D01*
X016295Y008692D02*
X016295Y008559D01*
X016295Y008625D02*
X016095Y008625D01*
X016128Y008471D02*
X016095Y008438D01*
X016095Y008371D01*
X016128Y008338D01*
X016295Y008338D01*
X016262Y008250D02*
X016228Y008250D01*
X016195Y008217D01*
X016195Y008150D01*
X016162Y008117D01*
X016128Y008117D01*
X016095Y008150D01*
X016095Y008217D01*
X016128Y008250D01*
X016262Y008250D02*
X016295Y008217D01*
X016295Y008150D01*
X016262Y008117D01*
X016295Y008471D02*
X016128Y008471D01*
D14*
X014048Y006520D02*
X014048Y006225D01*
X004402Y006225D01*
X004402Y006520D01*
X005386Y006520D01*
X005386Y014591D01*
X004402Y014591D01*
X004402Y006520D01*
X007121Y008411D02*
X008329Y008411D01*
X008329Y009039D02*
X007121Y009039D01*
X007556Y009665D02*
X007894Y009665D01*
X008044Y010119D02*
X008044Y010331D01*
X007894Y010785D02*
X007556Y010785D01*
X007331Y011831D02*
X007331Y012619D01*
X006819Y012619D02*
X006819Y012796D01*
X008631Y012796D01*
X008631Y012619D01*
X008631Y011831D02*
X008631Y011654D01*
X006819Y011654D01*
X006819Y011831D01*
X009025Y011425D02*
X009025Y011325D01*
X009025Y009025D01*
X009125Y008925D01*
X011325Y008925D01*
X011425Y009025D01*
X011425Y011425D01*
X011325Y011525D01*
X009125Y011525D01*
X009025Y011425D01*
X010175Y010425D02*
X010177Y010438D01*
X010182Y010451D01*
X010191Y010462D01*
X010202Y010469D01*
X010215Y010474D01*
X010228Y010475D01*
X010242Y010472D01*
X010254Y010466D01*
X010264Y010457D01*
X010271Y010445D01*
X010275Y010432D01*
X010275Y010418D01*
X010271Y010405D01*
X010264Y010393D01*
X010254Y010384D01*
X010242Y010378D01*
X010228Y010375D01*
X010215Y010376D01*
X010202Y010381D01*
X010191Y010388D01*
X010182Y010399D01*
X010177Y010412D01*
X010175Y010425D01*
X010119Y013406D02*
X010331Y013406D01*
X010785Y013556D02*
X010785Y013894D01*
X009665Y013894D02*
X009665Y013556D01*
X011469Y016855D02*
X011194Y017091D01*
X007256Y017091D01*
X006981Y016855D01*
X008665Y019556D02*
X008665Y019894D01*
X009119Y020044D02*
X009331Y020044D01*
X009785Y019894D02*
X009785Y019556D01*
X013064Y014591D02*
X013064Y006520D01*
X014048Y006520D01*
X014048Y014591D01*
X013064Y014591D01*
X010075Y003925D02*
X008375Y003925D01*
X008025Y003130D02*
X008025Y002325D01*
X008375Y001525D02*
X010075Y001525D01*
X010425Y002325D02*
X010425Y003118D01*
X008525Y002725D02*
X008527Y002777D01*
X008533Y002829D01*
X008543Y002881D01*
X008556Y002931D01*
X008573Y002981D01*
X008594Y003029D01*
X008619Y003075D01*
X008647Y003119D01*
X008678Y003161D01*
X008712Y003201D01*
X008749Y003238D01*
X008789Y003272D01*
X008831Y003303D01*
X008875Y003331D01*
X008921Y003356D01*
X008969Y003377D01*
X009019Y003394D01*
X009069Y003407D01*
X009121Y003417D01*
X009173Y003423D01*
X009225Y003425D01*
X009277Y003423D01*
X009329Y003417D01*
X009381Y003407D01*
X009431Y003394D01*
X009481Y003377D01*
X009529Y003356D01*
X009575Y003331D01*
X009619Y003303D01*
X009661Y003272D01*
X009701Y003238D01*
X009738Y003201D01*
X009772Y003161D01*
X009803Y003119D01*
X009831Y003075D01*
X009856Y003029D01*
X009877Y002981D01*
X009894Y002931D01*
X009907Y002881D01*
X009917Y002829D01*
X009923Y002777D01*
X009925Y002725D01*
X009923Y002673D01*
X009917Y002621D01*
X009907Y002569D01*
X009894Y002519D01*
X009877Y002469D01*
X009856Y002421D01*
X009831Y002375D01*
X009803Y002331D01*
X009772Y002289D01*
X009738Y002249D01*
X009701Y002212D01*
X009661Y002178D01*
X009619Y002147D01*
X009575Y002119D01*
X009529Y002094D01*
X009481Y002073D01*
X009431Y002056D01*
X009381Y002043D01*
X009329Y002033D01*
X009277Y002027D01*
X009225Y002025D01*
X009173Y002027D01*
X009121Y002033D01*
X009069Y002043D01*
X009019Y002056D01*
X008969Y002073D01*
X008921Y002094D01*
X008875Y002119D01*
X008831Y002147D01*
X008789Y002178D01*
X008749Y002212D01*
X008712Y002249D01*
X008678Y002289D01*
X008647Y002331D01*
X008619Y002375D01*
X008594Y002421D01*
X008573Y002469D01*
X008556Y002519D01*
X008543Y002569D01*
X008533Y002621D01*
X008527Y002673D01*
X008525Y002725D01*
D15*
X015577Y008784D03*
X015873Y008784D03*
X015873Y011284D03*
X015577Y011284D03*
X015577Y013784D03*
X015873Y013784D03*
D16*
X015725Y013784D03*
X015725Y011284D03*
X015725Y008784D03*
M02*
