G75*
G70*
%OFA0B0*%
%FSLAX24Y24*%
%IPPOS*%
%LPD*%
%AMOC8*
5,1,8,0,0,1.08239X$1,22.5*
%
%ADD10C,0.0050*%
%ADD11C,0.0600*%
%ADD12C,0.1050*%
%ADD13C,0.0740*%
%ADD14C,0.0200*%
%ADD15C,0.0400*%
%ADD16C,0.0100*%
D10*
X000750Y002250D02*
X000930Y002430D01*
X000975Y002430D01*
X001020Y002385D01*
X001020Y002295D01*
X000975Y002250D01*
X000750Y002250D02*
X000750Y002430D01*
X000795Y002545D02*
X000975Y002725D01*
X000795Y002725D01*
X000750Y002680D01*
X000750Y002590D01*
X000795Y002545D01*
X000975Y002545D01*
X001020Y002590D01*
X001020Y002680D01*
X000975Y002725D01*
X000930Y002839D02*
X001020Y002929D01*
X000750Y002929D01*
X000750Y002839D02*
X000750Y003019D01*
X000885Y003134D02*
X000885Y003314D01*
X000750Y003269D02*
X001020Y003269D01*
X000885Y003134D01*
X000795Y003429D02*
X000975Y003609D01*
X000795Y003609D01*
X000750Y003564D01*
X000750Y003474D01*
X000795Y003429D01*
X000975Y003429D01*
X001020Y003474D01*
X001020Y003564D01*
X000975Y003609D01*
X000975Y003723D02*
X000930Y003723D01*
X000885Y003768D01*
X000885Y003903D01*
X000795Y003903D02*
X000975Y003903D01*
X001020Y003858D01*
X001020Y003768D01*
X000975Y003723D01*
X000795Y003723D02*
X000750Y003768D01*
X000750Y003858D01*
X000795Y003903D01*
X000750Y004018D02*
X000930Y004198D01*
X000975Y004198D01*
X001020Y004153D01*
X001020Y004063D01*
X000975Y004018D01*
X000750Y004018D02*
X000750Y004198D01*
X000795Y004313D02*
X000750Y004358D01*
X000750Y004448D01*
X000795Y004493D01*
X000885Y004493D01*
X000930Y004448D01*
X000930Y004403D01*
X000885Y004313D01*
X001020Y004313D01*
X001020Y004493D01*
X000930Y004607D02*
X000750Y004607D01*
X000840Y004607D02*
X000930Y004697D01*
X000930Y004742D01*
X000975Y004853D02*
X001020Y004898D01*
X001020Y004988D01*
X000975Y005033D01*
X000795Y004853D01*
X000750Y004898D01*
X000750Y004988D01*
X000795Y005033D01*
X000975Y005033D01*
X000930Y005147D02*
X001020Y005237D01*
X000750Y005237D01*
X000750Y005147D02*
X000750Y005328D01*
X000795Y004853D02*
X000975Y004853D01*
D11*
X004894Y007012D03*
X004894Y007800D03*
X004894Y008587D03*
X004894Y009375D03*
X004894Y010162D03*
X004894Y010949D03*
X004894Y011737D03*
X004894Y012524D03*
X004894Y013312D03*
X004894Y014099D03*
X013556Y014099D03*
X013556Y013312D03*
X013556Y012524D03*
X013556Y011737D03*
X013556Y010949D03*
X013556Y010162D03*
X013556Y009375D03*
X013556Y008587D03*
X013556Y007800D03*
X013556Y007012D03*
D12*
X012725Y004625D03*
X012725Y001625D03*
X005225Y001625D03*
X005225Y004625D03*
X005225Y017825D03*
X005225Y020825D03*
X012725Y020825D03*
X012725Y017825D03*
D13*
X010505Y003615D03*
X010505Y001835D03*
X007945Y001835D03*
X007945Y003615D03*
D14*
X007905Y003665D01*
X007905Y003985D01*
X004945Y006945D01*
X004894Y007012D01*
X005825Y013185D02*
X004945Y014065D01*
X004894Y014099D01*
X005825Y013185D02*
X006865Y013185D01*
X006865Y013105D01*
X006865Y013185D02*
X009745Y013185D01*
X009745Y013265D01*
X010625Y013265D01*
X010625Y014945D01*
X010385Y015185D01*
X010385Y015985D01*
X008465Y013665D02*
X008385Y013585D01*
X007505Y013585D01*
X009745Y013185D02*
X013505Y009425D01*
X013556Y009375D01*
X012725Y017825D02*
X005225Y017825D01*
D15*
X007025Y013585D03*
X007505Y013585D03*
X006865Y013105D03*
X008465Y013665D03*
X010225Y014785D03*
X010385Y015985D03*
X008145Y006945D03*
D16*
X004945Y010145D01*
X004894Y010162D01*
X004945Y010945D02*
X004894Y010949D01*
X004945Y010945D02*
X008545Y007345D01*
X008545Y001905D01*
X007985Y001905D01*
X007945Y001835D01*
X007025Y013585D02*
X008225Y014785D01*
X010225Y014785D01*
M02*
