%
M48
M72
T01C0.0240
T02C0.0315
T03C0.0400
T04C0.0700
T05C0.1300
%
T01
X8145Y6945
X6865Y13105
X7025Y13585
X7505Y13585
X8465Y13665
X10225Y14785
X10385Y15985
T02
X13556Y14099
X13556Y13312
X13556Y12524
X13556Y11737
X13556Y10949
X13556Y10162
X13556Y9375
X13556Y8587
X13556Y7800
X13556Y7012
X4894Y7012
X4894Y7800
X4894Y8587
X4894Y9375
X4894Y10162
X4894Y10949
X4894Y11737
X4894Y12524
X4894Y13312
X4894Y14099
T03
X7945Y3615
X7945Y1835
X10505Y1835
X10505Y3615
T04
X12725Y4625
X12725Y1625
X5225Y1625
X5225Y4625
X5225Y17825
X5225Y20825
X12725Y20825
X12725Y17825
T05
X1225Y1225
X16725Y1225
X16725Y21225
X1225Y21225
M30
