%
M48
M72
T01C0.0240
T02C0.0315
T03C0.0400
T04C0.0700
T05C0.1300
%
T01
X8145Y6945
X8625Y6225
X11425Y8225
X12705Y6545
X12305Y6145
X14305Y6545
X15105Y7825
X14785Y13505
X10305Y16785
X7585Y13585
X7265Y11665
X9185Y12065
T02
X4894Y11737
X4894Y12524
X4894Y13312
X4894Y14099
X4894Y10949
X4894Y10162
X4894Y9375
X4894Y8587
X4894Y7800
X4894Y7012
X13556Y7012
X13556Y7800
X13556Y8587
X13556Y9375
X13556Y10162
X13556Y10949
X13556Y11737
X13556Y12524
X13556Y13312
X13556Y14099
T03
X10505Y3615
X10505Y1835
X7945Y1835
X7945Y3615
T04
X5225Y4625
X5225Y1625
X12725Y1625
X12725Y4625
X12725Y17825
X12725Y20825
X5225Y20825
X5225Y17825
T05
X1225Y1225
X16725Y1225
X16725Y21225
X1225Y21225
M30
