G75*
G70*
%OFA0B0*%
%FSLAX24Y24*%
%IPPOS*%
%LPD*%
%AMOC8*
5,1,8,0,0,1.08239X$1,22.5*
%
%ADD10C,0.0680*%
%ADD11R,0.0592X0.0671*%
%ADD12R,0.0580X0.0659*%
%ADD13R,0.2245X0.0926*%
%ADD14R,0.0552X0.0297*%
%ADD15R,0.0867X0.0552*%
%ADD16C,0.1130*%
%ADD17R,0.0297X0.0552*%
%ADD18R,0.0434X0.0356*%
%ADD19R,0.0789X0.0690*%
%ADD20R,0.0513X0.0474*%
%ADD21C,0.1380*%
%ADD22R,0.0395X0.0395*%
%ADD23C,0.0820*%
%ADD24R,0.0356X0.0434*%
D10*
X004894Y007012D03*
X004894Y007800D03*
X004894Y008587D03*
X004894Y009375D03*
X004894Y010162D03*
X004894Y010949D03*
X004894Y011737D03*
X004894Y012524D03*
X004894Y013312D03*
X004894Y014099D03*
X013556Y014099D03*
X013556Y013312D03*
X013556Y012524D03*
X013556Y011737D03*
X013556Y010949D03*
X013556Y010162D03*
X013556Y009375D03*
X013556Y008587D03*
X013556Y007800D03*
X013556Y007012D03*
D11*
X008060Y014225D03*
X007390Y014225D03*
X007060Y006725D03*
X006390Y006725D03*
D12*
X006879Y012225D03*
X008571Y012225D03*
D13*
X010225Y010981D03*
X010225Y009469D03*
D14*
X008237Y009851D03*
X008237Y010599D03*
X007213Y010599D03*
X007213Y010225D03*
X007213Y009851D03*
D15*
X007174Y008725D03*
X008276Y008725D03*
D16*
X005225Y004625D03*
X005225Y001625D03*
X012725Y001625D03*
X012725Y004625D03*
X012725Y017825D03*
X012725Y020825D03*
X005225Y020825D03*
X005225Y017825D03*
D17*
X008851Y019213D03*
X009225Y019213D03*
X009599Y019213D03*
X009599Y020237D03*
X008851Y020237D03*
X009851Y014237D03*
X010225Y014237D03*
X010599Y014237D03*
X010599Y013213D03*
X009851Y013213D03*
D18*
X008725Y017469D03*
X008725Y017981D03*
D19*
X009725Y018188D03*
X009725Y017262D03*
D20*
X012225Y014560D03*
X012225Y013890D03*
X012225Y013060D03*
X012225Y012390D03*
X012225Y009060D03*
X012225Y008390D03*
X012225Y007560D03*
X012225Y006890D03*
X010725Y006890D03*
X010725Y007560D03*
D21*
X001225Y001225D03*
X016725Y001225D03*
X016725Y021225D03*
X001225Y021225D03*
D22*
X015725Y014020D03*
X015725Y013430D03*
X015725Y011520D03*
X015725Y010930D03*
X015725Y009020D03*
X015725Y008430D03*
D23*
X010505Y003615D03*
X010505Y001835D03*
X007945Y001835D03*
X007945Y003615D03*
D24*
X009969Y015225D03*
X010481Y015225D03*
M02*
