G75*
G70*
%OFA0B0*%
%FSLAX24Y24*%
%IPPOS*%
%LPD*%
%AMOC8*
5,1,8,0,0,1.08239X$1,22.5*
%
%ADD10R,0.0512X0.0591*%
%ADD11R,0.0500X0.0579*%
%ADD12R,0.2165X0.0846*%
%ADD13R,0.0472X0.0217*%
%ADD14R,0.0787X0.0472*%
%ADD15R,0.0217X0.0472*%
%ADD16R,0.0354X0.0276*%
%ADD17R,0.0709X0.0610*%
%ADD18R,0.0433X0.0394*%
%ADD19R,0.0315X0.0315*%
%ADD20R,0.0433X0.0354*%
%ADD21R,0.0394X0.0433*%
D10*
X006390Y006725D03*
X007060Y006725D03*
X007390Y014225D03*
X008060Y014225D03*
D11*
X008571Y012225D03*
X006879Y012225D03*
D12*
X010225Y010981D03*
X010225Y009469D03*
D13*
X008237Y009851D03*
X008237Y010599D03*
X007213Y010599D03*
X007213Y010225D03*
X007213Y009851D03*
D14*
X007174Y008725D03*
X008276Y008725D03*
D15*
X008851Y019213D03*
X009225Y019213D03*
X009599Y019213D03*
X009599Y020237D03*
X008851Y020237D03*
D16*
X008725Y017981D03*
X008725Y017469D03*
D17*
X009725Y017262D03*
X009725Y018188D03*
D18*
X012225Y014560D03*
X012225Y013890D03*
X012225Y013060D03*
X012225Y012390D03*
X012225Y009060D03*
X012225Y008390D03*
X012225Y007560D03*
X012225Y006890D03*
X010725Y006890D03*
X010725Y007560D03*
D19*
X015725Y008430D03*
X015725Y009020D03*
X015725Y010930D03*
X015725Y011520D03*
X015725Y013430D03*
X015725Y014020D03*
D20*
X010583Y005796D03*
X009867Y005796D03*
X010225Y004654D03*
D21*
X009060Y005725D03*
X008390Y005725D03*
M02*
