G75*
G70*
%OFA0B0*%
%FSLAX24Y24*%
%IPPOS*%
%LPD*%
%AMOC8*
5,1,8,0,0,1.08239X$1,22.5*
%
%ADD10C,0.0050*%
%ADD11C,0.0100*%
%ADD12C,0.0120*%
D10*
X000750Y002250D02*
X000930Y002430D01*
X000975Y002430D01*
X001020Y002385D01*
X001020Y002295D01*
X000975Y002250D01*
X000750Y002250D02*
X000750Y002430D01*
X000795Y002545D02*
X000975Y002725D01*
X000795Y002725D01*
X000750Y002680D01*
X000750Y002590D01*
X000795Y002545D01*
X000975Y002545D01*
X001020Y002590D01*
X001020Y002680D01*
X000975Y002725D01*
X000930Y002839D02*
X001020Y002929D01*
X000750Y002929D01*
X000750Y002839D02*
X000750Y003019D01*
X000885Y003134D02*
X000885Y003314D01*
X000750Y003269D02*
X001020Y003269D01*
X000885Y003134D01*
X000795Y003429D02*
X000975Y003609D01*
X000795Y003609D01*
X000750Y003564D01*
X000750Y003474D01*
X000795Y003429D01*
X000975Y003429D01*
X001020Y003474D01*
X001020Y003564D01*
X000975Y003609D01*
X000975Y003723D02*
X000930Y003723D01*
X000885Y003768D01*
X000885Y003903D01*
X000795Y003903D02*
X000975Y003903D01*
X001020Y003858D01*
X001020Y003768D01*
X000975Y003723D01*
X000795Y003723D02*
X000750Y003768D01*
X000750Y003858D01*
X000795Y003903D01*
X000750Y004018D02*
X000930Y004198D01*
X000975Y004198D01*
X001020Y004153D01*
X001020Y004063D01*
X000975Y004018D01*
X000750Y004018D02*
X000750Y004198D01*
X000795Y004313D02*
X000750Y004358D01*
X000750Y004448D01*
X000795Y004493D01*
X000885Y004493D01*
X000930Y004448D01*
X000930Y004403D01*
X000885Y004313D01*
X001020Y004313D01*
X001020Y004493D01*
X000930Y004607D02*
X000750Y004607D01*
X000840Y004607D02*
X000930Y004697D01*
X000930Y004742D01*
X000975Y004853D02*
X001020Y004898D01*
X001020Y004988D01*
X000975Y005033D01*
X000795Y004853D01*
X000750Y004898D01*
X000750Y004988D01*
X000795Y005033D01*
X000975Y005033D01*
X000930Y005147D02*
X001020Y005237D01*
X000750Y005237D01*
X000750Y005147D02*
X000750Y005328D01*
X000795Y004853D02*
X000975Y004853D01*
D11*
X003325Y004325D02*
X004375Y004325D01*
X003325Y004325D02*
X003325Y000575D01*
X007125Y000575D01*
X007125Y004325D01*
X006075Y004325D01*
X010825Y004325D02*
X010825Y000575D01*
X014625Y000575D01*
X014625Y004325D01*
X013575Y004325D01*
X011875Y004325D02*
X010825Y004325D01*
X010825Y018125D02*
X011875Y018125D01*
X010825Y018125D02*
X010825Y021875D01*
X014625Y021875D01*
X014625Y018125D01*
X013575Y018125D01*
X007125Y018125D02*
X006075Y018125D01*
X007125Y018125D02*
X007125Y021875D01*
X003325Y021875D01*
X003325Y018125D01*
X004375Y018125D01*
D12*
X005225Y016872D02*
X005225Y016285D01*
X012432Y016458D02*
X013019Y016458D01*
X012725Y016164D02*
X012725Y016751D01*
X005225Y006072D02*
X005225Y005485D01*
X005519Y005779D02*
X004932Y005779D01*
X012725Y005951D02*
X012725Y005364D01*
M02*
