G75*
G70*
%OFA0B0*%
%FSLAX24Y24*%
%IPPOS*%
%LPD*%
%AMOC8*
5,1,8,0,0,1.08239X$1,22.5*
%
%ADD10C,0.0050*%
%ADD11C,0.0600*%
%ADD12OC8,0.0600*%
%ADD13C,0.0200*%
%ADD14C,0.0100*%
%ADD15C,0.0400*%
D10*
X017497Y013192D02*
X017678Y013192D01*
X017588Y013192D02*
X017588Y013462D01*
X017678Y013372D01*
X017792Y013417D02*
X017792Y013237D01*
X017837Y013192D01*
X017927Y013192D01*
X017972Y013237D01*
X017792Y013417D01*
X017837Y013462D01*
X017927Y013462D01*
X017972Y013417D01*
X017972Y013237D01*
X018083Y013372D02*
X018128Y013372D01*
X018218Y013282D01*
X018218Y013192D02*
X018218Y013372D01*
X018332Y013372D02*
X018377Y013327D01*
X018467Y013327D01*
X018512Y013372D01*
X018512Y013417D01*
X018467Y013462D01*
X018377Y013462D01*
X018332Y013417D01*
X018332Y013372D01*
X018377Y013327D02*
X018332Y013282D01*
X018332Y013237D01*
X018377Y013192D01*
X018467Y013192D01*
X018512Y013237D01*
X018512Y013282D01*
X018467Y013327D01*
X018627Y013417D02*
X018807Y013237D01*
X018762Y013192D01*
X018672Y013192D01*
X018627Y013237D01*
X018627Y013417D01*
X018672Y013462D01*
X018762Y013462D01*
X018807Y013417D01*
X018807Y013237D01*
X018922Y013327D02*
X019102Y013327D01*
X018967Y013462D01*
X018967Y013192D01*
X019216Y013237D02*
X019216Y013417D01*
X019396Y013237D01*
X019351Y013192D01*
X019261Y013192D01*
X019216Y013237D01*
X019216Y013417D02*
X019261Y013462D01*
X019351Y013462D01*
X019396Y013417D01*
X019396Y013237D01*
X019511Y013237D02*
X019556Y013192D01*
X019646Y013192D01*
X019691Y013237D01*
X019691Y013327D02*
X019601Y013372D01*
X019556Y013372D01*
X019511Y013327D01*
X019511Y013237D01*
X019691Y013327D02*
X019691Y013462D01*
X019511Y013462D01*
X019896Y013462D02*
X019896Y013192D01*
X019986Y013192D02*
X019806Y013192D01*
X019986Y013372D02*
X019896Y013462D01*
X020100Y013417D02*
X020100Y013237D01*
X020145Y013192D01*
X020235Y013192D01*
X020280Y013237D01*
X020100Y013417D01*
X020145Y013462D01*
X020235Y013462D01*
X020280Y013417D01*
X020280Y013237D01*
X020395Y013192D02*
X020575Y013192D01*
X020395Y013372D01*
X020395Y013417D01*
X020440Y013462D01*
X020530Y013462D01*
X020575Y013417D01*
D11*
X014813Y012747D03*
X014025Y012747D03*
X013238Y012747D03*
X012450Y012747D03*
X011663Y012747D03*
X010876Y012747D03*
X010088Y012747D03*
X009301Y012747D03*
X008513Y012747D03*
X007726Y012747D03*
X007726Y004086D03*
X008513Y004086D03*
X009301Y004086D03*
X010088Y004086D03*
X010876Y004086D03*
X011663Y004086D03*
X012450Y004086D03*
X013238Y004086D03*
X014025Y004086D03*
X014813Y004086D03*
D12*
X001100Y001417D03*
X002100Y001417D03*
X003100Y001417D03*
X004100Y001417D03*
X005100Y001417D03*
X006100Y001417D03*
X007100Y001417D03*
X008100Y001417D03*
X009100Y001417D03*
X010100Y001417D03*
X011100Y001417D03*
X012100Y001417D03*
X013100Y001417D03*
X014100Y001417D03*
X015100Y001417D03*
X016100Y001417D03*
X017100Y001417D03*
X018100Y001417D03*
X019100Y001417D03*
X020100Y001417D03*
X020100Y002417D03*
X019100Y002417D03*
X018100Y002417D03*
X017100Y002417D03*
X016100Y002417D03*
X015100Y002417D03*
X014100Y002417D03*
X013100Y002417D03*
X012100Y002417D03*
X011100Y002417D03*
X010100Y002417D03*
X009100Y002417D03*
X008100Y002417D03*
X007100Y002417D03*
X006100Y002417D03*
X005100Y002417D03*
X004100Y002417D03*
X003100Y002417D03*
X002100Y002417D03*
X001100Y002417D03*
D13*
X001140Y002417D01*
X001620Y002897D01*
X013620Y002897D01*
X014740Y004017D01*
X014813Y004086D01*
X017940Y004577D02*
X008260Y004577D01*
X007780Y004097D01*
X007726Y004086D01*
X017940Y004577D02*
X020100Y002417D01*
D14*
X018500Y005777D02*
X016260Y008017D01*
X013860Y008017D01*
X013940Y010017D02*
X019300Y010017D01*
X020100Y009217D01*
D15*
X020100Y009217D03*
X018500Y005777D03*
X013860Y008017D03*
X013940Y010017D03*
M02*
