G75*
G70*
%OFA0B0*%
%FSLAX24Y24*%
%IPPOS*%
%LPD*%
%AMOC8*
5,1,8,0,0,1.08239X$1,22.5*
%
%ADD10C,0.0100*%
%ADD11C,0.0120*%
%ADD12C,0.0040*%
%ADD13C,0.0130*%
%ADD14C,0.0080*%
%ADD15C,0.0060*%
%ADD16C,0.0050*%
%ADD17R,0.0059X0.0118*%
%ADD18R,0.0118X0.0118*%
D10*
X001250Y013117D02*
X001200Y013072D01*
X001152Y013025D01*
X001108Y012975D01*
X001066Y012922D01*
X001027Y012868D01*
X000992Y012811D01*
X000960Y012752D01*
X000931Y012691D01*
X000906Y012629D01*
X000884Y012565D01*
X000867Y012501D01*
X000852Y012435D01*
X000842Y012369D01*
X000836Y012302D01*
X000833Y012235D01*
X000834Y012168D01*
X000839Y012101D01*
X000848Y012035D01*
X000861Y011969D01*
X000878Y011904D01*
X000898Y011840D01*
X000922Y011777D01*
X000949Y011716D01*
X000980Y011656D01*
X001014Y011598D01*
X001052Y011543D01*
X001092Y011490D01*
X001136Y011439D01*
X001182Y011390D01*
X001232Y011345D01*
X001283Y011302D01*
X001338Y011262D01*
X001394Y011226D01*
X001452Y011193D01*
X001512Y011163D01*
X001574Y011137D01*
X001637Y011114D01*
X001701Y011095D01*
X001767Y011080D01*
X001833Y011068D01*
X001899Y011060D01*
X001966Y011056D01*
X002034Y011056D01*
X002101Y011060D01*
X002167Y011068D01*
X002233Y011080D01*
X002299Y011095D01*
X002363Y011114D01*
X002426Y011137D01*
X002488Y011163D01*
X002548Y011193D01*
X002606Y011226D01*
X002662Y011262D01*
X002717Y011302D01*
X002768Y011345D01*
X002818Y011390D01*
X002864Y011439D01*
X002908Y011490D01*
X002948Y011543D01*
X002986Y011598D01*
X003020Y011656D01*
X003051Y011716D01*
X003078Y011777D01*
X003102Y011840D01*
X003122Y011904D01*
X003139Y011969D01*
X003152Y012035D01*
X003161Y012101D01*
X003166Y012168D01*
X003167Y012235D01*
X003164Y012302D01*
X003158Y012369D01*
X003148Y012435D01*
X003133Y012501D01*
X003116Y012565D01*
X003094Y012629D01*
X003069Y012691D01*
X003040Y012752D01*
X003008Y012811D01*
X002973Y012868D01*
X002934Y012922D01*
X002892Y012975D01*
X002848Y013025D01*
X002800Y013072D01*
X002750Y013117D01*
D11*
X001950Y012217D02*
X001952Y012230D01*
X001957Y012243D01*
X001966Y012254D01*
X001977Y012261D01*
X001990Y012266D01*
X002003Y012267D01*
X002017Y012264D01*
X002029Y012258D01*
X002039Y012249D01*
X002046Y012237D01*
X002050Y012224D01*
X002050Y012210D01*
X002046Y012197D01*
X002039Y012185D01*
X002029Y012176D01*
X002017Y012170D01*
X002003Y012167D01*
X001990Y012168D01*
X001977Y012173D01*
X001966Y012180D01*
X001957Y012191D01*
X001952Y012204D01*
X001950Y012217D01*
D12*
X003980Y012158D02*
X003980Y012058D01*
X004180Y012058D01*
X004113Y012058D02*
X004113Y012158D01*
X004080Y012191D01*
X004013Y012191D01*
X003980Y012158D01*
X003980Y012279D02*
X003980Y012345D01*
X003980Y012312D02*
X004180Y012312D01*
X004180Y012279D02*
X004180Y012345D01*
X004147Y012426D02*
X004180Y012459D01*
X004180Y012526D01*
X004147Y012559D01*
X004013Y012559D01*
X003980Y012526D01*
X003980Y012459D01*
X004013Y012426D01*
X004147Y012426D01*
X004147Y012868D02*
X004180Y012901D01*
X004180Y012968D01*
X004147Y013001D01*
X004113Y013001D01*
X004080Y012968D01*
X004080Y012868D01*
X004147Y012868D01*
X004080Y012868D02*
X004013Y012935D01*
X003980Y013001D01*
X004013Y011970D02*
X003980Y011937D01*
X003980Y011870D01*
X004013Y011837D01*
X004147Y011837D01*
X004180Y011870D01*
X004180Y011937D01*
X004147Y011970D01*
X004080Y011970D01*
X004080Y011903D01*
X007970Y009420D02*
X008037Y009487D01*
X008037Y009287D01*
X008103Y009287D02*
X007970Y009287D01*
X008191Y009287D02*
X008191Y009487D01*
X008291Y009420D02*
X008191Y009353D01*
X008291Y009287D01*
X008191Y007987D02*
X008191Y007787D01*
X008191Y007853D02*
X008291Y007920D01*
X008191Y007853D02*
X008291Y007787D01*
X008103Y007787D02*
X007970Y007787D01*
X008037Y007787D02*
X008037Y007987D01*
X007970Y007920D01*
X006980Y006494D02*
X006980Y006360D01*
X007180Y006360D01*
X007147Y006273D02*
X007180Y006239D01*
X007180Y006139D01*
X007247Y006139D02*
X007047Y006139D01*
X007047Y006239D01*
X007080Y006273D01*
X007147Y006273D01*
X007080Y006360D02*
X007080Y006427D01*
X007047Y006052D02*
X007013Y006052D01*
X006980Y006018D01*
X006980Y005952D01*
X007013Y005918D01*
X007047Y006052D02*
X007180Y005918D01*
X007180Y006052D01*
X007180Y005841D02*
X007147Y005841D01*
X007147Y005808D01*
X007180Y005808D01*
X007180Y005841D01*
X007147Y005720D02*
X007180Y005687D01*
X007180Y005620D01*
X007147Y005587D01*
X007113Y005587D01*
X007080Y005620D01*
X007080Y005687D01*
X007113Y005720D01*
X007147Y005720D01*
X007080Y005687D02*
X007047Y005720D01*
X007013Y005720D01*
X006980Y005687D01*
X006980Y005620D01*
X007013Y005587D01*
X007047Y005587D01*
X007080Y005620D01*
X008630Y005703D02*
X008830Y005703D01*
X008830Y005637D02*
X008830Y005770D01*
X008797Y005858D02*
X008830Y005891D01*
X008830Y005991D01*
X008697Y005991D01*
X008730Y006079D02*
X008730Y006145D01*
X008830Y006079D02*
X008630Y006079D01*
X008630Y006212D01*
X008697Y005858D02*
X008797Y005858D01*
X008630Y005703D02*
X008697Y005637D01*
X012970Y007687D02*
X013103Y007687D01*
X013037Y007687D02*
X013037Y007887D01*
X012970Y007820D01*
X013191Y007753D02*
X013291Y007820D01*
X013191Y007753D02*
X013291Y007687D01*
X013191Y007687D02*
X013191Y007887D01*
X013191Y009237D02*
X013191Y009437D01*
X013291Y009370D02*
X013191Y009303D01*
X013291Y009237D01*
X013103Y009237D02*
X012970Y009237D01*
X013037Y009237D02*
X013037Y009437D01*
X012970Y009370D01*
X012970Y010787D02*
X013103Y010787D01*
X013037Y010787D02*
X013037Y010987D01*
X012970Y010920D01*
X013191Y010853D02*
X013291Y010920D01*
X013191Y010853D02*
X013291Y010787D01*
X013191Y010787D02*
X013191Y010987D01*
X019480Y010937D02*
X019480Y010870D01*
X019513Y010837D01*
X019547Y010837D01*
X019580Y010870D01*
X019580Y010937D01*
X019613Y010970D01*
X019647Y010970D01*
X019680Y010937D01*
X019680Y010870D01*
X019647Y010837D01*
X019513Y010970D02*
X019480Y010937D01*
X019480Y011058D02*
X019480Y011191D01*
X019480Y011124D02*
X019680Y011124D01*
X019680Y011279D02*
X019547Y011279D01*
X019480Y011345D01*
X019547Y011412D01*
X019680Y011412D01*
X019580Y011412D02*
X019580Y011279D01*
X019480Y011500D02*
X019480Y011633D01*
X019480Y011566D02*
X019680Y011566D01*
X019647Y011721D02*
X019480Y011721D01*
X019480Y011854D02*
X019647Y011854D01*
X019680Y011821D01*
X019680Y011754D01*
X019647Y011721D01*
X019647Y011942D02*
X019680Y011975D01*
X019680Y012042D01*
X019647Y012075D01*
X019613Y012075D01*
X019580Y012042D01*
X019580Y011975D01*
X019547Y011942D01*
X019513Y011942D01*
X019480Y011975D01*
X019480Y012042D01*
X019513Y012075D01*
X019513Y008954D02*
X019480Y008921D01*
X019480Y008854D01*
X019513Y008821D01*
X019647Y008821D01*
X019680Y008854D01*
X019680Y008921D01*
X019647Y008954D01*
X019647Y008733D02*
X019513Y008733D01*
X019480Y008700D01*
X019480Y008633D01*
X019513Y008600D01*
X019647Y008600D01*
X019680Y008633D01*
X019680Y008700D01*
X019647Y008733D01*
X019647Y008512D02*
X019613Y008512D01*
X019580Y008479D01*
X019580Y008412D01*
X019547Y008379D01*
X019513Y008379D01*
X019480Y008412D01*
X019480Y008479D01*
X019513Y008512D01*
X019647Y008512D02*
X019680Y008479D01*
X019680Y008412D01*
X019647Y008379D01*
X019647Y008291D02*
X019613Y008291D01*
X019580Y008258D01*
X019580Y008191D01*
X019547Y008158D01*
X019513Y008158D01*
X019480Y008191D01*
X019480Y008258D01*
X019513Y008291D01*
X019647Y008291D02*
X019680Y008258D01*
X019680Y008191D01*
X019647Y008158D01*
X019680Y008070D02*
X019547Y008070D01*
X019480Y008003D01*
X019547Y007937D01*
X019680Y007937D01*
X019580Y007937D02*
X019580Y008070D01*
X019680Y005816D02*
X019680Y005750D01*
X019680Y005783D02*
X019480Y005783D01*
X019480Y005750D02*
X019480Y005816D01*
X019513Y005662D02*
X019480Y005629D01*
X019480Y005562D01*
X019513Y005529D01*
X019547Y005529D01*
X019580Y005562D01*
X019580Y005629D01*
X019613Y005662D01*
X019647Y005662D01*
X019680Y005629D01*
X019680Y005562D01*
X019647Y005529D01*
X019647Y005441D02*
X019613Y005441D01*
X019580Y005408D01*
X019580Y005341D01*
X019547Y005308D01*
X019513Y005308D01*
X019480Y005341D01*
X019480Y005408D01*
X019513Y005441D01*
X019647Y005441D02*
X019680Y005408D01*
X019680Y005341D01*
X019647Y005308D01*
X019680Y005220D02*
X019613Y005153D01*
X019613Y005187D02*
X019613Y005087D01*
X019680Y005087D02*
X019480Y005087D01*
X019480Y005187D01*
X019513Y005220D01*
X019580Y005220D01*
X019613Y005187D01*
X004180Y004968D02*
X004180Y004901D01*
X004147Y004868D01*
X004080Y004868D02*
X004047Y004935D01*
X004047Y004968D01*
X004080Y005001D01*
X004147Y005001D01*
X004180Y004968D01*
X004080Y004868D02*
X003980Y004868D01*
X003980Y005001D01*
X004013Y004559D02*
X003980Y004526D01*
X003980Y004459D01*
X004013Y004426D01*
X004147Y004426D01*
X004180Y004459D01*
X004180Y004526D01*
X004147Y004559D01*
X004013Y004559D01*
X003980Y004345D02*
X003980Y004279D01*
X003980Y004312D02*
X004180Y004312D01*
X004180Y004279D02*
X004180Y004345D01*
X004080Y004191D02*
X004113Y004158D01*
X004113Y004058D01*
X004180Y004058D02*
X003980Y004058D01*
X003980Y004158D01*
X004013Y004191D01*
X004080Y004191D01*
X004080Y003970D02*
X004080Y003903D01*
X004080Y003970D02*
X004147Y003970D01*
X004180Y003937D01*
X004180Y003870D01*
X004147Y003837D01*
X004013Y003837D01*
X003980Y003870D01*
X003980Y003937D01*
X004013Y003970D01*
D13*
X002885Y004532D02*
X002885Y004897D01*
X002763Y005019D01*
X002276Y005019D01*
X002154Y004897D01*
X002154Y004532D01*
X002885Y004532D01*
X002763Y005324D02*
X002641Y005445D01*
X002641Y005811D01*
X002520Y005811D02*
X002885Y005811D01*
X002885Y005445D01*
X002763Y005324D01*
X002398Y005445D02*
X002398Y005689D01*
X002520Y005811D01*
X002398Y006115D02*
X002763Y006115D01*
X002885Y006237D01*
X002885Y006603D01*
X002398Y006603D01*
X002520Y006907D02*
X002763Y006907D01*
X002885Y007029D01*
X002885Y007394D01*
X003007Y007394D02*
X003129Y007273D01*
X003129Y007151D01*
X003007Y007394D02*
X002398Y007394D01*
X002398Y007029D01*
X002520Y006907D01*
X001595Y007029D02*
X001473Y006907D01*
X001230Y006907D01*
X001108Y007029D01*
X001108Y007273D01*
X001230Y007394D01*
X001351Y007394D01*
X001351Y006907D01*
X001595Y007029D02*
X001595Y007273D01*
X001230Y007699D02*
X001230Y008186D01*
X001351Y008491D02*
X001351Y008856D01*
X001230Y008978D01*
X000986Y008978D01*
X000864Y008856D01*
X000864Y008491D01*
X001595Y008491D01*
X001351Y008735D02*
X001595Y008978D01*
X001595Y009283D02*
X001595Y009648D01*
X001473Y009770D01*
X001230Y009770D01*
X001108Y009648D01*
X001108Y009283D01*
X001839Y009283D01*
X002398Y009384D02*
X002398Y009141D01*
X002520Y009019D01*
X002763Y009019D01*
X002885Y009141D01*
X002885Y009384D01*
X002641Y009506D02*
X002641Y009019D01*
X002398Y008735D02*
X002398Y008491D01*
X002276Y008613D02*
X002763Y008613D01*
X002885Y008735D01*
X002885Y008186D02*
X002520Y008186D01*
X002398Y008064D01*
X002398Y007821D01*
X002520Y007699D01*
X002885Y007699D02*
X002154Y007699D01*
X001351Y006603D02*
X001230Y006603D01*
X001108Y006481D01*
X001108Y006237D01*
X001230Y006115D01*
X001473Y006115D01*
X001595Y006237D01*
X001595Y006481D01*
X001351Y006603D02*
X001351Y006115D01*
X001351Y005811D02*
X001230Y005689D01*
X001230Y005324D01*
X001595Y005324D02*
X000864Y005324D01*
X000864Y005689D01*
X000986Y005811D01*
X001108Y005811D01*
X001230Y005689D01*
X001351Y005811D02*
X001473Y005811D01*
X001595Y005689D01*
X001595Y005324D01*
X001595Y005019D02*
X000864Y004532D01*
X000864Y005019D02*
X001595Y004532D01*
X002398Y009384D02*
X002520Y009506D01*
X002641Y009506D01*
X002641Y009811D02*
X002398Y010054D01*
X002398Y010176D01*
X002398Y009811D02*
X002885Y009811D01*
X001595Y010075D02*
X001595Y010318D01*
X001595Y010197D02*
X001108Y010197D01*
X001108Y010075D01*
X000864Y010197D02*
X000743Y010197D01*
D14*
X004734Y010385D02*
X004970Y010661D01*
X004734Y010385D02*
X004734Y006448D01*
X004970Y006173D01*
X007234Y004578D02*
X015305Y004578D01*
X015305Y003594D01*
X015600Y003594D01*
X015600Y013240D01*
X015305Y013240D01*
X015305Y012255D01*
X007234Y012255D01*
X007234Y013240D01*
X015305Y013240D01*
X007234Y004578D02*
X007234Y003594D01*
X015305Y003594D01*
D15*
X000850Y000917D02*
X000600Y001167D01*
X000600Y002667D01*
X000850Y002917D01*
X001350Y002917D01*
X001600Y002667D01*
X001850Y002917D01*
X002350Y002917D01*
X002600Y002667D01*
X002850Y002917D01*
X003350Y002917D01*
X003600Y002667D01*
X003850Y002917D01*
X004350Y002917D01*
X004600Y002667D01*
X004850Y002917D01*
X005350Y002917D01*
X005600Y002667D01*
X005850Y002917D01*
X006350Y002917D01*
X006600Y002667D01*
X006850Y002917D01*
X007350Y002917D01*
X007600Y002667D01*
X007850Y002917D01*
X008350Y002917D01*
X008600Y002667D01*
X008850Y002917D01*
X009350Y002917D01*
X009600Y002667D01*
X009850Y002917D01*
X010350Y002917D01*
X010600Y002667D01*
X010850Y002917D01*
X011350Y002917D01*
X011600Y002667D01*
X011850Y002917D01*
X012350Y002917D01*
X012600Y002667D01*
X012850Y002917D01*
X013350Y002917D01*
X013600Y002667D01*
X013850Y002917D01*
X014350Y002917D01*
X014600Y002667D01*
X014850Y002917D01*
X015350Y002917D01*
X015600Y002667D01*
X015850Y002917D01*
X016350Y002917D01*
X016600Y002667D01*
X016850Y002917D01*
X017350Y002917D01*
X017600Y002667D01*
X017850Y002917D01*
X018350Y002917D01*
X018600Y002667D01*
X018850Y002917D01*
X019350Y002917D01*
X019600Y002667D01*
X019850Y002917D01*
X020350Y002917D01*
X020600Y002667D01*
X020600Y001167D01*
X020350Y000917D01*
X019850Y000917D01*
X019600Y001167D01*
X019350Y000917D01*
X018850Y000917D01*
X018600Y001167D01*
X018350Y000917D01*
X017850Y000917D01*
X017600Y001167D01*
X017350Y000917D01*
X016850Y000917D01*
X016600Y001167D01*
X016350Y000917D01*
X015850Y000917D01*
X015600Y001167D01*
X015350Y000917D01*
X014850Y000917D01*
X014600Y001167D01*
X014350Y000917D01*
X013850Y000917D01*
X013600Y001167D01*
X013350Y000917D01*
X012850Y000917D01*
X012600Y001167D01*
X012350Y000917D01*
X011850Y000917D01*
X011600Y001167D01*
X011350Y000917D01*
X010850Y000917D01*
X010600Y001167D01*
X010350Y000917D01*
X009850Y000917D01*
X009600Y001167D01*
X009350Y000917D01*
X008850Y000917D01*
X008600Y001167D01*
X008350Y000917D01*
X007850Y000917D01*
X007600Y001167D01*
X007350Y000917D01*
X006850Y000917D01*
X006600Y001167D01*
X006350Y000917D01*
X005850Y000917D01*
X005600Y001167D01*
X005350Y000917D01*
X004850Y000917D01*
X004600Y001167D01*
X004350Y000917D01*
X003850Y000917D01*
X003600Y001167D01*
X003350Y000917D01*
X002850Y000917D01*
X002600Y001167D01*
X002350Y000917D01*
X001850Y000917D01*
X001600Y001167D01*
X001350Y000917D01*
X000850Y000917D01*
D16*
X000779Y003092D02*
X000704Y003167D01*
X000779Y003092D02*
X000929Y003092D01*
X001004Y003167D01*
X001004Y003242D01*
X000929Y003317D01*
X000854Y003317D01*
X000929Y003317D02*
X001004Y003392D01*
X001004Y003467D01*
X000929Y003542D01*
X000779Y003542D01*
X000704Y003467D01*
X001165Y003467D02*
X001165Y003392D01*
X001240Y003317D01*
X001465Y003317D01*
X001465Y003167D02*
X001465Y003467D01*
X001390Y003542D01*
X001240Y003542D01*
X001165Y003467D01*
X001165Y003167D02*
X001240Y003092D01*
X001390Y003092D01*
X001465Y003167D01*
X017411Y007334D02*
X017411Y009499D01*
X017412Y009516D01*
X017417Y009533D01*
X017424Y009548D01*
X017434Y009562D01*
X017446Y009574D01*
X017460Y009584D01*
X017475Y009591D01*
X017492Y009596D01*
X017509Y009597D01*
X017509Y009598D02*
X017667Y009598D01*
X017805Y009007D02*
X018395Y009007D01*
X018395Y007826D01*
X017805Y007826D01*
X017805Y009007D01*
X018533Y009598D02*
X018691Y009598D01*
X018711Y009593D01*
X018730Y009584D01*
X018747Y009573D01*
X018762Y009558D01*
X018774Y009541D01*
X018783Y009522D01*
X018789Y009502D01*
X018791Y009481D01*
X018789Y009460D01*
X018789Y007334D01*
X018788Y007317D01*
X018783Y007300D01*
X018776Y007285D01*
X018766Y007271D01*
X018754Y007259D01*
X018740Y007249D01*
X018725Y007242D01*
X018708Y007237D01*
X018691Y007236D01*
X018533Y007236D01*
X017667Y007236D02*
X017509Y007236D01*
X017492Y007237D01*
X017475Y007242D01*
X017460Y007249D01*
X017446Y007259D01*
X017434Y007271D01*
X017424Y007285D01*
X017417Y007300D01*
X017412Y007317D01*
X017411Y007334D01*
X020015Y003542D02*
X020015Y003092D01*
X019865Y003092D02*
X020165Y003092D01*
X019865Y003392D02*
X020015Y003542D01*
D17*
X019952Y005358D03*
X020248Y005358D03*
X020248Y008358D03*
X019952Y008358D03*
X019952Y011358D03*
X020248Y011358D03*
X004748Y012358D03*
X004452Y012358D03*
X004452Y004358D03*
X004748Y004358D03*
D18*
X004600Y004358D03*
X004600Y012358D03*
X020100Y011358D03*
X020100Y008358D03*
X020100Y005358D03*
M02*
