%
M48
M72
T01C0.0240
T02C0.0315
T03C0.0400
%
T01
X13860Y8017
X13940Y10017
X18500Y5777
X20100Y9217
T02
X14813Y12747
X14025Y12747
X13238Y12747
X12450Y12747
X11663Y12747
X10876Y12747
X10088Y12747
X9301Y12747
X8513Y12747
X7726Y12747
X7726Y4086
X8513Y4086
X9301Y4086
X10088Y4086
X10876Y4086
X11663Y4086
X12450Y4086
X13238Y4086
X14025Y4086
X14813Y4086
T03
X1100Y1417
X2100Y1417
X3100Y1417
X4100Y1417
X5100Y1417
X6100Y1417
X7100Y1417
X8100Y1417
X9100Y1417
X10100Y1417
X11100Y1417
X12100Y1417
X13100Y1417
X14100Y1417
X15100Y1417
X16100Y1417
X17100Y1417
X18100Y1417
X19100Y1417
X20100Y1417
X20100Y2417
X19100Y2417
X18100Y2417
X17100Y2417
X16100Y2417
X15100Y2417
X14100Y2417
X13100Y2417
X12100Y2417
X11100Y2417
X10100Y2417
X9100Y2417
X8100Y2417
X7100Y2417
X6100Y2417
X5100Y2417
X4100Y2417
X3100Y2417
X2100Y2417
X1100Y2417
M30
