G75*
G70*
%OFA0B0*%
%FSLAX24Y24*%
%IPPOS*%
%LPD*%
%AMOC8*
5,1,8,0,0,1.08239X$1,22.5*
%
%ADD10C,0.0680*%
%ADD11OC8,0.0680*%
D10*
X007726Y004086D03*
X008513Y004086D03*
X009301Y004086D03*
X010088Y004086D03*
X010876Y004086D03*
X011663Y004086D03*
X012450Y004086D03*
X013238Y004086D03*
X014025Y004086D03*
X014813Y004086D03*
X014813Y012747D03*
X014025Y012747D03*
X013238Y012747D03*
X012450Y012747D03*
X011663Y012747D03*
X010876Y012747D03*
X010088Y012747D03*
X009301Y012747D03*
X008513Y012747D03*
X007726Y012747D03*
D11*
X001100Y001417D03*
X002100Y001417D03*
X003100Y001417D03*
X004100Y001417D03*
X005100Y001417D03*
X006100Y001417D03*
X007100Y001417D03*
X008100Y001417D03*
X009100Y001417D03*
X010100Y001417D03*
X011100Y001417D03*
X012100Y001417D03*
X013100Y001417D03*
X014100Y001417D03*
X015100Y001417D03*
X016100Y001417D03*
X017100Y001417D03*
X018100Y001417D03*
X019100Y001417D03*
X020100Y001417D03*
X020100Y002417D03*
X019100Y002417D03*
X018100Y002417D03*
X017100Y002417D03*
X016100Y002417D03*
X015100Y002417D03*
X014100Y002417D03*
X013100Y002417D03*
X012100Y002417D03*
X011100Y002417D03*
X010100Y002417D03*
X009100Y002417D03*
X008100Y002417D03*
X007100Y002417D03*
X006100Y002417D03*
X005100Y002417D03*
X004100Y002417D03*
X003100Y002417D03*
X002100Y002417D03*
X001100Y002417D03*
M02*
