G75*
G70*
%OFA0B0*%
%FSLAX24Y24*%
%IPPOS*%
%LPD*%
%AMOC8*
5,1,8,0,0,1.08239X$1,22.5*
%
%ADD10C,0.0000*%
%ADD11C,0.0600*%
%ADD12OC8,0.0600*%
%ADD13R,0.0394X0.0433*%
%ADD14R,0.0315X0.0315*%
%ADD15R,0.0630X0.0906*%
%ADD16R,0.0591X0.0512*%
%ADD17C,0.0200*%
%ADD18C,0.0100*%
%ADD19C,0.0400*%
D10*
X000100Y000417D02*
X000100Y013913D01*
X020970Y013913D01*
X020970Y000417D01*
X000100Y000417D01*
D11*
X007726Y004086D03*
X008513Y004086D03*
X009301Y004086D03*
X010088Y004086D03*
X010876Y004086D03*
X011663Y004086D03*
X012450Y004086D03*
X013238Y004086D03*
X014025Y004086D03*
X014813Y004086D03*
X014813Y012747D03*
X014025Y012747D03*
X013238Y012747D03*
X012450Y012747D03*
X011663Y012747D03*
X010876Y012747D03*
X010088Y012747D03*
X009301Y012747D03*
X008513Y012747D03*
X007726Y012747D03*
D12*
X008100Y002417D03*
X007100Y002417D03*
X006100Y002417D03*
X005100Y002417D03*
X004100Y002417D03*
X003100Y002417D03*
X002100Y002417D03*
X001100Y002417D03*
X001100Y001417D03*
X002100Y001417D03*
X003100Y001417D03*
X004100Y001417D03*
X005100Y001417D03*
X006100Y001417D03*
X007100Y001417D03*
X008100Y001417D03*
X009100Y001417D03*
X010100Y001417D03*
X011100Y001417D03*
X012100Y001417D03*
X013100Y001417D03*
X014100Y001417D03*
X015100Y001417D03*
X016100Y001417D03*
X017100Y001417D03*
X018100Y001417D03*
X019100Y001417D03*
X020100Y001417D03*
X020100Y002417D03*
X019100Y002417D03*
X018100Y002417D03*
X017100Y002417D03*
X016100Y002417D03*
X015100Y002417D03*
X014100Y002417D03*
X013100Y002417D03*
X012100Y002417D03*
X011100Y002417D03*
X010100Y002417D03*
X009100Y002417D03*
D13*
X007600Y005582D03*
X007600Y006251D03*
X007765Y008417D03*
X008435Y008417D03*
X008435Y009917D03*
X007765Y009917D03*
X012765Y009917D03*
X013435Y009917D03*
X013435Y011417D03*
X012765Y011417D03*
X012765Y008417D03*
X013435Y008417D03*
D14*
X020100Y008712D03*
X020100Y008121D03*
X020100Y005712D03*
X020100Y005121D03*
X020100Y011121D03*
X020100Y011712D03*
X004600Y012121D03*
X004600Y012712D03*
X004600Y004712D03*
X004600Y004121D03*
D15*
X018100Y007177D03*
X018100Y009657D03*
D16*
X009100Y006291D03*
X009100Y005543D03*
D17*
X009060Y005617D01*
X007620Y005617D01*
X007600Y005582D01*
X007780Y005537D01*
X007780Y004097D01*
X007726Y004086D01*
X006580Y002177D02*
X006340Y001937D01*
X004580Y001937D01*
X004580Y004017D01*
X004600Y004121D01*
X004580Y004097D01*
X004260Y004097D01*
X004260Y011777D01*
X004580Y012097D01*
X004600Y012121D01*
X006580Y006177D02*
X006580Y002177D01*
X004260Y004097D02*
X001140Y004097D01*
X001140Y002417D01*
X001100Y002417D01*
X006580Y006177D02*
X007540Y006177D01*
X007600Y006251D01*
X007620Y006257D01*
X009060Y006257D01*
X009100Y006291D01*
X014813Y004086D02*
X014820Y004097D01*
X017620Y004097D01*
X017620Y001937D01*
X018100Y001457D01*
X018100Y001417D01*
X018020Y004097D02*
X017620Y004097D01*
X018020Y004097D02*
X018020Y005137D01*
X018100Y005137D01*
X018100Y007177D01*
X018180Y007217D01*
X018180Y008097D01*
X019700Y008097D01*
X019700Y010657D01*
X020100Y011057D01*
X020100Y011121D01*
X020100Y008121D02*
X020100Y008097D01*
X019700Y008097D01*
X020100Y005137D02*
X018100Y005137D01*
X020100Y005137D02*
X020100Y005121D01*
D18*
X020100Y005712D02*
X020100Y005777D01*
X018500Y005777D01*
X016660Y003137D02*
X016660Y001857D01*
X017100Y001417D01*
X016100Y001457D02*
X016100Y001417D01*
X016100Y001457D02*
X015620Y001937D01*
X015620Y002897D01*
X009700Y002897D01*
X008580Y004017D01*
X008513Y004086D01*
X009301Y004086D02*
X009380Y004017D01*
X010260Y003137D01*
X016660Y003137D01*
X011700Y004097D02*
X011663Y004086D01*
X011700Y004097D02*
X011700Y007377D01*
X012740Y008417D01*
X012765Y008417D01*
X012980Y008817D02*
X010900Y008817D01*
X010900Y004097D01*
X010876Y004086D01*
X008340Y008017D02*
X006740Y006417D01*
X006100Y006417D01*
X006100Y002417D01*
X005860Y003137D02*
X005140Y002417D01*
X005100Y002417D01*
X005860Y003137D02*
X005860Y006657D01*
X006660Y006657D01*
X008100Y008097D01*
X008100Y009537D01*
X008420Y009857D01*
X008435Y009917D01*
X007765Y009917D02*
X007700Y009937D01*
X007380Y009937D01*
X004660Y012657D01*
X004600Y012712D01*
X007300Y008417D02*
X007765Y008417D01*
X007300Y008417D02*
X005620Y006737D01*
X005620Y005697D01*
X004660Y004737D01*
X004600Y004712D01*
X008340Y008017D02*
X008340Y008337D01*
X008420Y008417D01*
X008435Y008417D01*
X011700Y010977D02*
X011700Y012737D01*
X011663Y012747D01*
X013220Y012737D02*
X013220Y011857D01*
X012820Y011457D01*
X012765Y011417D01*
X013435Y011417D02*
X013460Y011457D01*
X013460Y011697D01*
X020100Y011697D01*
X020100Y011712D01*
X018100Y009657D02*
X018100Y009617D01*
X013780Y009617D01*
X012980Y008817D01*
X013435Y008417D02*
X013460Y008417D01*
X013860Y008017D01*
X013435Y009917D02*
X013460Y009937D01*
X013460Y010017D01*
X013940Y010017D01*
X012765Y009917D02*
X012740Y009937D01*
X011700Y010977D01*
X013220Y012737D02*
X013238Y012747D01*
X020100Y009217D02*
X020100Y008712D01*
D19*
X020100Y009217D03*
X018500Y005777D03*
X013860Y008017D03*
X013940Y010017D03*
M02*
