G75*
G70*
%OFA0B0*%
%FSLAX24Y24*%
%IPPOS*%
%LPD*%
%AMOC8*
5,1,8,0,0,1.08239X$1,22.5*
%
%ADD10R,0.0867X0.0316*%
%ADD11R,0.0552X0.0552*%
%ADD12R,0.0395X0.0395*%
%ADD13R,0.0474X0.0513*%
%ADD14R,0.0356X0.0434*%
%ADD15R,0.2180X0.0840*%
%ADD16OC8,0.0820*%
%ADD17C,0.0820*%
%ADD18R,0.0434X0.0356*%
%ADD19C,0.1380*%
D10*
X004666Y003475D03*
X004666Y003975D03*
X004666Y004475D03*
X004666Y004975D03*
X004666Y005475D03*
X004666Y005975D03*
X004666Y006475D03*
X004666Y006975D03*
X004666Y007475D03*
X004666Y007975D03*
X008367Y007975D03*
X008367Y007475D03*
X008367Y006975D03*
X008367Y006475D03*
X008367Y005975D03*
X008367Y005475D03*
X008367Y004975D03*
X008367Y004475D03*
X008367Y003975D03*
X008367Y003475D03*
D11*
X009103Y002225D03*
X009930Y002225D03*
D12*
X011171Y003325D03*
X011762Y003325D03*
X011762Y003875D03*
X011171Y003875D03*
X011171Y004425D03*
X011171Y004975D03*
X011762Y004975D03*
X011762Y004425D03*
X011762Y005525D03*
X011171Y005525D03*
X011171Y006075D03*
X011762Y006075D03*
X011762Y006625D03*
X011762Y007175D03*
X011171Y007175D03*
X011171Y006625D03*
X011171Y007725D03*
X011762Y007725D03*
X011762Y008275D03*
X011171Y008275D03*
D13*
X010601Y008275D03*
X009932Y008275D03*
X009932Y007725D03*
X010601Y007725D03*
X010601Y007175D03*
X010601Y006625D03*
X009932Y006625D03*
X009932Y007175D03*
X009932Y006075D03*
X010601Y006075D03*
X010601Y005525D03*
X009932Y005525D03*
X009932Y004975D03*
X009932Y004425D03*
X010601Y004425D03*
X010601Y004975D03*
X010601Y003875D03*
X009932Y003875D03*
X009932Y003325D03*
X010601Y003325D03*
X008351Y002225D03*
X007682Y002225D03*
D14*
X006273Y002225D03*
X005761Y002225D03*
X005273Y002225D03*
X004761Y002225D03*
X002673Y009325D03*
X002161Y009325D03*
D15*
X004117Y009725D03*
X007917Y009725D03*
D16*
X002517Y008225D03*
X001517Y008225D03*
X001517Y007225D03*
X002517Y007225D03*
X002517Y006225D03*
X001517Y006225D03*
D17*
X001517Y004725D03*
X001517Y003725D03*
X001517Y002725D03*
D18*
X009517Y009969D03*
X009517Y010481D03*
D19*
X001517Y001225D03*
X011517Y001225D03*
X011517Y010225D03*
X001517Y010225D03*
M02*
