G75*
G70*
%OFA0B0*%
%FSLAX24Y24*%
%IPPOS*%
%LPD*%
%AMOC8*
5,1,8,0,0,1.08239X$1,22.5*
%
%ADD10C,0.0000*%
D10*
X000517Y000225D02*
X000517Y011225D01*
X012517Y011225D01*
X012517Y000225D01*
X000517Y000225D01*
X000867Y001225D02*
X000869Y001275D01*
X000875Y001325D01*
X000885Y001375D01*
X000898Y001423D01*
X000915Y001471D01*
X000936Y001517D01*
X000960Y001561D01*
X000988Y001603D01*
X001019Y001643D01*
X001053Y001680D01*
X001090Y001715D01*
X001129Y001746D01*
X001170Y001775D01*
X001214Y001800D01*
X001260Y001822D01*
X001307Y001840D01*
X001355Y001854D01*
X001404Y001865D01*
X001454Y001872D01*
X001504Y001875D01*
X001555Y001874D01*
X001605Y001869D01*
X001655Y001860D01*
X001703Y001848D01*
X001751Y001831D01*
X001797Y001811D01*
X001842Y001788D01*
X001885Y001761D01*
X001925Y001731D01*
X001963Y001698D01*
X001998Y001662D01*
X002031Y001623D01*
X002060Y001582D01*
X002086Y001539D01*
X002109Y001494D01*
X002128Y001447D01*
X002143Y001399D01*
X002155Y001350D01*
X002163Y001300D01*
X002167Y001250D01*
X002167Y001200D01*
X002163Y001150D01*
X002155Y001100D01*
X002143Y001051D01*
X002128Y001003D01*
X002109Y000956D01*
X002086Y000911D01*
X002060Y000868D01*
X002031Y000827D01*
X001998Y000788D01*
X001963Y000752D01*
X001925Y000719D01*
X001885Y000689D01*
X001842Y000662D01*
X001797Y000639D01*
X001751Y000619D01*
X001703Y000602D01*
X001655Y000590D01*
X001605Y000581D01*
X001555Y000576D01*
X001504Y000575D01*
X001454Y000578D01*
X001404Y000585D01*
X001355Y000596D01*
X001307Y000610D01*
X001260Y000628D01*
X001214Y000650D01*
X001170Y000675D01*
X001129Y000704D01*
X001090Y000735D01*
X001053Y000770D01*
X001019Y000807D01*
X000988Y000847D01*
X000960Y000889D01*
X000936Y000933D01*
X000915Y000979D01*
X000898Y001027D01*
X000885Y001075D01*
X000875Y001125D01*
X000869Y001175D01*
X000867Y001225D01*
X010867Y001225D02*
X010869Y001275D01*
X010875Y001325D01*
X010885Y001375D01*
X010898Y001423D01*
X010915Y001471D01*
X010936Y001517D01*
X010960Y001561D01*
X010988Y001603D01*
X011019Y001643D01*
X011053Y001680D01*
X011090Y001715D01*
X011129Y001746D01*
X011170Y001775D01*
X011214Y001800D01*
X011260Y001822D01*
X011307Y001840D01*
X011355Y001854D01*
X011404Y001865D01*
X011454Y001872D01*
X011504Y001875D01*
X011555Y001874D01*
X011605Y001869D01*
X011655Y001860D01*
X011703Y001848D01*
X011751Y001831D01*
X011797Y001811D01*
X011842Y001788D01*
X011885Y001761D01*
X011925Y001731D01*
X011963Y001698D01*
X011998Y001662D01*
X012031Y001623D01*
X012060Y001582D01*
X012086Y001539D01*
X012109Y001494D01*
X012128Y001447D01*
X012143Y001399D01*
X012155Y001350D01*
X012163Y001300D01*
X012167Y001250D01*
X012167Y001200D01*
X012163Y001150D01*
X012155Y001100D01*
X012143Y001051D01*
X012128Y001003D01*
X012109Y000956D01*
X012086Y000911D01*
X012060Y000868D01*
X012031Y000827D01*
X011998Y000788D01*
X011963Y000752D01*
X011925Y000719D01*
X011885Y000689D01*
X011842Y000662D01*
X011797Y000639D01*
X011751Y000619D01*
X011703Y000602D01*
X011655Y000590D01*
X011605Y000581D01*
X011555Y000576D01*
X011504Y000575D01*
X011454Y000578D01*
X011404Y000585D01*
X011355Y000596D01*
X011307Y000610D01*
X011260Y000628D01*
X011214Y000650D01*
X011170Y000675D01*
X011129Y000704D01*
X011090Y000735D01*
X011053Y000770D01*
X011019Y000807D01*
X010988Y000847D01*
X010960Y000889D01*
X010936Y000933D01*
X010915Y000979D01*
X010898Y001027D01*
X010885Y001075D01*
X010875Y001125D01*
X010869Y001175D01*
X010867Y001225D01*
X010867Y010225D02*
X010869Y010275D01*
X010875Y010325D01*
X010885Y010375D01*
X010898Y010423D01*
X010915Y010471D01*
X010936Y010517D01*
X010960Y010561D01*
X010988Y010603D01*
X011019Y010643D01*
X011053Y010680D01*
X011090Y010715D01*
X011129Y010746D01*
X011170Y010775D01*
X011214Y010800D01*
X011260Y010822D01*
X011307Y010840D01*
X011355Y010854D01*
X011404Y010865D01*
X011454Y010872D01*
X011504Y010875D01*
X011555Y010874D01*
X011605Y010869D01*
X011655Y010860D01*
X011703Y010848D01*
X011751Y010831D01*
X011797Y010811D01*
X011842Y010788D01*
X011885Y010761D01*
X011925Y010731D01*
X011963Y010698D01*
X011998Y010662D01*
X012031Y010623D01*
X012060Y010582D01*
X012086Y010539D01*
X012109Y010494D01*
X012128Y010447D01*
X012143Y010399D01*
X012155Y010350D01*
X012163Y010300D01*
X012167Y010250D01*
X012167Y010200D01*
X012163Y010150D01*
X012155Y010100D01*
X012143Y010051D01*
X012128Y010003D01*
X012109Y009956D01*
X012086Y009911D01*
X012060Y009868D01*
X012031Y009827D01*
X011998Y009788D01*
X011963Y009752D01*
X011925Y009719D01*
X011885Y009689D01*
X011842Y009662D01*
X011797Y009639D01*
X011751Y009619D01*
X011703Y009602D01*
X011655Y009590D01*
X011605Y009581D01*
X011555Y009576D01*
X011504Y009575D01*
X011454Y009578D01*
X011404Y009585D01*
X011355Y009596D01*
X011307Y009610D01*
X011260Y009628D01*
X011214Y009650D01*
X011170Y009675D01*
X011129Y009704D01*
X011090Y009735D01*
X011053Y009770D01*
X011019Y009807D01*
X010988Y009847D01*
X010960Y009889D01*
X010936Y009933D01*
X010915Y009979D01*
X010898Y010027D01*
X010885Y010075D01*
X010875Y010125D01*
X010869Y010175D01*
X010867Y010225D01*
X000867Y010225D02*
X000869Y010275D01*
X000875Y010325D01*
X000885Y010375D01*
X000898Y010423D01*
X000915Y010471D01*
X000936Y010517D01*
X000960Y010561D01*
X000988Y010603D01*
X001019Y010643D01*
X001053Y010680D01*
X001090Y010715D01*
X001129Y010746D01*
X001170Y010775D01*
X001214Y010800D01*
X001260Y010822D01*
X001307Y010840D01*
X001355Y010854D01*
X001404Y010865D01*
X001454Y010872D01*
X001504Y010875D01*
X001555Y010874D01*
X001605Y010869D01*
X001655Y010860D01*
X001703Y010848D01*
X001751Y010831D01*
X001797Y010811D01*
X001842Y010788D01*
X001885Y010761D01*
X001925Y010731D01*
X001963Y010698D01*
X001998Y010662D01*
X002031Y010623D01*
X002060Y010582D01*
X002086Y010539D01*
X002109Y010494D01*
X002128Y010447D01*
X002143Y010399D01*
X002155Y010350D01*
X002163Y010300D01*
X002167Y010250D01*
X002167Y010200D01*
X002163Y010150D01*
X002155Y010100D01*
X002143Y010051D01*
X002128Y010003D01*
X002109Y009956D01*
X002086Y009911D01*
X002060Y009868D01*
X002031Y009827D01*
X001998Y009788D01*
X001963Y009752D01*
X001925Y009719D01*
X001885Y009689D01*
X001842Y009662D01*
X001797Y009639D01*
X001751Y009619D01*
X001703Y009602D01*
X001655Y009590D01*
X001605Y009581D01*
X001555Y009576D01*
X001504Y009575D01*
X001454Y009578D01*
X001404Y009585D01*
X001355Y009596D01*
X001307Y009610D01*
X001260Y009628D01*
X001214Y009650D01*
X001170Y009675D01*
X001129Y009704D01*
X001090Y009735D01*
X001053Y009770D01*
X001019Y009807D01*
X000988Y009847D01*
X000960Y009889D01*
X000936Y009933D01*
X000915Y009979D01*
X000898Y010027D01*
X000885Y010075D01*
X000875Y010125D01*
X000869Y010175D01*
X000867Y010225D01*
M02*
