%
M48
M72
T01C0.0240
T02C0.0400
T03C0.1300
%
T01
X3977Y3885
X5237Y3105
X5597Y2745
X7217Y3225
X9257Y2925
X9397Y3525
X7037Y5385
X6257Y5745
X5357Y5985
X5357Y5025
X3377Y5865
X3377Y7005
X5797Y7725
X7597Y8145
T02
X2517Y8225
X1517Y8225
X1517Y7225
X2517Y7225
X2517Y6225
X1517Y6225
X1517Y4725
X1517Y3725
X1517Y2725
T03
X1517Y1225
X11517Y1225
X11517Y10225
X1517Y10225
M30
