G75*
G70*
%OFA0B0*%
%FSLAX24Y24*%
%IPPOS*%
%LPD*%
%AMOC8*
5,1,8,0,0,1.08239X$1,22.5*
%
%ADD10C,0.0000*%
%ADD11R,0.0787X0.0236*%
%ADD12R,0.0472X0.0472*%
%ADD13R,0.0315X0.0315*%
%ADD14R,0.0394X0.0433*%
%ADD15R,0.0276X0.0354*%
%ADD16R,0.2100X0.0760*%
%ADD17OC8,0.0740*%
%ADD18C,0.0740*%
%ADD19R,0.0354X0.0276*%
%ADD20C,0.0100*%
%ADD21C,0.0400*%
%ADD22C,0.0080*%
D10*
X000517Y000225D02*
X000517Y011225D01*
X012517Y011225D01*
X012517Y000225D01*
X000517Y000225D01*
X000867Y001225D02*
X000869Y001275D01*
X000875Y001325D01*
X000885Y001375D01*
X000898Y001423D01*
X000915Y001471D01*
X000936Y001517D01*
X000960Y001561D01*
X000988Y001603D01*
X001019Y001643D01*
X001053Y001680D01*
X001090Y001715D01*
X001129Y001746D01*
X001170Y001775D01*
X001214Y001800D01*
X001260Y001822D01*
X001307Y001840D01*
X001355Y001854D01*
X001404Y001865D01*
X001454Y001872D01*
X001504Y001875D01*
X001555Y001874D01*
X001605Y001869D01*
X001655Y001860D01*
X001703Y001848D01*
X001751Y001831D01*
X001797Y001811D01*
X001842Y001788D01*
X001885Y001761D01*
X001925Y001731D01*
X001963Y001698D01*
X001998Y001662D01*
X002031Y001623D01*
X002060Y001582D01*
X002086Y001539D01*
X002109Y001494D01*
X002128Y001447D01*
X002143Y001399D01*
X002155Y001350D01*
X002163Y001300D01*
X002167Y001250D01*
X002167Y001200D01*
X002163Y001150D01*
X002155Y001100D01*
X002143Y001051D01*
X002128Y001003D01*
X002109Y000956D01*
X002086Y000911D01*
X002060Y000868D01*
X002031Y000827D01*
X001998Y000788D01*
X001963Y000752D01*
X001925Y000719D01*
X001885Y000689D01*
X001842Y000662D01*
X001797Y000639D01*
X001751Y000619D01*
X001703Y000602D01*
X001655Y000590D01*
X001605Y000581D01*
X001555Y000576D01*
X001504Y000575D01*
X001454Y000578D01*
X001404Y000585D01*
X001355Y000596D01*
X001307Y000610D01*
X001260Y000628D01*
X001214Y000650D01*
X001170Y000675D01*
X001129Y000704D01*
X001090Y000735D01*
X001053Y000770D01*
X001019Y000807D01*
X000988Y000847D01*
X000960Y000889D01*
X000936Y000933D01*
X000915Y000979D01*
X000898Y001027D01*
X000885Y001075D01*
X000875Y001125D01*
X000869Y001175D01*
X000867Y001225D01*
X010867Y001225D02*
X010869Y001275D01*
X010875Y001325D01*
X010885Y001375D01*
X010898Y001423D01*
X010915Y001471D01*
X010936Y001517D01*
X010960Y001561D01*
X010988Y001603D01*
X011019Y001643D01*
X011053Y001680D01*
X011090Y001715D01*
X011129Y001746D01*
X011170Y001775D01*
X011214Y001800D01*
X011260Y001822D01*
X011307Y001840D01*
X011355Y001854D01*
X011404Y001865D01*
X011454Y001872D01*
X011504Y001875D01*
X011555Y001874D01*
X011605Y001869D01*
X011655Y001860D01*
X011703Y001848D01*
X011751Y001831D01*
X011797Y001811D01*
X011842Y001788D01*
X011885Y001761D01*
X011925Y001731D01*
X011963Y001698D01*
X011998Y001662D01*
X012031Y001623D01*
X012060Y001582D01*
X012086Y001539D01*
X012109Y001494D01*
X012128Y001447D01*
X012143Y001399D01*
X012155Y001350D01*
X012163Y001300D01*
X012167Y001250D01*
X012167Y001200D01*
X012163Y001150D01*
X012155Y001100D01*
X012143Y001051D01*
X012128Y001003D01*
X012109Y000956D01*
X012086Y000911D01*
X012060Y000868D01*
X012031Y000827D01*
X011998Y000788D01*
X011963Y000752D01*
X011925Y000719D01*
X011885Y000689D01*
X011842Y000662D01*
X011797Y000639D01*
X011751Y000619D01*
X011703Y000602D01*
X011655Y000590D01*
X011605Y000581D01*
X011555Y000576D01*
X011504Y000575D01*
X011454Y000578D01*
X011404Y000585D01*
X011355Y000596D01*
X011307Y000610D01*
X011260Y000628D01*
X011214Y000650D01*
X011170Y000675D01*
X011129Y000704D01*
X011090Y000735D01*
X011053Y000770D01*
X011019Y000807D01*
X010988Y000847D01*
X010960Y000889D01*
X010936Y000933D01*
X010915Y000979D01*
X010898Y001027D01*
X010885Y001075D01*
X010875Y001125D01*
X010869Y001175D01*
X010867Y001225D01*
X010867Y010225D02*
X010869Y010275D01*
X010875Y010325D01*
X010885Y010375D01*
X010898Y010423D01*
X010915Y010471D01*
X010936Y010517D01*
X010960Y010561D01*
X010988Y010603D01*
X011019Y010643D01*
X011053Y010680D01*
X011090Y010715D01*
X011129Y010746D01*
X011170Y010775D01*
X011214Y010800D01*
X011260Y010822D01*
X011307Y010840D01*
X011355Y010854D01*
X011404Y010865D01*
X011454Y010872D01*
X011504Y010875D01*
X011555Y010874D01*
X011605Y010869D01*
X011655Y010860D01*
X011703Y010848D01*
X011751Y010831D01*
X011797Y010811D01*
X011842Y010788D01*
X011885Y010761D01*
X011925Y010731D01*
X011963Y010698D01*
X011998Y010662D01*
X012031Y010623D01*
X012060Y010582D01*
X012086Y010539D01*
X012109Y010494D01*
X012128Y010447D01*
X012143Y010399D01*
X012155Y010350D01*
X012163Y010300D01*
X012167Y010250D01*
X012167Y010200D01*
X012163Y010150D01*
X012155Y010100D01*
X012143Y010051D01*
X012128Y010003D01*
X012109Y009956D01*
X012086Y009911D01*
X012060Y009868D01*
X012031Y009827D01*
X011998Y009788D01*
X011963Y009752D01*
X011925Y009719D01*
X011885Y009689D01*
X011842Y009662D01*
X011797Y009639D01*
X011751Y009619D01*
X011703Y009602D01*
X011655Y009590D01*
X011605Y009581D01*
X011555Y009576D01*
X011504Y009575D01*
X011454Y009578D01*
X011404Y009585D01*
X011355Y009596D01*
X011307Y009610D01*
X011260Y009628D01*
X011214Y009650D01*
X011170Y009675D01*
X011129Y009704D01*
X011090Y009735D01*
X011053Y009770D01*
X011019Y009807D01*
X010988Y009847D01*
X010960Y009889D01*
X010936Y009933D01*
X010915Y009979D01*
X010898Y010027D01*
X010885Y010075D01*
X010875Y010125D01*
X010869Y010175D01*
X010867Y010225D01*
X000867Y010225D02*
X000869Y010275D01*
X000875Y010325D01*
X000885Y010375D01*
X000898Y010423D01*
X000915Y010471D01*
X000936Y010517D01*
X000960Y010561D01*
X000988Y010603D01*
X001019Y010643D01*
X001053Y010680D01*
X001090Y010715D01*
X001129Y010746D01*
X001170Y010775D01*
X001214Y010800D01*
X001260Y010822D01*
X001307Y010840D01*
X001355Y010854D01*
X001404Y010865D01*
X001454Y010872D01*
X001504Y010875D01*
X001555Y010874D01*
X001605Y010869D01*
X001655Y010860D01*
X001703Y010848D01*
X001751Y010831D01*
X001797Y010811D01*
X001842Y010788D01*
X001885Y010761D01*
X001925Y010731D01*
X001963Y010698D01*
X001998Y010662D01*
X002031Y010623D01*
X002060Y010582D01*
X002086Y010539D01*
X002109Y010494D01*
X002128Y010447D01*
X002143Y010399D01*
X002155Y010350D01*
X002163Y010300D01*
X002167Y010250D01*
X002167Y010200D01*
X002163Y010150D01*
X002155Y010100D01*
X002143Y010051D01*
X002128Y010003D01*
X002109Y009956D01*
X002086Y009911D01*
X002060Y009868D01*
X002031Y009827D01*
X001998Y009788D01*
X001963Y009752D01*
X001925Y009719D01*
X001885Y009689D01*
X001842Y009662D01*
X001797Y009639D01*
X001751Y009619D01*
X001703Y009602D01*
X001655Y009590D01*
X001605Y009581D01*
X001555Y009576D01*
X001504Y009575D01*
X001454Y009578D01*
X001404Y009585D01*
X001355Y009596D01*
X001307Y009610D01*
X001260Y009628D01*
X001214Y009650D01*
X001170Y009675D01*
X001129Y009704D01*
X001090Y009735D01*
X001053Y009770D01*
X001019Y009807D01*
X000988Y009847D01*
X000960Y009889D01*
X000936Y009933D01*
X000915Y009979D01*
X000898Y010027D01*
X000885Y010075D01*
X000875Y010125D01*
X000869Y010175D01*
X000867Y010225D01*
D11*
X004666Y007975D03*
X004666Y007475D03*
X004666Y006975D03*
X004666Y006475D03*
X004666Y005975D03*
X004666Y005475D03*
X004666Y004975D03*
X004666Y004475D03*
X004666Y003975D03*
X004666Y003475D03*
X008367Y003475D03*
X008367Y003975D03*
X008367Y004475D03*
X008367Y004975D03*
X008367Y005475D03*
X008367Y005975D03*
X008367Y006475D03*
X008367Y006975D03*
X008367Y007475D03*
X008367Y007975D03*
D12*
X009103Y002225D03*
X009930Y002225D03*
D13*
X011171Y003025D03*
X011762Y003025D03*
X011762Y003675D03*
X011171Y003675D03*
X011171Y004325D03*
X011762Y004325D03*
X011762Y004975D03*
X011171Y004975D03*
X011171Y005625D03*
X011762Y005625D03*
X011762Y006275D03*
X011171Y006275D03*
X011171Y006925D03*
X011762Y006925D03*
X011762Y007575D03*
X011171Y007575D03*
X011171Y008225D03*
X011762Y008225D03*
X011762Y008875D03*
X011171Y008875D03*
D14*
X010601Y008875D03*
X009932Y008875D03*
X009932Y008225D03*
X010601Y008225D03*
X010601Y007575D03*
X009932Y007575D03*
X009932Y006925D03*
X010601Y006925D03*
X010601Y006275D03*
X009932Y006275D03*
X009932Y005625D03*
X010601Y005625D03*
X010601Y004975D03*
X009932Y004975D03*
X009932Y004325D03*
X010601Y004325D03*
X010601Y003675D03*
X009932Y003675D03*
X009932Y003025D03*
X010601Y003025D03*
X008351Y002225D03*
X007682Y002225D03*
D15*
X006273Y002225D03*
X005761Y002225D03*
X005273Y002225D03*
X004761Y002225D03*
X002673Y009325D03*
X002161Y009325D03*
D16*
X004117Y009725D03*
X007917Y009725D03*
D17*
X002517Y008225D03*
X001517Y008225D03*
X001517Y007225D03*
X002517Y007225D03*
X002517Y006225D03*
X001517Y006225D03*
D18*
X001517Y004725D03*
X001517Y003725D03*
X001517Y002725D03*
D19*
X009517Y009969D03*
X009517Y010481D03*
D20*
X009517Y009969D02*
X009497Y009945D01*
X009497Y009165D01*
X008837Y009165D01*
X007817Y008145D01*
X007597Y008145D01*
X007817Y008145D02*
X007817Y005985D01*
X008357Y005985D01*
X008367Y005975D01*
X008367Y005475D02*
X008357Y005445D01*
X007397Y005445D01*
X007397Y003885D01*
X007217Y003705D01*
X007217Y003225D01*
X006273Y002225D02*
X006257Y002205D01*
X005807Y001755D01*
X005837Y001725D01*
X005837Y001665D01*
X010337Y001665D01*
X010517Y001845D01*
X010537Y001845D01*
X010537Y002145D01*
X010897Y002145D01*
X011737Y002985D01*
X011762Y003025D01*
X011797Y003045D01*
X011797Y003645D01*
X011762Y003675D01*
X011797Y003705D01*
X011797Y004305D01*
X011762Y004325D01*
X011797Y004365D01*
X011797Y004965D01*
X011762Y004975D01*
X011797Y005025D01*
X011797Y005625D01*
X011762Y005625D01*
X011797Y005625D02*
X011797Y006225D01*
X011762Y006275D01*
X011797Y006285D01*
X011797Y006885D01*
X011762Y006925D01*
X011797Y006945D01*
X011797Y007545D01*
X011762Y007575D01*
X011797Y007605D01*
X011797Y008205D01*
X011762Y008225D01*
X011797Y008265D01*
X011797Y008865D01*
X011762Y008875D01*
X009557Y009945D02*
X009517Y009969D01*
X004666Y005975D02*
X004637Y005925D01*
X003377Y005925D01*
X003377Y005865D01*
X003977Y005445D02*
X003977Y003885D01*
X005237Y003105D02*
X005237Y002265D01*
X005273Y002225D01*
X005777Y001725D02*
X005807Y001755D01*
X005777Y001725D02*
X003557Y001725D01*
X002057Y003165D01*
X001517Y003705D01*
X001517Y003725D01*
X001517Y003765D01*
X000977Y004305D01*
X000977Y007665D01*
X001517Y008205D01*
X001517Y008225D01*
X001517Y006225D02*
X001517Y004725D01*
X003977Y005445D02*
X004637Y005445D01*
X004666Y005475D01*
X009257Y002925D02*
X009917Y002265D01*
X009930Y002225D01*
D21*
X009257Y002925D03*
X009397Y003525D03*
X007217Y003225D03*
X005597Y002745D03*
X005237Y003105D03*
X003977Y003885D03*
X005357Y005025D03*
X006257Y005745D03*
X007037Y005385D03*
X005357Y005985D03*
X003377Y005865D03*
X003377Y007005D03*
X005797Y007725D03*
X007597Y008145D03*
D22*
X008367Y007975D02*
X008377Y008025D01*
X008797Y008445D01*
X008797Y008865D01*
X009877Y008865D01*
X009932Y008875D01*
X010601Y008875D02*
X010657Y008865D01*
X011137Y008865D01*
X011171Y008875D01*
X011137Y008265D02*
X010657Y008265D01*
X010601Y008225D01*
X011137Y008265D02*
X011171Y008225D01*
X011137Y007605D02*
X010657Y007605D01*
X010601Y007575D01*
X011137Y007605D02*
X011171Y007575D01*
X011137Y006945D02*
X010657Y006945D01*
X010601Y006925D01*
X011137Y006945D02*
X011171Y006925D01*
X011137Y006285D02*
X010657Y006285D01*
X010601Y006275D01*
X011137Y006285D02*
X011171Y006275D01*
X011171Y005625D02*
X010601Y005625D01*
X009932Y005625D02*
X009877Y005625D01*
X008737Y004485D01*
X008377Y004485D01*
X008367Y004475D01*
X008377Y004005D02*
X008367Y003975D01*
X008377Y004005D02*
X008917Y004005D01*
X009877Y004965D01*
X009932Y004975D01*
X010601Y004975D02*
X010657Y004965D01*
X011137Y004965D01*
X011171Y004975D01*
X011137Y004365D02*
X010657Y004365D01*
X010601Y004325D01*
X011137Y004365D02*
X011171Y004325D01*
X011137Y003705D02*
X010657Y003705D01*
X010601Y003675D01*
X011137Y003705D02*
X011171Y003675D01*
X011137Y003045D02*
X010657Y003045D01*
X010601Y003025D01*
X011137Y003045D02*
X011171Y003025D01*
X009932Y003025D02*
X009877Y003045D01*
X009397Y003525D01*
X009697Y003705D02*
X009517Y003885D01*
X009277Y003885D01*
X008917Y003525D01*
X008917Y003285D01*
X008197Y002565D01*
X008017Y002565D01*
X008017Y001965D01*
X007897Y001845D01*
X006577Y001845D01*
X006577Y004965D01*
X005917Y005625D01*
X005917Y007365D01*
X005677Y007605D01*
X005797Y007725D01*
X005677Y007605D02*
X005317Y007965D01*
X004717Y007965D01*
X004666Y007975D01*
X004657Y007485D02*
X004666Y007475D01*
X004657Y007485D02*
X003217Y007485D01*
X003217Y008265D01*
X002737Y008745D01*
X002317Y008745D01*
X002017Y008445D01*
X002017Y006705D01*
X002497Y006225D01*
X002517Y006225D01*
X003377Y007005D02*
X004637Y007005D01*
X004666Y006975D01*
X004666Y006475D02*
X004697Y006465D01*
X004877Y006465D01*
X005357Y005985D01*
X006257Y005745D02*
X006257Y005685D01*
X006857Y005085D01*
X006857Y003045D01*
X007637Y002265D01*
X007682Y002225D01*
X008351Y002225D02*
X008357Y002265D01*
X009077Y002265D01*
X009103Y002225D01*
X008367Y003475D02*
X008377Y003525D01*
X008677Y003525D01*
X009457Y004305D01*
X009877Y004305D01*
X009932Y004325D01*
X009877Y003705D02*
X009697Y003705D01*
X009877Y003705D02*
X009932Y003675D01*
X008677Y005025D02*
X008377Y005025D01*
X008367Y004975D01*
X008677Y005025D02*
X009877Y006225D01*
X009932Y006275D01*
X009877Y006885D02*
X009932Y006925D01*
X009877Y006885D02*
X008917Y006885D01*
X008917Y006825D01*
X008617Y006525D01*
X008377Y006525D01*
X008367Y006475D01*
X008367Y006975D02*
X008377Y007005D01*
X008617Y007005D01*
X008917Y007305D01*
X008917Y007545D01*
X009877Y007545D01*
X009932Y007575D01*
X009877Y008205D02*
X009457Y008205D01*
X008977Y007725D01*
X008377Y007725D01*
X008377Y007485D01*
X008367Y007475D01*
X009877Y008205D02*
X009932Y008225D01*
X007917Y009725D02*
X007877Y009705D01*
X007277Y009105D01*
X007277Y005625D01*
X007037Y005385D01*
X005717Y004485D02*
X005717Y007305D01*
X005297Y007725D01*
X004097Y007725D01*
X004097Y009705D01*
X004117Y009725D01*
X003717Y009325D01*
X002673Y009325D01*
X002161Y009325D02*
X002161Y008869D01*
X001517Y008225D01*
X002517Y008225D02*
X003017Y007725D01*
X003017Y003525D01*
X004637Y003525D01*
X004666Y003475D01*
X004697Y003465D01*
X004697Y002325D01*
X004757Y002265D01*
X004761Y002225D01*
X004817Y002205D01*
X004817Y001905D01*
X005477Y001905D01*
X005537Y001965D01*
X005537Y002025D01*
X005717Y002205D01*
X005761Y002225D01*
X005597Y002745D02*
X005597Y003945D01*
X004697Y003945D01*
X004666Y003975D01*
X004666Y004475D02*
X004697Y004485D01*
X005717Y004485D01*
X005357Y005025D02*
X004697Y005025D01*
X004666Y004975D01*
X004117Y009725D02*
X004097Y009765D01*
X007917Y009725D02*
X007937Y009765D01*
X007937Y010425D01*
X009497Y010425D01*
X009517Y010481D01*
M02*
