G75*
G70*
%OFA0B0*%
%FSLAX24Y24*%
%IPPOS*%
%LPD*%
%AMOC8*
5,1,8,0,0,1.08239X$1,22.5*
%
%ADD10C,0.0060*%
%ADD11C,0.0040*%
%ADD12C,0.0020*%
%ADD13C,0.0080*%
%ADD14R,0.0118X0.0059*%
%ADD15R,0.0118X0.0118*%
D10*
X002603Y000755D02*
X002547Y000812D01*
X002603Y000755D02*
X002717Y000755D01*
X002774Y000812D01*
X002774Y000868D01*
X002717Y000925D01*
X002603Y000925D01*
X002547Y000982D01*
X002547Y001039D01*
X002603Y001095D01*
X002717Y001095D01*
X002774Y001039D01*
X002915Y000982D02*
X002972Y000982D01*
X002972Y000755D01*
X003028Y000755D02*
X002915Y000755D01*
X003161Y000812D02*
X003217Y000755D01*
X003387Y000755D01*
X003387Y000698D02*
X003387Y000982D01*
X003217Y000982D01*
X003161Y000925D01*
X003161Y000812D01*
X003274Y000642D02*
X003331Y000642D01*
X003387Y000698D01*
X003529Y000755D02*
X003529Y000982D01*
X003699Y000982D01*
X003756Y000925D01*
X003756Y000755D01*
X003897Y000812D02*
X003954Y000868D01*
X004124Y000868D01*
X004124Y000925D02*
X004124Y000755D01*
X003954Y000755D01*
X003897Y000812D01*
X003954Y000982D02*
X004067Y000982D01*
X004124Y000925D01*
X004265Y000755D02*
X004379Y000755D01*
X004322Y000755D02*
X004322Y001095D01*
X004265Y001095D01*
X004879Y001095D02*
X004879Y000755D01*
X005049Y000755D01*
X005106Y000812D01*
X005106Y001039D01*
X005049Y001095D01*
X004879Y001095D01*
X005248Y000982D02*
X005304Y000982D01*
X005304Y000755D01*
X005248Y000755D02*
X005361Y000755D01*
X005493Y000755D02*
X005663Y000755D01*
X005720Y000812D01*
X005663Y000868D01*
X005550Y000868D01*
X005493Y000925D01*
X005550Y000982D01*
X005720Y000982D01*
X005861Y000982D02*
X006032Y000982D01*
X006088Y000925D01*
X006088Y000812D01*
X006032Y000755D01*
X005861Y000755D01*
X005861Y000642D02*
X005861Y000982D01*
X006230Y001095D02*
X006287Y001095D01*
X006287Y000755D01*
X006343Y000755D02*
X006230Y000755D01*
X006475Y000812D02*
X006532Y000868D01*
X006702Y000868D01*
X006702Y000925D02*
X006702Y000755D01*
X006532Y000755D01*
X006475Y000812D01*
X006532Y000982D02*
X006645Y000982D01*
X006702Y000925D01*
X006844Y000982D02*
X006844Y000812D01*
X006900Y000755D01*
X007071Y000755D01*
X007071Y000698D02*
X007014Y000642D01*
X006957Y000642D01*
X007071Y000698D02*
X007071Y000982D01*
X007580Y000925D02*
X007750Y000925D01*
X007807Y000868D01*
X007807Y000812D01*
X007750Y000755D01*
X007580Y000755D01*
X007580Y001095D01*
X007750Y001095D01*
X007807Y001039D01*
X007807Y000982D01*
X007750Y000925D01*
X007949Y000925D02*
X007949Y000812D01*
X008005Y000755D01*
X008119Y000755D01*
X008175Y000812D01*
X008175Y000925D01*
X008119Y000982D01*
X008005Y000982D01*
X007949Y000925D01*
X008317Y000812D02*
X008374Y000755D01*
X008544Y000755D01*
X008544Y000925D01*
X008487Y000982D01*
X008374Y000982D01*
X008374Y000868D02*
X008544Y000868D01*
X008374Y000868D02*
X008317Y000812D01*
X008685Y000868D02*
X008799Y000982D01*
X008855Y000982D01*
X008992Y000925D02*
X009049Y000982D01*
X009219Y000982D01*
X009219Y001095D02*
X009219Y000755D01*
X009049Y000755D01*
X008992Y000812D01*
X008992Y000925D01*
X008685Y000982D02*
X008685Y000755D01*
X005304Y001095D02*
X005304Y001152D01*
X003701Y002555D02*
X003701Y002895D01*
X003474Y002895D02*
X003701Y002555D01*
X003474Y002555D02*
X003474Y002895D01*
X003342Y002895D02*
X003229Y002895D01*
X003286Y002895D02*
X003286Y002555D01*
X003342Y002555D02*
X003229Y002555D01*
X003087Y002612D02*
X003087Y002725D01*
X002974Y002725D01*
X003087Y002612D02*
X003031Y002555D01*
X002917Y002555D01*
X002861Y002612D01*
X002861Y002839D01*
X002917Y002895D01*
X003031Y002895D01*
X003087Y002839D01*
X002728Y002895D02*
X002615Y002895D01*
X002672Y002895D02*
X002672Y002555D01*
X002728Y002555D02*
X002615Y002555D01*
X002474Y002612D02*
X002474Y002668D01*
X002417Y002725D01*
X002303Y002725D01*
X002247Y002782D01*
X002247Y002839D01*
X002303Y002895D01*
X002417Y002895D01*
X002474Y002839D01*
X002474Y002612D02*
X002417Y002555D01*
X002303Y002555D01*
X002247Y002612D01*
X002303Y003555D02*
X002417Y003555D01*
X002474Y003612D01*
X002474Y003725D01*
X002360Y003725D01*
X002247Y003612D02*
X002303Y003555D01*
X002247Y003612D02*
X002247Y003839D01*
X002303Y003895D01*
X002417Y003895D01*
X002474Y003839D01*
X002615Y003895D02*
X002842Y003555D01*
X002842Y003895D01*
X002983Y003895D02*
X003153Y003895D01*
X003210Y003839D01*
X003210Y003612D01*
X003153Y003555D01*
X002983Y003555D01*
X002983Y003895D01*
X002615Y003895D02*
X002615Y003555D01*
X002672Y004555D02*
X002615Y004612D01*
X002615Y004839D01*
X002672Y004895D01*
X002785Y004895D01*
X002842Y004839D01*
X002983Y004839D02*
X002983Y004612D01*
X003040Y004555D01*
X003153Y004555D01*
X003210Y004612D01*
X003210Y004839D02*
X003153Y004895D01*
X003040Y004895D01*
X002983Y004839D01*
X002842Y004612D02*
X002785Y004555D01*
X002672Y004555D01*
X002474Y004668D02*
X002360Y004555D01*
X002247Y004668D01*
X002247Y004895D01*
X002474Y004895D02*
X002474Y004668D01*
X002972Y001152D02*
X002972Y001095D01*
X003867Y008775D02*
X008167Y008775D01*
X008184Y008777D01*
X008201Y008781D01*
X008217Y008788D01*
X008231Y008798D01*
X008244Y008811D01*
X008254Y008825D01*
X008261Y008841D01*
X008265Y008858D01*
X008267Y008875D01*
X008267Y009275D01*
X008267Y010175D02*
X008267Y010575D01*
X008265Y010592D01*
X008261Y010609D01*
X008254Y010625D01*
X008244Y010639D01*
X008231Y010652D01*
X008217Y010662D01*
X008201Y010669D01*
X008184Y010673D01*
X008167Y010675D01*
X003867Y010675D01*
X003850Y010673D01*
X003833Y010669D01*
X003817Y010662D01*
X003803Y010652D01*
X003790Y010639D01*
X003780Y010625D01*
X003773Y010609D01*
X003769Y010592D01*
X003767Y010575D01*
X003767Y010175D01*
X003767Y009275D02*
X003767Y008875D01*
X003769Y008858D01*
X003773Y008841D01*
X003780Y008825D01*
X003790Y008811D01*
X003803Y008798D01*
X003817Y008788D01*
X003833Y008781D01*
X003850Y008777D01*
X003867Y008775D01*
X005767Y009475D02*
X005767Y009725D01*
X005767Y009975D01*
X005917Y009975D02*
X006117Y009975D01*
X006117Y009475D01*
X005917Y009475D01*
X005917Y009975D01*
X006267Y009975D02*
X006267Y009725D01*
X006267Y009475D01*
D11*
X006459Y008079D02*
X006459Y008045D01*
X006459Y007978D02*
X006459Y007845D01*
X006426Y007845D02*
X006493Y007845D01*
X006573Y007845D02*
X006573Y007978D01*
X006673Y007978D01*
X006707Y007945D01*
X006707Y007845D01*
X006794Y007878D02*
X006794Y007978D01*
X006794Y007878D02*
X006828Y007845D01*
X006928Y007845D01*
X006928Y007812D02*
X006894Y007778D01*
X006861Y007778D01*
X006928Y007812D02*
X006928Y007978D01*
X007015Y008045D02*
X007149Y007845D01*
X007236Y007878D02*
X007236Y007945D01*
X007336Y007945D01*
X007370Y007912D01*
X007370Y007878D01*
X007336Y007845D01*
X007270Y007845D01*
X007236Y007878D01*
X007236Y007945D02*
X007303Y008012D01*
X007370Y008045D01*
X007457Y007978D02*
X007524Y008045D01*
X007524Y007845D01*
X007457Y007845D02*
X007591Y007845D01*
X007678Y007845D02*
X007678Y007978D01*
X007745Y008045D01*
X007812Y007978D01*
X007812Y007845D01*
X007812Y007945D02*
X007678Y007945D01*
X007149Y008045D02*
X007015Y007845D01*
X006459Y007978D02*
X006426Y007978D01*
X006345Y007978D02*
X006279Y007978D01*
X006312Y008012D02*
X006312Y007878D01*
X006345Y007845D01*
X006124Y007845D02*
X006124Y008045D01*
X006058Y008045D02*
X006191Y008045D01*
X005970Y007978D02*
X005970Y007845D01*
X005970Y007945D02*
X005837Y007945D01*
X005837Y007978D02*
X005903Y008045D01*
X005970Y007978D01*
X005837Y007978D02*
X005837Y007845D01*
D12*
X004667Y008925D02*
X007367Y008925D01*
X007367Y009225D02*
X004667Y009225D01*
X004629Y009226D01*
X004592Y009231D01*
X004555Y009238D01*
X004519Y009247D01*
X004483Y009260D01*
X004449Y009275D01*
X004667Y008925D02*
X004611Y008927D01*
X004556Y008933D01*
X004501Y008942D01*
X004447Y008956D01*
X004394Y008973D01*
X004343Y008994D01*
X004293Y009018D01*
X004245Y009046D01*
X004198Y009077D01*
X004155Y009111D01*
X004113Y009148D01*
X004074Y009188D01*
X004038Y009230D01*
X004006Y009275D01*
X004449Y010175D02*
X004483Y010190D01*
X004519Y010203D01*
X004555Y010212D01*
X004592Y010219D01*
X004629Y010224D01*
X004667Y010225D01*
X007367Y010225D01*
X007367Y010525D02*
X004667Y010525D01*
X004611Y010523D01*
X004556Y010517D01*
X004501Y010508D01*
X004447Y010494D01*
X004394Y010477D01*
X004343Y010456D01*
X004293Y010432D01*
X004245Y010404D01*
X004198Y010373D01*
X004154Y010339D01*
X004113Y010302D01*
X004074Y010262D01*
X004038Y010220D01*
X004006Y010175D01*
X005617Y009725D02*
X005767Y009725D01*
X006267Y009725D02*
X006417Y009725D01*
X007367Y008925D02*
X007423Y008927D01*
X007478Y008933D01*
X007533Y008942D01*
X007587Y008956D01*
X007640Y008973D01*
X007691Y008994D01*
X007741Y009018D01*
X007789Y009046D01*
X007836Y009077D01*
X007880Y009111D01*
X007921Y009148D01*
X007960Y009188D01*
X007996Y009230D01*
X008028Y009275D01*
X008028Y010175D02*
X007996Y010220D01*
X007960Y010262D01*
X007921Y010302D01*
X007879Y010339D01*
X007836Y010373D01*
X007789Y010404D01*
X007741Y010432D01*
X007691Y010456D01*
X007640Y010477D01*
X007587Y010494D01*
X007533Y010508D01*
X007478Y010517D01*
X007423Y010523D01*
X007367Y010525D01*
X007367Y010225D02*
X007405Y010224D01*
X007442Y010219D01*
X007479Y010212D01*
X007515Y010203D01*
X007551Y010190D01*
X007585Y010175D01*
X007585Y009275D02*
X007551Y009260D01*
X007515Y009247D01*
X007479Y009238D01*
X007442Y009231D01*
X007405Y009226D01*
X007367Y009225D01*
X005957Y002494D02*
X005957Y002427D01*
X006057Y002427D01*
X006057Y002383D02*
X006007Y002383D01*
X005990Y002367D01*
X005990Y002316D01*
X006057Y002316D01*
X006040Y002273D02*
X006057Y002256D01*
X006057Y002223D01*
X006040Y002206D01*
X005973Y002273D01*
X006040Y002273D01*
X005973Y002273D02*
X005957Y002256D01*
X005957Y002223D01*
X005973Y002206D01*
X006040Y002206D01*
X006040Y002162D02*
X006057Y002146D01*
X006057Y002112D01*
X006040Y002095D01*
X005973Y002162D01*
X006040Y002162D01*
X006040Y002095D02*
X005973Y002095D01*
X005957Y002112D01*
X005957Y002146D01*
X005973Y002162D01*
X006057Y002052D02*
X006057Y001985D01*
X006057Y002018D02*
X005957Y002018D01*
X005990Y001985D01*
X006007Y002427D02*
X006007Y002460D01*
X005057Y002356D02*
X005023Y002306D01*
X004990Y002356D01*
X004957Y002306D02*
X005057Y002306D01*
X005040Y002262D02*
X005057Y002246D01*
X005057Y002212D01*
X005040Y002195D01*
X004973Y002262D01*
X005040Y002262D01*
X005040Y002195D02*
X004973Y002195D01*
X004957Y002212D01*
X004957Y002246D01*
X004973Y002262D01*
X005057Y002152D02*
X005057Y002085D01*
X005057Y002118D02*
X004957Y002118D01*
X004990Y002085D01*
D13*
X005021Y003166D02*
X005021Y003264D01*
X005021Y003166D02*
X008013Y003166D01*
X008013Y003264D01*
X003149Y005975D02*
X003149Y006475D01*
X003017Y006475D02*
X003017Y005975D01*
X002767Y005725D01*
X001267Y005725D01*
X001017Y005975D01*
X001017Y006475D01*
X001267Y006725D01*
X002767Y006725D01*
X003017Y006975D01*
X003017Y007475D01*
X002767Y007725D01*
X001267Y007725D01*
X001017Y007975D01*
X001017Y008475D01*
X001267Y008725D01*
X002767Y008725D01*
X003017Y008475D01*
X003017Y007975D01*
X002767Y007725D01*
X002767Y006725D02*
X003017Y006475D01*
X001767Y005225D02*
X002017Y004975D01*
X002017Y004475D01*
X001767Y004225D01*
X002017Y003975D01*
X002017Y003475D01*
X001767Y003225D01*
X002017Y002975D01*
X002017Y002475D01*
X001767Y002225D01*
X001267Y002225D01*
X001017Y002475D01*
X001017Y002975D01*
X001267Y003225D01*
X001017Y003475D01*
X001017Y003975D01*
X001267Y004225D01*
X001017Y004475D01*
X001017Y004975D01*
X001267Y005225D01*
X001767Y005225D01*
X001267Y006725D02*
X001017Y006975D01*
X001017Y007475D01*
X001267Y007725D01*
X005021Y008186D02*
X005021Y008284D01*
X008013Y008284D01*
X008013Y008186D01*
X005260Y007851D02*
X005262Y007880D01*
X005268Y007908D01*
X005278Y007936D01*
X005291Y007962D01*
X005308Y007985D01*
X005328Y008007D01*
X005350Y008025D01*
X005375Y008040D01*
X005402Y008052D01*
X005430Y008060D01*
X005458Y008064D01*
X005488Y008064D01*
X005516Y008060D01*
X005544Y008052D01*
X005571Y008040D01*
X005596Y008025D01*
X005618Y008007D01*
X005638Y007985D01*
X005655Y007962D01*
X005668Y007936D01*
X005678Y007908D01*
X005684Y007880D01*
X005686Y007851D01*
X005684Y007822D01*
X005678Y007794D01*
X005668Y007766D01*
X005655Y007740D01*
X005638Y007717D01*
X005618Y007695D01*
X005596Y007677D01*
X005571Y007662D01*
X005544Y007650D01*
X005516Y007642D01*
X005488Y007638D01*
X005458Y007638D01*
X005430Y007642D01*
X005402Y007650D01*
X005375Y007662D01*
X005350Y007677D01*
X005328Y007695D01*
X005308Y007717D01*
X005291Y007740D01*
X005278Y007766D01*
X005268Y007794D01*
X005262Y007822D01*
X005260Y007851D01*
D14*
X011526Y007873D03*
X011526Y007577D03*
X011526Y007323D03*
X011526Y007027D03*
X011526Y006773D03*
X011526Y006477D03*
X011526Y006223D03*
X011526Y005927D03*
X011526Y005673D03*
X011526Y005377D03*
X011526Y005123D03*
X011526Y004827D03*
X011526Y004573D03*
X011526Y004277D03*
X011526Y004023D03*
X011526Y003727D03*
X011526Y003473D03*
X011526Y003177D03*
X009576Y002461D03*
X009576Y001989D03*
X011526Y008127D03*
X011526Y008423D03*
D15*
X011526Y008275D03*
X011526Y007725D03*
X011526Y007175D03*
X011526Y006625D03*
X011526Y006075D03*
X011526Y005525D03*
X011526Y004975D03*
X011526Y004425D03*
X011526Y003875D03*
X011526Y003325D03*
X009576Y002225D03*
M02*
