%
M48
M72
T01C0.0276
T02C0.0315
T03C0.0320
T04C0.0400
T05C0.0433
%
T01
X42440Y3162
X43227Y3162
T02
X40333Y2662
X40333Y3662
X40333Y1662
T03
X39833Y8662
X39833Y12662
X39833Y14662
X39833Y18662
T04
X41833Y18662
X41833Y17662
X41833Y16662
X41833Y15662
X41833Y14662
X41833Y13662
X41833Y12662
X41833Y11662
X41833Y10662
X47833Y10662
X47833Y9662
X47833Y11662
X47833Y12662
X47833Y13662
X47833Y14662
X47833Y15662
X47833Y16662
X47833Y17662
X47833Y18662
X47833Y19662
X47833Y20662
X41833Y20662
X41833Y19662
T05
X46333Y3662
X45333Y2662
X47333Y2662
X46333Y1662
M30
