G75*
G70*
%OFA0B0*%
%FSLAX24Y24*%
%IPPOS*%
%LPD*%
%AMOC8*
5,1,8,0,0,1.08239X$1,22.5*
%
%ADD10C,0.0050*%
%ADD11C,0.0120*%
%ADD12C,0.0160*%
%ADD13C,0.0030*%
%ADD14C,0.0220*%
%ADD15C,0.0060*%
%ADD16R,0.0240X0.0340*%
%ADD17C,0.0100*%
%ADD18C,0.0080*%
D10*
X041333Y006162D02*
X041333Y021162D01*
X043583Y021162D01*
X043583Y021662D01*
X046083Y021662D01*
X046083Y021162D01*
X046083Y018162D01*
X043583Y018162D01*
X043583Y021162D01*
X046083Y021162D01*
X048333Y021162D01*
X048333Y006162D01*
X041333Y006162D01*
X043833Y010912D02*
X043833Y012912D01*
X045833Y012912D01*
X045833Y010912D01*
X043833Y010912D01*
D11*
X046583Y009162D02*
X046583Y006412D01*
X045583Y006412D01*
X045583Y007912D01*
X044583Y007912D01*
X044583Y006412D01*
X043583Y006412D01*
X043583Y007912D01*
X042583Y007912D01*
X042583Y006412D01*
X041583Y006412D01*
X041583Y008662D01*
X046583Y006412D02*
X047583Y006412D01*
D12*
X047583Y009162D01*
D13*
X045333Y019427D02*
X045188Y019427D01*
X045188Y019717D01*
X045333Y019717D01*
X045381Y019669D01*
X045381Y019621D01*
X045333Y019572D01*
X045188Y019572D01*
X045086Y019524D02*
X045086Y019476D01*
X045038Y019427D01*
X044941Y019427D01*
X044893Y019476D01*
X044792Y019476D02*
X044792Y019717D01*
X044893Y019669D02*
X044893Y019621D01*
X044941Y019572D01*
X045038Y019572D01*
X045086Y019524D01*
X045086Y019669D02*
X045038Y019717D01*
X044941Y019717D01*
X044893Y019669D01*
X044792Y019476D02*
X044743Y019427D01*
X044647Y019427D01*
X044598Y019476D01*
X044598Y019717D01*
X045333Y019572D02*
X045381Y019524D01*
X045381Y019476D01*
X045333Y019427D01*
D14*
X039845Y020662D02*
X039821Y020662D01*
D15*
X039383Y009662D02*
X039383Y009512D01*
X039385Y009495D01*
X039389Y009478D01*
X039396Y009462D01*
X039406Y009448D01*
X039419Y009435D01*
X039433Y009425D01*
X039449Y009418D01*
X039466Y009414D01*
X039483Y009412D01*
X040183Y009412D01*
X040200Y009414D01*
X040217Y009418D01*
X040233Y009425D01*
X040247Y009435D01*
X040260Y009448D01*
X040270Y009462D01*
X040277Y009478D01*
X040281Y009495D01*
X040283Y009512D01*
X040283Y009662D01*
X040233Y009712D01*
X040233Y011612D01*
X040283Y011662D01*
X040283Y011812D01*
X040281Y011829D01*
X040277Y011846D01*
X040270Y011862D01*
X040260Y011876D01*
X040247Y011889D01*
X040233Y011899D01*
X040217Y011906D01*
X040200Y011910D01*
X040183Y011912D01*
X039483Y011912D01*
X039466Y011910D01*
X039449Y011906D01*
X039433Y011899D01*
X039419Y011889D01*
X039406Y011876D01*
X039396Y011862D01*
X039389Y011846D01*
X039385Y011829D01*
X039383Y011812D01*
X039383Y011662D01*
X039433Y011612D01*
X039433Y009712D01*
X039383Y009662D01*
X039483Y015412D02*
X040183Y015412D01*
X040200Y015414D01*
X040217Y015418D01*
X040233Y015425D01*
X040247Y015435D01*
X040260Y015448D01*
X040270Y015462D01*
X040277Y015478D01*
X040281Y015495D01*
X040283Y015512D01*
X040283Y015662D01*
X040233Y015712D01*
X040233Y017612D01*
X040283Y017662D01*
X040283Y017812D01*
X040281Y017829D01*
X040277Y017846D01*
X040270Y017862D01*
X040260Y017876D01*
X040247Y017889D01*
X040233Y017899D01*
X040217Y017906D01*
X040200Y017910D01*
X040183Y017912D01*
X039483Y017912D01*
X039466Y017910D01*
X039449Y017906D01*
X039433Y017899D01*
X039419Y017889D01*
X039406Y017876D01*
X039396Y017862D01*
X039389Y017846D01*
X039385Y017829D01*
X039383Y017812D01*
X039383Y017662D01*
X039433Y017612D01*
X039433Y015712D01*
X039383Y015662D01*
X039383Y015512D01*
X039385Y015495D01*
X039389Y015478D01*
X039396Y015462D01*
X039406Y015448D01*
X039419Y015435D01*
X039433Y015425D01*
X039449Y015418D01*
X039466Y015414D01*
X039483Y015412D01*
D16*
X039833Y015242D03*
X039833Y018082D03*
X039833Y012082D03*
X039833Y009242D03*
D17*
X044540Y002662D02*
X044542Y002750D01*
X044549Y002838D01*
X044559Y002925D01*
X044574Y003012D01*
X044594Y003098D01*
X044617Y003182D01*
X044645Y003266D01*
X044676Y003348D01*
X044712Y003429D01*
X044752Y003507D01*
X044795Y003584D01*
X044842Y003658D01*
X044893Y003730D01*
X044947Y003799D01*
X045004Y003866D01*
X045065Y003930D01*
X045129Y003991D01*
X045196Y004048D01*
X045265Y004102D01*
X045337Y004153D01*
X045411Y004200D01*
X045488Y004243D01*
X045566Y004283D01*
X045647Y004319D01*
X045729Y004350D01*
X045813Y004378D01*
X045897Y004401D01*
X045983Y004421D01*
X046070Y004436D01*
X046157Y004446D01*
X046245Y004453D01*
X046333Y004455D01*
X046421Y004453D01*
X046509Y004446D01*
X046596Y004436D01*
X046683Y004421D01*
X046769Y004401D01*
X046853Y004378D01*
X046937Y004350D01*
X047019Y004319D01*
X047100Y004283D01*
X047178Y004243D01*
X047255Y004200D01*
X047329Y004153D01*
X047401Y004102D01*
X047470Y004048D01*
X047537Y003991D01*
X047601Y003930D01*
X047662Y003866D01*
X047719Y003799D01*
X047773Y003730D01*
X047824Y003658D01*
X047871Y003584D01*
X047914Y003507D01*
X047954Y003429D01*
X047990Y003348D01*
X048021Y003266D01*
X048049Y003182D01*
X048072Y003098D01*
X048092Y003012D01*
X048107Y002925D01*
X048117Y002838D01*
X048124Y002750D01*
X048126Y002662D01*
X048124Y002574D01*
X048117Y002486D01*
X048107Y002399D01*
X048092Y002312D01*
X048072Y002226D01*
X048049Y002142D01*
X048021Y002058D01*
X047990Y001976D01*
X047954Y001895D01*
X047914Y001817D01*
X047871Y001740D01*
X047824Y001666D01*
X047773Y001594D01*
X047719Y001525D01*
X047662Y001458D01*
X047601Y001394D01*
X047537Y001333D01*
X047470Y001276D01*
X047401Y001222D01*
X047329Y001171D01*
X047255Y001124D01*
X047178Y001081D01*
X047100Y001041D01*
X047019Y001005D01*
X046937Y000974D01*
X046853Y000946D01*
X046769Y000923D01*
X046683Y000903D01*
X046596Y000888D01*
X046509Y000878D01*
X046421Y000871D01*
X046333Y000869D01*
X046245Y000871D01*
X046157Y000878D01*
X046070Y000888D01*
X045983Y000903D01*
X045897Y000923D01*
X045813Y000946D01*
X045729Y000974D01*
X045647Y001005D01*
X045566Y001041D01*
X045488Y001081D01*
X045411Y001124D01*
X045337Y001171D01*
X045265Y001222D01*
X045196Y001276D01*
X045129Y001333D01*
X045065Y001394D01*
X045004Y001458D01*
X044947Y001525D01*
X044893Y001594D01*
X044842Y001666D01*
X044795Y001740D01*
X044752Y001817D01*
X044712Y001895D01*
X044676Y001976D01*
X044645Y002058D01*
X044617Y002142D01*
X044594Y002226D01*
X044574Y002312D01*
X044559Y002399D01*
X044549Y002486D01*
X044542Y002574D01*
X044540Y002662D01*
X047719Y001515D02*
X047886Y001348D01*
X047900Y001334D02*
X047636Y001070D01*
X047622Y001084D02*
X047455Y001251D01*
D18*
X044014Y000800D02*
X041652Y000800D01*
X041652Y003871D01*
X042046Y003871D01*
X042046Y003162D01*
X043621Y003162D02*
X043621Y003871D01*
X044014Y003871D01*
X044014Y000800D01*
M02*
