G75*
G70*
%OFA0B0*%
%FSLAX24Y24*%
%IPPOS*%
%LPD*%
%AMOC8*
5,1,8,0,0,1.08239X$1,22.5*
%
%ADD10C,0.0060*%
%ADD11C,0.0040*%
D10*
X007363Y005054D02*
X007590Y005281D01*
X007647Y005281D01*
X007704Y005224D01*
X007704Y005111D01*
X007647Y005054D01*
X007363Y005054D02*
X007363Y005281D01*
X007420Y005422D02*
X007647Y005649D01*
X007420Y005649D01*
X007363Y005592D01*
X007363Y005479D01*
X007420Y005422D01*
X007647Y005422D01*
X007704Y005479D01*
X007704Y005592D01*
X007647Y005649D01*
X007590Y005790D02*
X007704Y005904D01*
X007363Y005904D01*
X007363Y006017D02*
X007363Y005790D01*
X007420Y006159D02*
X007363Y006215D01*
X007363Y006329D01*
X007420Y006386D01*
X007477Y006386D01*
X007533Y006329D01*
X007533Y006272D01*
X007533Y006329D02*
X007590Y006386D01*
X007647Y006386D01*
X007704Y006329D01*
X007704Y006215D01*
X007647Y006159D01*
X007647Y006527D02*
X007420Y006527D01*
X007647Y006754D01*
X007420Y006754D01*
X007363Y006697D01*
X007363Y006584D01*
X007420Y006527D01*
X007647Y006527D02*
X007704Y006584D01*
X007704Y006697D01*
X007647Y006754D01*
X007704Y006895D02*
X007704Y007122D01*
X007647Y007122D01*
X007420Y006895D01*
X007363Y006895D01*
X007420Y007264D02*
X007647Y007491D01*
X007420Y007491D01*
X007363Y007434D01*
X007363Y007320D01*
X007420Y007264D01*
X007647Y007264D01*
X007704Y007320D01*
X007704Y007434D01*
X007647Y007491D01*
X007647Y007632D02*
X007704Y007689D01*
X007704Y007802D01*
X007647Y007859D01*
X007590Y007859D01*
X007363Y007632D01*
X007363Y007859D01*
X007363Y008000D02*
X007590Y008000D01*
X007477Y008000D02*
X007590Y008114D01*
X007590Y008170D01*
X007647Y008307D02*
X007420Y008307D01*
X007647Y008534D01*
X007420Y008534D01*
X007363Y008477D01*
X007363Y008364D01*
X007420Y008307D01*
X007647Y008307D02*
X007704Y008364D01*
X007704Y008477D01*
X007647Y008534D01*
X007647Y008676D02*
X007704Y008732D01*
X007704Y008846D01*
X007647Y008902D01*
X007590Y008902D01*
X007363Y008676D01*
X007363Y008902D01*
D11*
X010092Y004624D02*
X010092Y004424D01*
X010180Y004424D02*
X010180Y004557D01*
X010092Y004524D02*
X010026Y004524D01*
X010092Y004624D02*
X009959Y004624D01*
X010180Y004424D02*
X010280Y004424D01*
X010313Y004457D01*
X010313Y004557D01*
X010401Y004557D02*
X010401Y004591D01*
X010434Y004624D01*
X010501Y004624D01*
X010534Y004591D01*
X010622Y004591D02*
X010655Y004624D01*
X010722Y004624D01*
X010755Y004591D01*
X010622Y004591D02*
X010622Y004557D01*
X010755Y004424D01*
X010622Y004424D01*
X010534Y004424D02*
X010401Y004557D01*
X010401Y004424D02*
X010534Y004424D01*
X011833Y004447D02*
X011833Y004380D01*
X011867Y004347D01*
X012000Y004480D01*
X011867Y004480D01*
X011833Y004447D01*
X011867Y004347D02*
X012000Y004347D01*
X012034Y004380D01*
X012034Y004447D01*
X012000Y004480D01*
X011867Y004568D02*
X011833Y004568D01*
X011833Y004601D01*
X011867Y004601D01*
X011867Y004568D01*
X011833Y004678D02*
X011833Y004812D01*
X011833Y004745D02*
X012034Y004745D01*
X011967Y004678D01*
X011967Y004899D02*
X011867Y004899D01*
X011833Y004932D01*
X011833Y005033D01*
X011967Y005033D01*
X011933Y005120D02*
X011933Y005187D01*
X011833Y005120D02*
X012034Y005120D01*
X012034Y005253D01*
X012695Y005057D02*
X012795Y004991D01*
X012695Y004924D01*
X012795Y004924D02*
X012795Y005124D01*
X012949Y005124D02*
X013016Y005057D01*
X012949Y005124D02*
X012949Y004924D01*
X013016Y004924D02*
X012882Y004924D01*
X013474Y004924D02*
X013574Y004991D01*
X013474Y005057D01*
X013574Y005124D02*
X013574Y004924D01*
X013661Y004957D02*
X013695Y004924D01*
X013762Y004924D01*
X013795Y004957D01*
X013661Y005091D01*
X013661Y004957D01*
X013661Y005091D02*
X013695Y005124D01*
X013762Y005124D01*
X013795Y005091D01*
X013795Y004957D01*
X013882Y004957D02*
X013916Y004924D01*
X013983Y004924D01*
X014016Y004957D01*
X013882Y005091D01*
X013882Y004957D01*
X013882Y005091D02*
X013916Y005124D01*
X013983Y005124D01*
X014016Y005091D01*
X014016Y004957D01*
X014103Y004924D02*
X014237Y004924D01*
X014170Y004924D02*
X014170Y005124D01*
X014237Y005057D01*
X014695Y005057D02*
X014795Y004991D01*
X014695Y004924D01*
X014795Y004924D02*
X014795Y005124D01*
X014949Y005124D02*
X015016Y005057D01*
X014949Y005124D02*
X014949Y004924D01*
X015016Y004924D02*
X014882Y004924D01*
X014971Y004624D02*
X014938Y004591D01*
X015071Y004457D01*
X015038Y004424D01*
X014971Y004424D01*
X014938Y004457D01*
X014938Y004591D01*
X014971Y004624D02*
X015038Y004624D01*
X015071Y004591D01*
X015071Y004457D01*
X015159Y004457D02*
X015192Y004424D01*
X015259Y004424D01*
X015292Y004457D01*
X015225Y004524D02*
X015192Y004524D01*
X015159Y004491D01*
X015159Y004457D01*
X015192Y004524D02*
X015159Y004557D01*
X015159Y004591D01*
X015192Y004624D01*
X015259Y004624D01*
X015292Y004591D01*
X014850Y004457D02*
X014817Y004457D01*
X014817Y004424D01*
X014850Y004424D01*
X014850Y004457D01*
X014740Y004424D02*
X014606Y004424D01*
X014673Y004424D02*
X014673Y004624D01*
X014740Y004557D01*
X014519Y004491D02*
X014419Y004557D01*
X014519Y004491D02*
X014419Y004424D01*
X014519Y004424D02*
X014519Y004624D01*
X014126Y004591D02*
X014093Y004624D01*
X014026Y004624D01*
X013993Y004591D01*
X013993Y004557D01*
X014126Y004424D01*
X013993Y004424D01*
X013905Y004424D02*
X013772Y004557D01*
X013772Y004591D01*
X013805Y004624D01*
X013872Y004624D01*
X013905Y004591D01*
X013905Y004424D02*
X013772Y004424D01*
X013684Y004424D02*
X013684Y004624D01*
X013584Y004557D02*
X013684Y004491D01*
X013584Y004424D01*
X013237Y004424D02*
X013103Y004424D01*
X013170Y004424D02*
X013170Y004624D01*
X013237Y004557D01*
X013016Y004591D02*
X013016Y004457D01*
X012882Y004591D01*
X012882Y004457D01*
X012916Y004424D01*
X012983Y004424D01*
X013016Y004457D01*
X013016Y004591D02*
X012983Y004624D01*
X012916Y004624D01*
X012882Y004591D01*
X012795Y004591D02*
X012795Y004457D01*
X012661Y004591D01*
X012661Y004457D01*
X012695Y004424D01*
X012762Y004424D01*
X012795Y004457D01*
X012795Y004591D02*
X012762Y004624D01*
X012695Y004624D01*
X012661Y004591D01*
X012574Y004624D02*
X012574Y004424D01*
X012574Y004491D02*
X012474Y004557D01*
X012574Y004491D02*
X012474Y004424D01*
X015951Y004744D02*
X015951Y004844D01*
X015984Y004877D01*
X016018Y004844D01*
X016018Y004744D01*
X016084Y004744D02*
X016084Y004877D01*
X016051Y004877D01*
X016018Y004844D01*
X016165Y004744D02*
X016232Y004744D01*
X016198Y004744D02*
X016198Y004877D01*
X016232Y004877D01*
X016198Y004944D02*
X016198Y004977D01*
X016205Y005104D02*
X016272Y005104D01*
X016305Y005137D01*
X016172Y005271D01*
X016172Y005137D01*
X016205Y005104D01*
X016305Y005137D02*
X016305Y005271D01*
X016272Y005304D01*
X016205Y005304D01*
X016172Y005271D01*
X016084Y005304D02*
X016084Y005104D01*
X016084Y005171D02*
X015984Y005104D01*
X016084Y005171D02*
X015984Y005237D01*
X016393Y005237D02*
X016393Y005271D01*
X016426Y005304D01*
X016493Y005304D01*
X016526Y005271D01*
X016460Y005204D02*
X016426Y005204D01*
X016393Y005171D01*
X016393Y005137D01*
X016426Y005104D01*
X016493Y005104D01*
X016526Y005137D01*
X016426Y005204D02*
X016393Y005237D01*
X016530Y004911D02*
X016530Y004777D01*
X016497Y004744D01*
X016416Y004744D02*
X016416Y004877D01*
X016416Y004811D02*
X016349Y004877D01*
X016316Y004877D01*
X016497Y004877D02*
X016563Y004877D01*
X014334Y006631D02*
X014334Y006764D01*
X014334Y006698D02*
X014133Y006698D01*
X014133Y006852D02*
X014133Y006985D01*
X014167Y007073D02*
X014133Y007106D01*
X014133Y007173D01*
X014167Y007206D01*
X014133Y007294D02*
X014267Y007427D01*
X014300Y007427D01*
X014334Y007394D01*
X014334Y007327D01*
X014300Y007294D01*
X014300Y007206D02*
X014334Y007173D01*
X014334Y007106D01*
X014300Y007073D01*
X014167Y007073D01*
X014133Y006852D02*
X014334Y006852D01*
X014133Y007294D02*
X014133Y007427D01*
X014133Y007515D02*
X014167Y007515D01*
X014300Y007648D01*
X014334Y007648D01*
X014334Y007515D01*
X014300Y007736D02*
X014334Y007769D01*
X014334Y007836D01*
X014300Y007869D01*
X014267Y007869D01*
X014133Y007736D01*
X014133Y007869D01*
X014319Y008874D02*
X014386Y008941D01*
X014353Y008941D02*
X014453Y008941D01*
X014453Y008874D02*
X014453Y009074D01*
X014353Y009074D01*
X014319Y009041D01*
X014319Y008974D01*
X014353Y008941D01*
X014540Y009007D02*
X014540Y009041D01*
X014574Y009074D01*
X014640Y009074D01*
X014674Y009041D01*
X014540Y009007D02*
X014674Y008874D01*
X014540Y008874D01*
X014761Y008874D02*
X014895Y008874D01*
X014828Y008874D02*
X014828Y009074D01*
X014895Y009007D01*
X016069Y008957D02*
X016069Y009091D01*
X016103Y009124D01*
X016203Y009124D01*
X016203Y008924D01*
X016103Y008924D01*
X016069Y008957D01*
X016290Y008924D02*
X016424Y008924D01*
X016424Y009124D01*
X016290Y009124D01*
X016357Y009024D02*
X016424Y009024D01*
X016511Y008924D02*
X016645Y008924D01*
X016645Y009124D01*
X014666Y009874D02*
X014532Y009874D01*
X014599Y009874D02*
X014599Y010074D01*
X014666Y010007D01*
X014445Y009941D02*
X014345Y009874D01*
X014445Y009874D02*
X014445Y010074D01*
X014345Y010007D02*
X014445Y009941D01*
X012366Y009524D02*
X012232Y009524D01*
X012266Y009624D02*
X012366Y009524D01*
X012266Y009424D02*
X012266Y009624D01*
X012145Y009624D02*
X012011Y009624D01*
X012011Y009591D01*
X012145Y009457D01*
X012145Y009424D01*
X011924Y009457D02*
X011790Y009591D01*
X011790Y009457D01*
X011824Y009424D01*
X011890Y009424D01*
X011924Y009457D01*
X011924Y009591D01*
X011890Y009624D01*
X011824Y009624D01*
X011790Y009591D01*
X011703Y009557D02*
X011703Y009457D01*
X011669Y009424D01*
X011569Y009424D01*
X011569Y009557D01*
X011482Y009524D02*
X011415Y009524D01*
X011482Y009624D02*
X011348Y009624D01*
X011482Y009624D02*
X011482Y009424D01*
M02*
