G75*
G70*
%OFA0B0*%
%FSLAX24Y24*%
%IPPOS*%
%LPD*%
%AMOC8*
5,1,8,0,0,1.08239X$1,22.5*
%
%ADD10C,0.0060*%
D10*
X007363Y002255D02*
X007590Y002482D01*
X007647Y002482D01*
X007704Y002425D01*
X007704Y002312D01*
X007647Y002255D01*
X007363Y002255D02*
X007363Y002482D01*
X007420Y002623D02*
X007647Y002850D01*
X007420Y002850D01*
X007363Y002793D01*
X007363Y002680D01*
X007420Y002623D01*
X007647Y002623D01*
X007704Y002680D01*
X007704Y002793D01*
X007647Y002850D01*
X007590Y002992D02*
X007704Y003105D01*
X007363Y003105D01*
X007363Y002992D02*
X007363Y003218D01*
X007420Y003360D02*
X007363Y003417D01*
X007363Y003530D01*
X007420Y003587D01*
X007477Y003587D01*
X007533Y003530D01*
X007533Y003473D01*
X007533Y003530D02*
X007590Y003587D01*
X007647Y003587D01*
X007704Y003530D01*
X007704Y003417D01*
X007647Y003360D01*
X007647Y003728D02*
X007420Y003728D01*
X007647Y003955D01*
X007420Y003955D01*
X007363Y003898D01*
X007363Y003785D01*
X007420Y003728D01*
X007647Y003728D02*
X007704Y003785D01*
X007704Y003898D01*
X007647Y003955D01*
X007533Y004097D02*
X007420Y004097D01*
X007363Y004153D01*
X007363Y004267D01*
X007420Y004323D01*
X007477Y004323D01*
X007533Y004267D01*
X007533Y004097D01*
X007647Y004210D01*
X007704Y004323D01*
X007590Y004465D02*
X007704Y004578D01*
X007363Y004578D01*
X007363Y004465D02*
X007363Y004692D01*
X007363Y004833D02*
X007590Y005060D01*
X007647Y005060D01*
X007704Y005003D01*
X007704Y004890D01*
X007647Y004833D01*
X007363Y004833D02*
X007363Y005060D01*
X007363Y005202D02*
X007590Y005202D01*
X007477Y005202D02*
X007590Y005315D01*
X007590Y005372D01*
X007647Y005508D02*
X007420Y005508D01*
X007647Y005735D01*
X007420Y005735D01*
X007363Y005679D01*
X007363Y005565D01*
X007420Y005508D01*
X007647Y005508D02*
X007704Y005565D01*
X007704Y005679D01*
X007647Y005735D01*
X007590Y005877D02*
X007704Y005990D01*
X007363Y005990D01*
X007363Y005877D02*
X007363Y006104D01*
X011180Y007405D02*
X011180Y007745D01*
X010953Y007745D01*
X011322Y007632D02*
X011322Y007405D01*
X011492Y007405D01*
X011548Y007462D01*
X011548Y007632D01*
X011690Y007689D02*
X011917Y007462D01*
X011860Y007405D01*
X011747Y007405D01*
X011690Y007462D01*
X011690Y007689D01*
X011747Y007745D01*
X011860Y007745D01*
X011917Y007689D01*
X011917Y007462D01*
X012058Y007689D02*
X012285Y007462D01*
X012285Y007405D01*
X012483Y007405D02*
X012483Y007745D01*
X012653Y007575D01*
X012426Y007575D01*
X012058Y007689D02*
X012058Y007745D01*
X012285Y007745D01*
X011180Y007575D02*
X011067Y007575D01*
X014163Y006468D02*
X014277Y006298D01*
X014390Y006468D01*
X014504Y006298D02*
X014163Y006298D01*
X014163Y006157D02*
X014163Y005930D01*
X014163Y006043D02*
X014504Y006043D01*
X014390Y005930D01*
X015163Y006018D02*
X015163Y006132D01*
X015220Y006188D01*
X015447Y006188D01*
X015220Y005961D01*
X015163Y006018D01*
X015220Y005961D02*
X015447Y005961D01*
X015504Y006018D01*
X015504Y006132D01*
X015447Y006188D01*
X015447Y006330D02*
X015220Y006330D01*
X015447Y006557D01*
X015220Y006557D01*
X015163Y006500D01*
X015163Y006386D01*
X015220Y006330D01*
X015447Y006330D02*
X015504Y006386D01*
X015504Y006500D01*
X015447Y006557D01*
X015504Y006698D02*
X015163Y006698D01*
X015277Y006698D02*
X015390Y006868D01*
X015277Y006698D02*
X015163Y006868D01*
X015163Y005820D02*
X015163Y005593D01*
X015163Y005707D02*
X015504Y005707D01*
X015390Y005593D01*
X014954Y005107D02*
X014897Y005164D01*
X014840Y005164D01*
X014613Y004937D01*
X014613Y005164D01*
X014954Y005107D02*
X014954Y004993D01*
X014897Y004937D01*
X014897Y004795D02*
X014670Y004568D01*
X014613Y004568D01*
X014613Y004427D02*
X014613Y004200D01*
X014840Y004427D01*
X014897Y004427D01*
X014954Y004370D01*
X014954Y004257D01*
X014897Y004200D01*
X014897Y004059D02*
X014954Y004002D01*
X014954Y003888D01*
X014897Y003832D01*
X014670Y003832D01*
X014613Y003888D01*
X014613Y004002D01*
X014670Y004059D01*
X014613Y003690D02*
X014613Y003463D01*
X014954Y003463D01*
X014954Y003322D02*
X014954Y003095D01*
X014954Y003209D02*
X014613Y003209D01*
X014390Y002868D02*
X014277Y002698D01*
X014163Y002868D01*
X014163Y002698D02*
X014504Y002698D01*
X014447Y002557D02*
X014220Y002557D01*
X014163Y002500D01*
X014163Y002386D01*
X014220Y002330D01*
X014447Y002557D01*
X014504Y002500D01*
X014504Y002386D01*
X014447Y002330D01*
X014220Y002330D01*
X014220Y002188D02*
X014163Y002132D01*
X014163Y002018D01*
X014220Y001961D01*
X014447Y002188D01*
X014220Y002188D01*
X014220Y001961D02*
X014447Y001961D01*
X014504Y002018D01*
X014504Y002132D01*
X014447Y002188D01*
X015163Y002118D02*
X015163Y002345D01*
X015163Y002487D02*
X015504Y002487D01*
X015504Y002657D01*
X015447Y002714D01*
X015333Y002714D01*
X015277Y002657D01*
X015277Y002487D01*
X015277Y002600D02*
X015163Y002714D01*
X015390Y002345D02*
X015447Y002345D01*
X015504Y002289D01*
X015504Y002175D01*
X015447Y002118D01*
X015447Y001977D02*
X015504Y001920D01*
X015504Y001807D01*
X015447Y001750D01*
X015390Y001977D02*
X015163Y001750D01*
X015163Y001977D01*
X015163Y002118D02*
X015390Y002345D01*
X015390Y001977D02*
X015447Y001977D01*
X014504Y001707D02*
X014163Y001707D01*
X014163Y001820D02*
X014163Y001593D01*
X014390Y001593D02*
X014504Y001707D01*
X013504Y002093D02*
X013390Y001980D01*
X013504Y002093D02*
X013163Y002093D01*
X013163Y001980D02*
X013163Y002207D01*
X013163Y002348D02*
X013504Y002348D01*
X013390Y002518D02*
X013277Y002348D01*
X013163Y002518D01*
X012504Y002498D02*
X012163Y002498D01*
X012277Y002498D02*
X012163Y002668D01*
X012277Y002498D02*
X012390Y002668D01*
X012390Y002357D02*
X012447Y002357D01*
X012504Y002300D01*
X012504Y002186D01*
X012447Y002130D01*
X012447Y001988D02*
X012504Y001932D01*
X012504Y001818D01*
X012447Y001761D01*
X012390Y001988D02*
X012163Y001761D01*
X012163Y001988D01*
X012163Y002130D02*
X012390Y002357D01*
X012163Y002357D02*
X012163Y002130D01*
X012390Y001988D02*
X012447Y001988D01*
X011504Y001988D02*
X011447Y001875D01*
X011333Y001761D01*
X011333Y001932D01*
X011277Y001988D01*
X011220Y001988D01*
X011163Y001932D01*
X011163Y001818D01*
X011220Y001761D01*
X011333Y001761D01*
X010527Y001839D02*
X010470Y001895D01*
X010356Y001895D01*
X010300Y001839D01*
X010300Y001782D01*
X010527Y001555D01*
X010300Y001555D01*
X010158Y001555D02*
X009931Y001782D01*
X009931Y001839D01*
X009988Y001895D01*
X010102Y001895D01*
X010158Y001839D01*
X009790Y001782D02*
X009790Y001612D01*
X009733Y001555D01*
X009563Y001555D01*
X009563Y001782D01*
X009422Y001725D02*
X009308Y001725D01*
X009422Y001895D02*
X009195Y001895D01*
X009422Y001895D02*
X009422Y001555D01*
X009931Y001555D02*
X010158Y001555D01*
X011163Y002186D02*
X011220Y002130D01*
X011277Y002130D01*
X011333Y002186D01*
X011333Y002300D01*
X011277Y002357D01*
X011220Y002357D01*
X011163Y002300D01*
X011163Y002186D01*
X011333Y002186D02*
X011390Y002130D01*
X011447Y002130D01*
X011504Y002186D01*
X011504Y002300D01*
X011447Y002357D01*
X011390Y002357D01*
X011333Y002300D01*
X011277Y002498D02*
X011390Y002668D01*
X011277Y002498D02*
X011163Y002668D01*
X011163Y002498D02*
X011504Y002498D01*
X012170Y003398D02*
X012397Y003624D01*
X012170Y003624D01*
X012113Y003568D01*
X012113Y003454D01*
X012170Y003398D01*
X012397Y003398D01*
X012454Y003454D01*
X012454Y003568D01*
X012397Y003624D01*
X012170Y003766D02*
X012170Y003823D01*
X012113Y003823D01*
X012113Y003766D01*
X012170Y003766D01*
X012113Y003950D02*
X012113Y004177D01*
X012113Y004063D02*
X012454Y004063D01*
X012340Y003950D01*
X012340Y004318D02*
X012170Y004318D01*
X012113Y004375D01*
X012113Y004545D01*
X012340Y004545D01*
X012283Y004687D02*
X012283Y004800D01*
X012113Y004687D02*
X012454Y004687D01*
X012454Y004914D01*
X014897Y004795D02*
X014954Y004795D01*
X014954Y004568D01*
M02*
