%
M48
M72
T01C0.0240
T02C0.0315
T03C0.0320
T04C0.0400
T05C0.1300
%
T01
X10353Y4005
X11853Y3105
X13533Y3165
X13893Y3525
X13833Y4245
X12033Y4965
X14133Y5205
X12753Y5925
X15933Y2325
T02
X9621Y3725
X9621Y4725
T03
X11333Y6725
X12333Y6725
T04
X17833Y5225
X17833Y4225
X17833Y3225
T05
X7333Y1225
X17833Y1225
X17833Y7225
X7333Y7225
M30
