G75*
G70*
%OFA0B0*%
%FSLAX24Y24*%
%IPPOS*%
%LPD*%
%AMOC8*
5,1,8,0,0,1.08239X$1,22.5*
%
%ADD10C,0.0000*%
%ADD11R,0.0866X0.0236*%
%ADD12R,0.0276X0.0354*%
%ADD13R,0.0512X0.0591*%
%ADD14OC8,0.0630*%
%ADD15C,0.0630*%
%ADD16C,0.0660*%
%ADD17C,0.0740*%
%ADD18R,0.0354X0.0276*%
%ADD19R,0.0630X0.0709*%
%ADD20R,0.0354X0.0433*%
%ADD21R,0.0315X0.0315*%
%ADD22C,0.0100*%
%ADD23C,0.0400*%
%ADD24C,0.0160*%
D10*
X006333Y003024D02*
X006333Y011020D01*
X018833Y011024D01*
X018833Y003024D01*
X006333Y003024D01*
X006683Y004024D02*
X006685Y004074D01*
X006691Y004124D01*
X006701Y004174D01*
X006714Y004222D01*
X006731Y004270D01*
X006752Y004316D01*
X006776Y004360D01*
X006804Y004402D01*
X006835Y004442D01*
X006869Y004479D01*
X006906Y004514D01*
X006945Y004545D01*
X006986Y004574D01*
X007030Y004599D01*
X007076Y004621D01*
X007123Y004639D01*
X007171Y004653D01*
X007220Y004664D01*
X007270Y004671D01*
X007320Y004674D01*
X007371Y004673D01*
X007421Y004668D01*
X007471Y004659D01*
X007519Y004647D01*
X007567Y004630D01*
X007613Y004610D01*
X007658Y004587D01*
X007701Y004560D01*
X007741Y004530D01*
X007779Y004497D01*
X007814Y004461D01*
X007847Y004422D01*
X007876Y004381D01*
X007902Y004338D01*
X007925Y004293D01*
X007944Y004246D01*
X007959Y004198D01*
X007971Y004149D01*
X007979Y004099D01*
X007983Y004049D01*
X007983Y003999D01*
X007979Y003949D01*
X007971Y003899D01*
X007959Y003850D01*
X007944Y003802D01*
X007925Y003755D01*
X007902Y003710D01*
X007876Y003667D01*
X007847Y003626D01*
X007814Y003587D01*
X007779Y003551D01*
X007741Y003518D01*
X007701Y003488D01*
X007658Y003461D01*
X007613Y003438D01*
X007567Y003418D01*
X007519Y003401D01*
X007471Y003389D01*
X007421Y003380D01*
X007371Y003375D01*
X007320Y003374D01*
X007270Y003377D01*
X007220Y003384D01*
X007171Y003395D01*
X007123Y003409D01*
X007076Y003427D01*
X007030Y003449D01*
X006986Y003474D01*
X006945Y003503D01*
X006906Y003534D01*
X006869Y003569D01*
X006835Y003606D01*
X006804Y003646D01*
X006776Y003688D01*
X006752Y003732D01*
X006731Y003778D01*
X006714Y003826D01*
X006701Y003874D01*
X006691Y003924D01*
X006685Y003974D01*
X006683Y004024D01*
X017183Y004024D02*
X017185Y004074D01*
X017191Y004124D01*
X017201Y004174D01*
X017214Y004222D01*
X017231Y004270D01*
X017252Y004316D01*
X017276Y004360D01*
X017304Y004402D01*
X017335Y004442D01*
X017369Y004479D01*
X017406Y004514D01*
X017445Y004545D01*
X017486Y004574D01*
X017530Y004599D01*
X017576Y004621D01*
X017623Y004639D01*
X017671Y004653D01*
X017720Y004664D01*
X017770Y004671D01*
X017820Y004674D01*
X017871Y004673D01*
X017921Y004668D01*
X017971Y004659D01*
X018019Y004647D01*
X018067Y004630D01*
X018113Y004610D01*
X018158Y004587D01*
X018201Y004560D01*
X018241Y004530D01*
X018279Y004497D01*
X018314Y004461D01*
X018347Y004422D01*
X018376Y004381D01*
X018402Y004338D01*
X018425Y004293D01*
X018444Y004246D01*
X018459Y004198D01*
X018471Y004149D01*
X018479Y004099D01*
X018483Y004049D01*
X018483Y003999D01*
X018479Y003949D01*
X018471Y003899D01*
X018459Y003850D01*
X018444Y003802D01*
X018425Y003755D01*
X018402Y003710D01*
X018376Y003667D01*
X018347Y003626D01*
X018314Y003587D01*
X018279Y003551D01*
X018241Y003518D01*
X018201Y003488D01*
X018158Y003461D01*
X018113Y003438D01*
X018067Y003418D01*
X018019Y003401D01*
X017971Y003389D01*
X017921Y003380D01*
X017871Y003375D01*
X017820Y003374D01*
X017770Y003377D01*
X017720Y003384D01*
X017671Y003395D01*
X017623Y003409D01*
X017576Y003427D01*
X017530Y003449D01*
X017486Y003474D01*
X017445Y003503D01*
X017406Y003534D01*
X017369Y003569D01*
X017335Y003606D01*
X017304Y003646D01*
X017276Y003688D01*
X017252Y003732D01*
X017231Y003778D01*
X017214Y003826D01*
X017201Y003874D01*
X017191Y003924D01*
X017185Y003974D01*
X017183Y004024D01*
X017183Y010024D02*
X017185Y010074D01*
X017191Y010124D01*
X017201Y010174D01*
X017214Y010222D01*
X017231Y010270D01*
X017252Y010316D01*
X017276Y010360D01*
X017304Y010402D01*
X017335Y010442D01*
X017369Y010479D01*
X017406Y010514D01*
X017445Y010545D01*
X017486Y010574D01*
X017530Y010599D01*
X017576Y010621D01*
X017623Y010639D01*
X017671Y010653D01*
X017720Y010664D01*
X017770Y010671D01*
X017820Y010674D01*
X017871Y010673D01*
X017921Y010668D01*
X017971Y010659D01*
X018019Y010647D01*
X018067Y010630D01*
X018113Y010610D01*
X018158Y010587D01*
X018201Y010560D01*
X018241Y010530D01*
X018279Y010497D01*
X018314Y010461D01*
X018347Y010422D01*
X018376Y010381D01*
X018402Y010338D01*
X018425Y010293D01*
X018444Y010246D01*
X018459Y010198D01*
X018471Y010149D01*
X018479Y010099D01*
X018483Y010049D01*
X018483Y009999D01*
X018479Y009949D01*
X018471Y009899D01*
X018459Y009850D01*
X018444Y009802D01*
X018425Y009755D01*
X018402Y009710D01*
X018376Y009667D01*
X018347Y009626D01*
X018314Y009587D01*
X018279Y009551D01*
X018241Y009518D01*
X018201Y009488D01*
X018158Y009461D01*
X018113Y009438D01*
X018067Y009418D01*
X018019Y009401D01*
X017971Y009389D01*
X017921Y009380D01*
X017871Y009375D01*
X017820Y009374D01*
X017770Y009377D01*
X017720Y009384D01*
X017671Y009395D01*
X017623Y009409D01*
X017576Y009427D01*
X017530Y009449D01*
X017486Y009474D01*
X017445Y009503D01*
X017406Y009534D01*
X017369Y009569D01*
X017335Y009606D01*
X017304Y009646D01*
X017276Y009688D01*
X017252Y009732D01*
X017231Y009778D01*
X017214Y009826D01*
X017201Y009874D01*
X017191Y009924D01*
X017185Y009974D01*
X017183Y010024D01*
X006683Y010024D02*
X006685Y010074D01*
X006691Y010124D01*
X006701Y010174D01*
X006714Y010222D01*
X006731Y010270D01*
X006752Y010316D01*
X006776Y010360D01*
X006804Y010402D01*
X006835Y010442D01*
X006869Y010479D01*
X006906Y010514D01*
X006945Y010545D01*
X006986Y010574D01*
X007030Y010599D01*
X007076Y010621D01*
X007123Y010639D01*
X007171Y010653D01*
X007220Y010664D01*
X007270Y010671D01*
X007320Y010674D01*
X007371Y010673D01*
X007421Y010668D01*
X007471Y010659D01*
X007519Y010647D01*
X007567Y010630D01*
X007613Y010610D01*
X007658Y010587D01*
X007701Y010560D01*
X007741Y010530D01*
X007779Y010497D01*
X007814Y010461D01*
X007847Y010422D01*
X007876Y010381D01*
X007902Y010338D01*
X007925Y010293D01*
X007944Y010246D01*
X007959Y010198D01*
X007971Y010149D01*
X007979Y010099D01*
X007983Y010049D01*
X007983Y009999D01*
X007979Y009949D01*
X007971Y009899D01*
X007959Y009850D01*
X007944Y009802D01*
X007925Y009755D01*
X007902Y009710D01*
X007876Y009667D01*
X007847Y009626D01*
X007814Y009587D01*
X007779Y009551D01*
X007741Y009518D01*
X007701Y009488D01*
X007658Y009461D01*
X007613Y009438D01*
X007567Y009418D01*
X007519Y009401D01*
X007471Y009389D01*
X007421Y009380D01*
X007371Y009375D01*
X007320Y009374D01*
X007270Y009377D01*
X007220Y009384D01*
X007171Y009395D01*
X007123Y009409D01*
X007076Y009427D01*
X007030Y009449D01*
X006986Y009474D01*
X006945Y009503D01*
X006906Y009534D01*
X006869Y009569D01*
X006835Y009606D01*
X006804Y009646D01*
X006776Y009688D01*
X006752Y009732D01*
X006731Y009778D01*
X006714Y009826D01*
X006701Y009874D01*
X006691Y009924D01*
X006685Y009974D01*
X006683Y010024D01*
D11*
X012810Y007774D03*
X012810Y007274D03*
X012810Y006774D03*
X012810Y006274D03*
X014857Y006274D03*
X014857Y006774D03*
X014857Y007274D03*
X014857Y007774D03*
D12*
X014739Y009974D03*
X014227Y009974D03*
X014089Y005024D03*
X013577Y005024D03*
X013089Y005024D03*
X012577Y005024D03*
X012577Y004524D03*
X013089Y004524D03*
X013577Y004524D03*
X014089Y004524D03*
X014577Y004524D03*
X015089Y004524D03*
X015089Y005024D03*
X014577Y005024D03*
D13*
X014249Y008974D03*
X014918Y008974D03*
D14*
X011833Y009024D03*
D15*
X011833Y010024D03*
D16*
X009621Y007524D03*
X009621Y006524D03*
D17*
X017833Y007024D03*
X017833Y006024D03*
X017833Y008024D03*
D18*
X011933Y005030D03*
X011933Y004518D03*
D19*
X010885Y004524D03*
X009782Y004524D03*
D20*
X015662Y004416D03*
X016804Y004774D03*
X015662Y005132D03*
D21*
X016038Y009024D03*
X016629Y009024D03*
D22*
X016038Y009024D02*
X015993Y009024D01*
X015093Y009924D01*
X014793Y009924D01*
X014739Y009974D01*
X014227Y009974D02*
X014193Y009924D01*
X012813Y009924D01*
X012813Y009504D01*
X011673Y009504D01*
X011073Y008904D01*
X011073Y004704D01*
X010893Y004524D01*
X010885Y004524D01*
X011933Y005030D02*
X011973Y005064D01*
X012393Y005484D01*
X012393Y005544D01*
X013113Y005544D02*
X013533Y005124D01*
X013533Y005064D01*
X013577Y005024D01*
X013113Y005004D02*
X013089Y005024D01*
X013113Y005004D02*
X013113Y004524D01*
X013089Y004524D01*
X013113Y004524D02*
X013233Y004404D01*
X013233Y003924D01*
X013473Y003684D01*
X015993Y003684D01*
X015993Y005904D01*
X015153Y006744D01*
X014913Y006744D01*
X014857Y006774D01*
X014853Y007224D02*
X014857Y007274D01*
X014853Y007224D02*
X013533Y007224D01*
X013533Y006564D01*
X012813Y006564D01*
X012813Y006744D01*
X012810Y006774D01*
X012810Y007274D02*
X012813Y007284D01*
X013113Y007284D01*
X013413Y007584D01*
X013593Y007584D01*
X013953Y007524D02*
X013953Y007704D01*
X012813Y008844D01*
X012813Y009504D01*
X012813Y008844D02*
X012813Y007824D01*
X012810Y007774D01*
X013953Y007524D02*
X016293Y007524D01*
X017793Y006024D01*
X017833Y006024D01*
X015213Y005544D02*
X015213Y005184D01*
X015093Y005064D01*
X015089Y005024D01*
X015093Y005004D01*
X015093Y004524D01*
X015089Y004524D01*
X014793Y004344D02*
X014613Y004524D01*
X014577Y004524D01*
X014793Y004344D02*
X014793Y004284D01*
X014913Y004164D01*
X015633Y004164D01*
X015633Y004404D01*
X015662Y004416D01*
X012577Y004524D02*
X012573Y004524D01*
X012033Y003984D01*
X010413Y003984D01*
X010413Y005964D01*
X010713Y006264D01*
X013953Y006264D02*
X014853Y006264D01*
X014857Y006274D01*
D23*
X013953Y006264D03*
X013533Y006564D03*
X013593Y007584D03*
X013173Y009024D03*
X016893Y008064D03*
X015213Y005544D03*
X013113Y005544D03*
X012393Y005544D03*
X011433Y005124D03*
X010713Y006264D03*
X013593Y004044D03*
X014253Y004044D03*
X016353Y004344D03*
D24*
X016773Y004764D01*
X016804Y004774D01*
X014577Y005024D02*
X014553Y005064D01*
X014133Y005064D01*
X014089Y005024D01*
X014133Y005124D01*
X013353Y005904D01*
X012753Y005904D01*
X012753Y005184D01*
X012633Y005064D01*
X012577Y005024D01*
X011933Y004518D02*
X011913Y004524D01*
X011433Y004524D01*
X011433Y005124D01*
X010113Y004824D02*
X010113Y007044D01*
X009633Y007524D01*
X009621Y007524D01*
X011853Y006264D02*
X011853Y009024D01*
X011833Y009024D01*
X013173Y009024D02*
X014193Y009024D01*
X014249Y008974D01*
X014913Y008964D02*
X014918Y008974D01*
X014913Y008964D02*
X014913Y008064D01*
X016893Y008064D01*
X017253Y008424D02*
X017253Y007584D01*
X017793Y007044D01*
X017833Y007024D01*
X014913Y007824D02*
X014857Y007774D01*
X014913Y007824D02*
X014913Y008064D01*
X016629Y009024D02*
X016653Y009024D01*
X017253Y008424D01*
X012810Y006274D02*
X012693Y006264D01*
X011853Y006264D01*
X012753Y006264D02*
X012753Y005904D01*
X012753Y006264D02*
X012810Y006274D01*
X010113Y004824D02*
X009813Y004524D01*
X009782Y004524D01*
X013577Y004524D02*
X013593Y004524D01*
X013593Y004044D01*
X014253Y004044D02*
X014253Y004404D01*
X014133Y004524D01*
X014089Y004524D01*
M02*
