%
M48
M72
T01C0.0240
T02C0.0315
T03C0.0320
T04C0.0400
T05C0.1300
%
T01
X11433Y5124
X12393Y5544
X13113Y5544
X13953Y6264
X13533Y6564
X13593Y7584
X13173Y9024
X16893Y8064
X15213Y5544
X16353Y4344
X14253Y4044
X13593Y4044
X10713Y6264
T02
X9621Y6524
X9621Y7524
T03
X11833Y9024
X11833Y10024
T04
X17833Y8024
X17833Y7024
X17833Y6024
T05
X7333Y4024
X17833Y4024
X17833Y10024
X7333Y10024
M30
