G75*
G70*
%OFA0B0*%
%FSLAX24Y24*%
%IPPOS*%
%LPD*%
%AMOC8*
5,1,8,0,0,1.08239X$1,22.5*
%
%ADD10C,0.0060*%
%ADD11OC8,0.0630*%
%ADD12C,0.0630*%
%ADD13C,0.0660*%
%ADD14C,0.0740*%
%ADD15C,0.0100*%
%ADD16C,0.0400*%
D10*
X006863Y002255D02*
X007090Y002482D01*
X007147Y002482D01*
X007204Y002425D01*
X007204Y002312D01*
X007147Y002255D01*
X006863Y002255D02*
X006863Y002482D01*
X006920Y002623D02*
X007147Y002850D01*
X006920Y002850D01*
X006863Y002793D01*
X006863Y002680D01*
X006920Y002623D01*
X007147Y002623D01*
X007204Y002680D01*
X007204Y002793D01*
X007147Y002850D01*
X007090Y002992D02*
X007204Y003105D01*
X006863Y003105D01*
X006863Y002992D02*
X006863Y003218D01*
X006920Y003360D02*
X006863Y003417D01*
X006863Y003530D01*
X006920Y003587D01*
X006977Y003587D01*
X007033Y003530D01*
X007033Y003473D01*
X007033Y003530D02*
X007090Y003587D01*
X007147Y003587D01*
X007204Y003530D01*
X007204Y003417D01*
X007147Y003360D01*
X007147Y003728D02*
X006920Y003728D01*
X007147Y003955D01*
X006920Y003955D01*
X006863Y003898D01*
X006863Y003785D01*
X006920Y003728D01*
X007147Y003728D02*
X007204Y003785D01*
X007204Y003898D01*
X007147Y003955D01*
X007033Y004097D02*
X007033Y004267D01*
X006977Y004323D01*
X006920Y004323D01*
X006863Y004267D01*
X006863Y004153D01*
X006920Y004097D01*
X007033Y004097D01*
X007147Y004210D01*
X007204Y004323D01*
X007090Y004465D02*
X007204Y004578D01*
X006863Y004578D01*
X006863Y004465D02*
X006863Y004692D01*
X006863Y004833D02*
X007090Y005060D01*
X007147Y005060D01*
X007204Y005003D01*
X007204Y004890D01*
X007147Y004833D01*
X006863Y004833D02*
X006863Y005060D01*
X006863Y005202D02*
X007090Y005202D01*
X006977Y005202D02*
X007090Y005315D01*
X007090Y005372D01*
X007147Y005508D02*
X006920Y005508D01*
X007147Y005735D01*
X006920Y005735D01*
X006863Y005679D01*
X006863Y005565D01*
X006920Y005508D01*
X007147Y005508D02*
X007204Y005565D01*
X007204Y005679D01*
X007147Y005735D01*
X007090Y005877D02*
X007204Y005990D01*
X006863Y005990D01*
X006863Y005877D02*
X006863Y006104D01*
D11*
X011333Y006725D03*
D12*
X012333Y006725D03*
D13*
X009621Y004725D03*
X009621Y003725D03*
D14*
X017833Y003225D03*
X017833Y004225D03*
X017833Y005225D03*
D15*
X017793Y005205D01*
X014133Y005205D01*
X012753Y005925D02*
X012453Y006225D01*
X011853Y006225D01*
X011373Y006705D01*
X011333Y006725D01*
X012033Y004965D02*
X012753Y004245D01*
X013833Y004245D01*
X013773Y003645D02*
X009693Y003645D01*
X009633Y003705D01*
X009621Y003725D01*
X010353Y004005D02*
X009633Y004725D01*
X009621Y004725D01*
X013773Y003645D02*
X013893Y003525D01*
X015033Y002385D01*
X015933Y002385D01*
X015933Y002325D01*
X017833Y004225D01*
X013533Y003165D02*
X011913Y003165D01*
X011853Y003105D01*
D16*
X011853Y003105D03*
X013533Y003165D03*
X013893Y003525D03*
X013833Y004245D03*
X012033Y004965D03*
X014133Y005205D03*
X012753Y005925D03*
X010353Y004005D03*
X015933Y002325D03*
M02*
