G75*
G70*
%OFA0B0*%
%FSLAX24Y24*%
%IPPOS*%
%LPD*%
%AMOC8*
5,1,8,0,0,1.08239X$1,22.5*
%
%ADD10C,0.0080*%
%ADD11C,0.0060*%
%ADD12C,0.0100*%
%ADD13C,0.0040*%
D10*
X006924Y004225D02*
X006926Y004319D01*
X006933Y004412D01*
X006945Y004505D01*
X006961Y004597D01*
X006981Y004689D01*
X007006Y004779D01*
X007036Y004868D01*
X007069Y004956D01*
X007107Y005041D01*
X007149Y005125D01*
X007196Y005206D01*
X007246Y005286D01*
X007300Y005362D01*
X007357Y005436D01*
X007419Y005507D01*
X007483Y005575D01*
X007551Y005639D01*
X007622Y005701D01*
X007696Y005758D01*
X007772Y005812D01*
X007852Y005862D01*
X007933Y005909D01*
X008017Y005951D01*
X008102Y005989D01*
X008190Y006022D01*
X008279Y006052D01*
X008369Y006077D01*
X008461Y006097D01*
X008553Y006113D01*
X008646Y006125D01*
X008739Y006132D01*
X008833Y006134D01*
X008927Y006132D01*
X009020Y006125D01*
X009113Y006113D01*
X009205Y006097D01*
X009297Y006077D01*
X009387Y006052D01*
X009476Y006022D01*
X009564Y005989D01*
X009649Y005951D01*
X009733Y005909D01*
X009814Y005862D01*
X009894Y005812D01*
X009970Y005758D01*
X010044Y005701D01*
X010115Y005639D01*
X010183Y005575D01*
X010247Y005507D01*
X010309Y005436D01*
X010366Y005362D01*
X010420Y005286D01*
X010470Y005206D01*
X010517Y005125D01*
X010559Y005041D01*
X010597Y004956D01*
X010630Y004868D01*
X010660Y004779D01*
X010685Y004689D01*
X010705Y004597D01*
X010721Y004505D01*
X010733Y004412D01*
X010740Y004319D01*
X010742Y004225D01*
X010740Y004131D01*
X010733Y004038D01*
X010721Y003945D01*
X010705Y003853D01*
X010685Y003761D01*
X010660Y003671D01*
X010630Y003582D01*
X010597Y003494D01*
X010559Y003409D01*
X010517Y003325D01*
X010470Y003244D01*
X010420Y003164D01*
X010366Y003088D01*
X010309Y003014D01*
X010247Y002943D01*
X010183Y002875D01*
X010115Y002811D01*
X010044Y002749D01*
X009970Y002692D01*
X009894Y002638D01*
X009814Y002588D01*
X009733Y002541D01*
X009649Y002499D01*
X009564Y002461D01*
X009476Y002428D01*
X009387Y002398D01*
X009297Y002373D01*
X009205Y002353D01*
X009113Y002337D01*
X009020Y002325D01*
X008927Y002318D01*
X008833Y002316D01*
X008739Y002318D01*
X008646Y002325D01*
X008553Y002337D01*
X008461Y002353D01*
X008369Y002373D01*
X008279Y002398D01*
X008190Y002428D01*
X008102Y002461D01*
X008017Y002499D01*
X007933Y002541D01*
X007852Y002588D01*
X007772Y002638D01*
X007696Y002692D01*
X007622Y002749D01*
X007551Y002811D01*
X007483Y002875D01*
X007419Y002943D01*
X007357Y003014D01*
X007300Y003088D01*
X007246Y003164D01*
X007196Y003244D01*
X007149Y003325D01*
X007107Y003409D01*
X007069Y003494D01*
X007036Y003582D01*
X007006Y003671D01*
X006981Y003761D01*
X006961Y003853D01*
X006945Y003945D01*
X006933Y004038D01*
X006926Y004131D01*
X006924Y004225D01*
X015873Y004135D02*
X015943Y004065D01*
X016084Y004065D01*
X016154Y004135D01*
X016154Y004275D01*
X016013Y004275D01*
X015873Y004415D02*
X015873Y004135D01*
X016334Y004065D02*
X016334Y004485D01*
X016614Y004065D01*
X016614Y004485D01*
X016794Y004485D02*
X017004Y004485D01*
X017074Y004415D01*
X017074Y004135D01*
X017004Y004065D01*
X016794Y004065D01*
X016794Y004485D01*
X017333Y004475D02*
X017583Y004725D01*
X017333Y004975D01*
X017333Y005475D01*
X017583Y005725D01*
X018083Y005725D01*
X018333Y005475D01*
X018333Y004975D01*
X018083Y004725D01*
X018333Y004475D01*
X018333Y003975D01*
X018083Y003725D01*
X018333Y003475D01*
X018333Y002975D01*
X018083Y002725D01*
X017583Y002725D01*
X017333Y002975D01*
X017333Y003475D01*
X017583Y003725D01*
X017333Y003975D01*
X017333Y004475D01*
X017004Y005015D02*
X016864Y005015D01*
X016794Y005085D01*
X016794Y005365D01*
X016864Y005435D01*
X017004Y005435D01*
X017074Y005365D01*
X016614Y005365D02*
X016544Y005435D01*
X016404Y005435D01*
X016334Y005365D01*
X016334Y005085D01*
X016404Y005015D01*
X016544Y005015D01*
X016614Y005085D01*
X017004Y005015D02*
X017074Y005085D01*
X016154Y005155D02*
X016154Y005435D01*
X015873Y005435D02*
X015873Y005155D01*
X016013Y005015D01*
X016154Y005155D01*
X016084Y004485D02*
X015943Y004485D01*
X015873Y004415D01*
X016084Y004485D02*
X016154Y004415D01*
X016093Y003435D02*
X016023Y003365D01*
X016023Y003295D01*
X016093Y003225D01*
X016234Y003225D01*
X016304Y003155D01*
X016304Y003085D01*
X016234Y003015D01*
X016093Y003015D01*
X016023Y003085D01*
X016484Y003015D02*
X016624Y003015D01*
X016554Y003015D02*
X016554Y003435D01*
X016484Y003435D02*
X016624Y003435D01*
X016791Y003365D02*
X016861Y003435D01*
X017001Y003435D01*
X017071Y003365D01*
X017071Y003225D02*
X016931Y003225D01*
X017071Y003225D02*
X017071Y003085D01*
X017001Y003015D01*
X016861Y003015D01*
X016791Y003085D01*
X016791Y003365D01*
X016304Y003365D02*
X016234Y003435D01*
X016093Y003435D01*
D11*
X008590Y000755D02*
X008363Y000755D01*
X008363Y000812D01*
X008590Y001039D01*
X008590Y001095D01*
X008363Y001095D01*
X008732Y001095D02*
X008959Y000755D01*
X009100Y000925D02*
X009327Y000925D01*
X009468Y000925D02*
X009638Y000925D01*
X009695Y000868D01*
X009695Y000812D01*
X009638Y000755D01*
X009468Y000755D01*
X009468Y001095D01*
X009638Y001095D01*
X009695Y001039D01*
X009695Y000982D01*
X009638Y000925D01*
X009837Y000812D02*
X009893Y000868D01*
X010063Y000868D01*
X010063Y000925D02*
X010063Y000755D01*
X009893Y000755D01*
X009837Y000812D01*
X010007Y000982D02*
X010063Y000925D01*
X010007Y000982D02*
X009893Y000982D01*
X010205Y000925D02*
X010262Y000982D01*
X010432Y000982D01*
X010375Y000868D02*
X010262Y000868D01*
X010205Y000925D01*
X010205Y000755D02*
X010375Y000755D01*
X010432Y000812D01*
X010375Y000868D01*
X010573Y000868D02*
X010800Y000868D01*
X010800Y000925D01*
X010743Y000982D01*
X010630Y000982D01*
X010573Y000925D01*
X010573Y000812D01*
X010630Y000755D01*
X010743Y000755D01*
X010942Y000812D02*
X010942Y000925D01*
X010998Y000982D01*
X011168Y000982D01*
X011168Y001095D02*
X011168Y000755D01*
X010998Y000755D01*
X010942Y000812D01*
X011678Y000812D02*
X011735Y000755D01*
X011848Y000755D01*
X011905Y000812D01*
X011905Y000868D01*
X011848Y000925D01*
X011735Y000925D01*
X011678Y000982D01*
X011678Y001039D01*
X011735Y001095D01*
X011848Y001095D01*
X011905Y001039D01*
X012046Y000925D02*
X012103Y000982D01*
X012217Y000982D01*
X012273Y000925D01*
X012273Y000812D01*
X012217Y000755D01*
X012103Y000755D01*
X012046Y000812D01*
X012046Y000925D01*
X012415Y000982D02*
X012415Y000812D01*
X012472Y000755D01*
X012642Y000755D01*
X012642Y000982D01*
X012783Y000982D02*
X012953Y000982D01*
X013010Y000925D01*
X013010Y000755D01*
X013151Y000812D02*
X013151Y000925D01*
X013208Y000982D01*
X013378Y000982D01*
X013378Y001095D02*
X013378Y000755D01*
X013208Y000755D01*
X013151Y000812D01*
X012783Y000755D02*
X012783Y000982D01*
X013888Y000925D02*
X014058Y000925D01*
X014115Y000868D01*
X014115Y000812D01*
X014058Y000755D01*
X013888Y000755D01*
X013888Y001095D01*
X014058Y001095D01*
X014115Y001039D01*
X014115Y000982D01*
X014058Y000925D01*
X014256Y000925D02*
X014256Y000812D01*
X014313Y000755D01*
X014427Y000755D01*
X014483Y000812D01*
X014483Y000925D01*
X014427Y000982D01*
X014313Y000982D01*
X014256Y000925D01*
X014625Y000812D02*
X014681Y000868D01*
X014852Y000868D01*
X014852Y000925D02*
X014852Y000755D01*
X014681Y000755D01*
X014625Y000812D01*
X014795Y000982D02*
X014852Y000925D01*
X014795Y000982D02*
X014681Y000982D01*
X014993Y000982D02*
X014993Y000755D01*
X014993Y000868D02*
X015106Y000982D01*
X015163Y000982D01*
X015300Y000925D02*
X015357Y000982D01*
X015527Y000982D01*
X015527Y001095D02*
X015527Y000755D01*
X015357Y000755D01*
X015300Y000812D01*
X015300Y000925D01*
X008959Y001095D02*
X008732Y000755D01*
X012883Y006575D02*
X012883Y006875D01*
X013033Y006725D02*
X012733Y006725D01*
X010483Y006725D02*
X010485Y006798D01*
X010491Y006871D01*
X010501Y006943D01*
X010515Y007015D01*
X010532Y007086D01*
X010554Y007156D01*
X010579Y007225D01*
X010608Y007292D01*
X010640Y007357D01*
X010676Y007421D01*
X010716Y007483D01*
X010758Y007542D01*
X010804Y007599D01*
X010853Y007653D01*
X010905Y007705D01*
X010959Y007754D01*
X011016Y007800D01*
X011075Y007842D01*
X011137Y007882D01*
X011201Y007918D01*
X011266Y007950D01*
X011333Y007979D01*
X011402Y008004D01*
X011472Y008026D01*
X011543Y008043D01*
X011615Y008057D01*
X011687Y008067D01*
X011760Y008073D01*
X011833Y008075D01*
X011906Y008073D01*
X011979Y008067D01*
X012051Y008057D01*
X012123Y008043D01*
X012194Y008026D01*
X012264Y008004D01*
X012333Y007979D01*
X012400Y007950D01*
X012465Y007918D01*
X012529Y007882D01*
X012591Y007842D01*
X012650Y007800D01*
X012707Y007754D01*
X012761Y007705D01*
X012813Y007653D01*
X012862Y007599D01*
X012908Y007542D01*
X012950Y007483D01*
X012990Y007421D01*
X013026Y007357D01*
X013058Y007292D01*
X013087Y007225D01*
X013112Y007156D01*
X013134Y007086D01*
X013151Y007015D01*
X013165Y006943D01*
X013175Y006871D01*
X013181Y006798D01*
X013183Y006725D01*
X013181Y006652D01*
X013175Y006579D01*
X013165Y006507D01*
X013151Y006435D01*
X013134Y006364D01*
X013112Y006294D01*
X013087Y006225D01*
X013058Y006158D01*
X013026Y006093D01*
X012990Y006029D01*
X012950Y005967D01*
X012908Y005908D01*
X012862Y005851D01*
X012813Y005797D01*
X012761Y005745D01*
X012707Y005696D01*
X012650Y005650D01*
X012591Y005608D01*
X012529Y005568D01*
X012465Y005532D01*
X012400Y005500D01*
X012333Y005471D01*
X012264Y005446D01*
X012194Y005424D01*
X012123Y005407D01*
X012051Y005393D01*
X011979Y005383D01*
X011906Y005377D01*
X011833Y005375D01*
X011760Y005377D01*
X011687Y005383D01*
X011615Y005393D01*
X011543Y005407D01*
X011472Y005424D01*
X011402Y005446D01*
X011333Y005471D01*
X011266Y005500D01*
X011201Y005532D01*
X011137Y005568D01*
X011075Y005608D01*
X011016Y005650D01*
X010959Y005696D01*
X010905Y005745D01*
X010853Y005797D01*
X010804Y005851D01*
X010758Y005908D01*
X010716Y005967D01*
X010676Y006029D01*
X010640Y006093D01*
X010608Y006158D01*
X010579Y006225D01*
X010554Y006294D01*
X010532Y006364D01*
X010515Y006435D01*
X010501Y006507D01*
X010491Y006579D01*
X010485Y006652D01*
X010483Y006725D01*
D12*
X016834Y007225D02*
X016810Y007186D01*
X016784Y007150D01*
X016754Y007116D01*
X016722Y007085D01*
X016687Y007057D01*
X016650Y007032D01*
X016610Y007010D01*
X016569Y006992D01*
X016527Y006978D01*
X016483Y006967D01*
X016439Y006959D01*
X016394Y006956D01*
X016349Y006957D01*
X016305Y006961D01*
X016261Y006970D01*
X016217Y006982D01*
X016175Y006998D01*
X016135Y007017D01*
X016096Y007040D01*
X016060Y007066D01*
X016026Y007095D01*
X015994Y007127D01*
X015965Y007161D01*
X015940Y007198D01*
X015918Y007237D01*
X015899Y007278D01*
X015884Y007320D01*
X015872Y007364D01*
X015864Y007408D01*
X015860Y007453D01*
X015860Y007497D01*
X015864Y007542D01*
X015872Y007586D01*
X015884Y007630D01*
X015899Y007672D01*
X015918Y007713D01*
X015940Y007752D01*
X015965Y007789D01*
X015994Y007823D01*
X016026Y007855D01*
X016060Y007884D01*
X016096Y007910D01*
X016135Y007933D01*
X016175Y007952D01*
X016217Y007968D01*
X016261Y007980D01*
X016305Y007989D01*
X016349Y007993D01*
X016394Y007994D01*
X016439Y007991D01*
X016483Y007983D01*
X016527Y007972D01*
X016569Y007958D01*
X016610Y007940D01*
X016650Y007918D01*
X016687Y007893D01*
X016722Y007865D01*
X016754Y007834D01*
X016784Y007800D01*
X016810Y007764D01*
X016834Y007725D01*
X016333Y007475D02*
X016335Y007488D01*
X016340Y007501D01*
X016349Y007512D01*
X016360Y007519D01*
X016373Y007524D01*
X016386Y007525D01*
X016400Y007522D01*
X016412Y007516D01*
X016422Y007507D01*
X016429Y007495D01*
X016433Y007482D01*
X016433Y007468D01*
X016429Y007455D01*
X016422Y007443D01*
X016412Y007434D01*
X016400Y007428D01*
X016386Y007425D01*
X016373Y007426D01*
X016360Y007431D01*
X016349Y007438D01*
X016340Y007449D01*
X016335Y007462D01*
X016333Y007475D01*
D13*
X009246Y005129D02*
X008939Y005129D01*
M02*
