G75*
G70*
%OFA0B0*%
%FSLAX24Y24*%
%IPPOS*%
%LPD*%
%AMOC8*
5,1,8,0,0,1.08239X$1,22.5*
%
%ADD10C,0.0080*%
%ADD11C,0.0060*%
%ADD12C,0.0100*%
%ADD13C,0.0020*%
%ADD14C,0.0040*%
%ADD15C,0.0050*%
%ADD16R,0.0098X0.0089*%
D10*
X006924Y007024D02*
X006926Y007118D01*
X006933Y007211D01*
X006945Y007304D01*
X006961Y007396D01*
X006981Y007488D01*
X007006Y007578D01*
X007036Y007667D01*
X007069Y007755D01*
X007107Y007840D01*
X007149Y007924D01*
X007196Y008005D01*
X007246Y008085D01*
X007300Y008161D01*
X007357Y008235D01*
X007419Y008306D01*
X007483Y008374D01*
X007551Y008438D01*
X007622Y008500D01*
X007696Y008557D01*
X007772Y008611D01*
X007852Y008661D01*
X007933Y008708D01*
X008017Y008750D01*
X008102Y008788D01*
X008190Y008821D01*
X008279Y008851D01*
X008369Y008876D01*
X008461Y008896D01*
X008553Y008912D01*
X008646Y008924D01*
X008739Y008931D01*
X008833Y008933D01*
X008927Y008931D01*
X009020Y008924D01*
X009113Y008912D01*
X009205Y008896D01*
X009297Y008876D01*
X009387Y008851D01*
X009476Y008821D01*
X009564Y008788D01*
X009649Y008750D01*
X009733Y008708D01*
X009814Y008661D01*
X009894Y008611D01*
X009970Y008557D01*
X010044Y008500D01*
X010115Y008438D01*
X010183Y008374D01*
X010247Y008306D01*
X010309Y008235D01*
X010366Y008161D01*
X010420Y008085D01*
X010470Y008005D01*
X010517Y007924D01*
X010559Y007840D01*
X010597Y007755D01*
X010630Y007667D01*
X010660Y007578D01*
X010685Y007488D01*
X010705Y007396D01*
X010721Y007304D01*
X010733Y007211D01*
X010740Y007118D01*
X010742Y007024D01*
X010740Y006930D01*
X010733Y006837D01*
X010721Y006744D01*
X010705Y006652D01*
X010685Y006560D01*
X010660Y006470D01*
X010630Y006381D01*
X010597Y006293D01*
X010559Y006208D01*
X010517Y006124D01*
X010470Y006043D01*
X010420Y005963D01*
X010366Y005887D01*
X010309Y005813D01*
X010247Y005742D01*
X010183Y005674D01*
X010115Y005610D01*
X010044Y005548D01*
X009970Y005491D01*
X009894Y005437D01*
X009814Y005387D01*
X009733Y005340D01*
X009649Y005298D01*
X009564Y005260D01*
X009476Y005227D01*
X009387Y005197D01*
X009297Y005172D01*
X009205Y005152D01*
X009113Y005136D01*
X009020Y005124D01*
X008927Y005117D01*
X008833Y005115D01*
X008739Y005117D01*
X008646Y005124D01*
X008553Y005136D01*
X008461Y005152D01*
X008369Y005172D01*
X008279Y005197D01*
X008190Y005227D01*
X008102Y005260D01*
X008017Y005298D01*
X007933Y005340D01*
X007852Y005387D01*
X007772Y005437D01*
X007696Y005491D01*
X007622Y005548D01*
X007551Y005610D01*
X007483Y005674D01*
X007419Y005742D01*
X007357Y005813D01*
X007300Y005887D01*
X007246Y005963D01*
X007196Y006043D01*
X007149Y006124D01*
X007107Y006208D01*
X007069Y006293D01*
X007036Y006381D01*
X007006Y006470D01*
X006981Y006560D01*
X006961Y006652D01*
X006945Y006744D01*
X006933Y006837D01*
X006926Y006930D01*
X006924Y007024D01*
X015873Y006934D02*
X015943Y006864D01*
X016084Y006864D01*
X016154Y006934D01*
X016154Y007074D01*
X016013Y007074D01*
X015873Y007214D02*
X015873Y006934D01*
X015873Y007214D02*
X015943Y007284D01*
X016084Y007284D01*
X016154Y007214D01*
X016334Y007284D02*
X016614Y006864D01*
X016614Y007284D01*
X016794Y007284D02*
X017004Y007284D01*
X017074Y007214D01*
X017074Y006934D01*
X017004Y006864D01*
X016794Y006864D01*
X016794Y007284D01*
X016334Y007284D02*
X016334Y006864D01*
X017333Y006774D02*
X017333Y007274D01*
X017583Y007524D01*
X017333Y007774D01*
X017333Y008274D01*
X017583Y008524D01*
X018083Y008524D01*
X018333Y008274D01*
X018333Y007774D01*
X018083Y007524D01*
X018333Y007274D01*
X018333Y006774D01*
X018083Y006524D01*
X018333Y006274D01*
X018333Y005774D01*
X018083Y005524D01*
X017583Y005524D01*
X017333Y005774D01*
X017333Y006274D01*
X017583Y006524D01*
X017333Y006774D01*
X017001Y006234D02*
X016861Y006234D01*
X016791Y006164D01*
X016791Y005884D01*
X016861Y005814D01*
X017001Y005814D01*
X017071Y005884D01*
X017071Y006024D01*
X016931Y006024D01*
X017071Y006164D02*
X017001Y006234D01*
X016624Y006234D02*
X016484Y006234D01*
X016554Y006234D02*
X016554Y005814D01*
X016484Y005814D02*
X016624Y005814D01*
X016304Y005884D02*
X016234Y005814D01*
X016093Y005814D01*
X016023Y005884D01*
X016093Y006024D02*
X016234Y006024D01*
X016304Y005954D01*
X016304Y005884D01*
X016093Y006024D02*
X016023Y006094D01*
X016023Y006164D01*
X016093Y006234D01*
X016234Y006234D01*
X016304Y006164D01*
X016404Y007814D02*
X016544Y007814D01*
X016614Y007884D01*
X016794Y007884D02*
X016864Y007814D01*
X017004Y007814D01*
X017074Y007884D01*
X016794Y007884D02*
X016794Y008164D01*
X016864Y008234D01*
X017004Y008234D01*
X017074Y008164D01*
X016614Y008164D02*
X016544Y008234D01*
X016404Y008234D01*
X016334Y008164D01*
X016334Y007884D01*
X016404Y007814D01*
X016154Y007954D02*
X016154Y008234D01*
X015873Y008234D02*
X015873Y007954D01*
X016013Y007814D01*
X016154Y007954D01*
D11*
X008420Y003554D02*
X008363Y003611D01*
X008420Y003554D02*
X008533Y003554D01*
X008590Y003611D01*
X008590Y003667D01*
X008533Y003724D01*
X008420Y003724D01*
X008363Y003781D01*
X008363Y003837D01*
X008420Y003894D01*
X008533Y003894D01*
X008590Y003837D01*
X008732Y003724D02*
X008788Y003781D01*
X008902Y003781D01*
X008959Y003724D01*
X008959Y003611D01*
X008902Y003554D01*
X008788Y003554D01*
X008732Y003611D01*
X008732Y003724D01*
X009100Y003781D02*
X009100Y003611D01*
X009157Y003554D01*
X009327Y003554D01*
X009327Y003781D01*
X009468Y003781D02*
X009638Y003781D01*
X009695Y003724D01*
X009695Y003554D01*
X009837Y003611D02*
X009837Y003724D01*
X009893Y003781D01*
X010063Y003781D01*
X010063Y003894D02*
X010063Y003554D01*
X009893Y003554D01*
X009837Y003611D01*
X009468Y003554D02*
X009468Y003781D01*
X010573Y003724D02*
X010743Y003724D01*
X010800Y003667D01*
X010800Y003611D01*
X010743Y003554D01*
X010573Y003554D01*
X010573Y003894D01*
X010743Y003894D01*
X010800Y003837D01*
X010800Y003781D01*
X010743Y003724D01*
X010942Y003724D02*
X010942Y003611D01*
X010998Y003554D01*
X011112Y003554D01*
X011168Y003611D01*
X011168Y003724D01*
X011112Y003781D01*
X010998Y003781D01*
X010942Y003724D01*
X011310Y003611D02*
X011367Y003667D01*
X011537Y003667D01*
X011537Y003724D02*
X011537Y003554D01*
X011367Y003554D01*
X011310Y003611D01*
X011480Y003781D02*
X011537Y003724D01*
X011480Y003781D02*
X011367Y003781D01*
X011678Y003781D02*
X011678Y003554D01*
X011678Y003667D02*
X011792Y003781D01*
X011848Y003781D01*
X011985Y003724D02*
X012042Y003781D01*
X012212Y003781D01*
X012212Y003894D02*
X012212Y003554D01*
X012042Y003554D01*
X011985Y003611D01*
X011985Y003724D01*
X010483Y009524D02*
X010485Y009597D01*
X010491Y009670D01*
X010501Y009742D01*
X010515Y009814D01*
X010532Y009885D01*
X010554Y009955D01*
X010579Y010024D01*
X010608Y010091D01*
X010640Y010156D01*
X010676Y010220D01*
X010716Y010282D01*
X010758Y010341D01*
X010804Y010398D01*
X010853Y010452D01*
X010905Y010504D01*
X010959Y010553D01*
X011016Y010599D01*
X011075Y010641D01*
X011137Y010681D01*
X011201Y010717D01*
X011266Y010749D01*
X011333Y010778D01*
X011402Y010803D01*
X011472Y010825D01*
X011543Y010842D01*
X011615Y010856D01*
X011687Y010866D01*
X011760Y010872D01*
X011833Y010874D01*
X011906Y010872D01*
X011979Y010866D01*
X012051Y010856D01*
X012123Y010842D01*
X012194Y010825D01*
X012264Y010803D01*
X012333Y010778D01*
X012400Y010749D01*
X012465Y010717D01*
X012529Y010681D01*
X012591Y010641D01*
X012650Y010599D01*
X012707Y010553D01*
X012761Y010504D01*
X012813Y010452D01*
X012862Y010398D01*
X012908Y010341D01*
X012950Y010282D01*
X012990Y010220D01*
X013026Y010156D01*
X013058Y010091D01*
X013087Y010024D01*
X013112Y009955D01*
X013134Y009885D01*
X013151Y009814D01*
X013165Y009742D01*
X013175Y009670D01*
X013181Y009597D01*
X013183Y009524D01*
X013181Y009451D01*
X013175Y009378D01*
X013165Y009306D01*
X013151Y009234D01*
X013134Y009163D01*
X013112Y009093D01*
X013087Y009024D01*
X013058Y008957D01*
X013026Y008892D01*
X012990Y008828D01*
X012950Y008766D01*
X012908Y008707D01*
X012862Y008650D01*
X012813Y008596D01*
X012761Y008544D01*
X012707Y008495D01*
X012650Y008449D01*
X012591Y008407D01*
X012529Y008367D01*
X012465Y008331D01*
X012400Y008299D01*
X012333Y008270D01*
X012264Y008245D01*
X012194Y008223D01*
X012123Y008206D01*
X012051Y008192D01*
X011979Y008182D01*
X011906Y008176D01*
X011833Y008174D01*
X011760Y008176D01*
X011687Y008182D01*
X011615Y008192D01*
X011543Y008206D01*
X011472Y008223D01*
X011402Y008245D01*
X011333Y008270D01*
X011266Y008299D01*
X011201Y008331D01*
X011137Y008367D01*
X011075Y008407D01*
X011016Y008449D01*
X010959Y008495D01*
X010905Y008544D01*
X010853Y008596D01*
X010804Y008650D01*
X010758Y008707D01*
X010716Y008766D01*
X010676Y008828D01*
X010640Y008892D01*
X010608Y008957D01*
X010579Y009024D01*
X010554Y009093D01*
X010532Y009163D01*
X010515Y009234D01*
X010501Y009306D01*
X010491Y009378D01*
X010485Y009451D01*
X010483Y009524D01*
X011833Y010424D02*
X011833Y010724D01*
X011683Y010574D02*
X011983Y010574D01*
D12*
X016834Y010524D02*
X016810Y010563D01*
X016784Y010599D01*
X016754Y010633D01*
X016722Y010664D01*
X016687Y010692D01*
X016650Y010717D01*
X016610Y010739D01*
X016569Y010757D01*
X016527Y010771D01*
X016483Y010782D01*
X016439Y010790D01*
X016394Y010793D01*
X016349Y010792D01*
X016305Y010788D01*
X016261Y010779D01*
X016217Y010767D01*
X016175Y010751D01*
X016135Y010732D01*
X016096Y010709D01*
X016060Y010683D01*
X016026Y010654D01*
X015994Y010622D01*
X015965Y010588D01*
X015940Y010551D01*
X015918Y010512D01*
X015899Y010471D01*
X015884Y010429D01*
X015872Y010385D01*
X015864Y010341D01*
X015860Y010296D01*
X015860Y010252D01*
X015864Y010207D01*
X015872Y010163D01*
X015884Y010119D01*
X015899Y010077D01*
X015918Y010036D01*
X015940Y009997D01*
X015965Y009960D01*
X015994Y009926D01*
X016026Y009894D01*
X016060Y009865D01*
X016096Y009839D01*
X016135Y009816D01*
X016175Y009797D01*
X016217Y009781D01*
X016261Y009769D01*
X016305Y009760D01*
X016349Y009756D01*
X016394Y009755D01*
X016439Y009758D01*
X016483Y009766D01*
X016527Y009777D01*
X016569Y009791D01*
X016610Y009809D01*
X016650Y009831D01*
X016687Y009856D01*
X016722Y009884D01*
X016754Y009915D01*
X016784Y009949D01*
X016810Y009985D01*
X016834Y010024D01*
X016333Y010274D02*
X016335Y010287D01*
X016340Y010300D01*
X016349Y010311D01*
X016360Y010318D01*
X016373Y010323D01*
X016386Y010324D01*
X016400Y010321D01*
X016412Y010315D01*
X016422Y010306D01*
X016429Y010294D01*
X016433Y010281D01*
X016433Y010267D01*
X016429Y010254D01*
X016422Y010242D01*
X016412Y010233D01*
X016400Y010227D01*
X016386Y010224D01*
X016373Y010225D01*
X016360Y010230D01*
X016349Y010237D01*
X016340Y010248D01*
X016335Y010261D01*
X016333Y010274D01*
D13*
X016200Y008771D02*
X016200Y008677D01*
X016154Y008724D02*
X016247Y008724D01*
X016504Y008724D02*
X016597Y008724D01*
D14*
X016412Y008886D02*
X016255Y008886D01*
X016255Y009162D02*
X016412Y009162D01*
X009246Y007928D02*
X008939Y007928D01*
D15*
X015584Y005384D02*
X015584Y005364D01*
X015584Y005384D02*
X016804Y005384D01*
X016804Y005069D01*
X016804Y004479D02*
X016804Y004164D01*
X015584Y004164D01*
X015584Y004183D01*
X015584Y004656D02*
X015584Y004892D01*
D16*
X016383Y008911D03*
M02*
