G75*
G70*
%OFA0B0*%
%FSLAX24Y24*%
%IPPOS*%
%LPD*%
%AMOC8*
5,1,8,0,0,1.08239X$1,22.5*
%
%ADD10C,0.0520*%
%ADD11OC8,0.0520*%
%ADD12OC8,0.0630*%
%ADD13C,0.0630*%
%ADD14C,0.0750*%
%ADD15OC8,0.0750*%
%ADD16OC8,0.0480*%
%ADD17C,0.0480*%
%ADD18C,0.0660*%
%ADD19C,0.0740*%
%ADD20C,0.0100*%
D10*
X010833Y005600D03*
X011833Y005600D03*
X012833Y005600D03*
X013833Y005600D03*
X013833Y008600D03*
X012833Y008600D03*
X011833Y008600D03*
X010833Y008600D03*
D11*
X010333Y010100D03*
X010333Y012100D03*
X014333Y012100D03*
X015833Y012100D03*
X017833Y012100D03*
X014333Y010100D03*
X015833Y008100D03*
X017833Y008100D03*
X015833Y006600D03*
X014333Y004100D03*
X015833Y002600D03*
X014333Y002100D03*
X010333Y002100D03*
X010333Y004100D03*
D12*
X006333Y004600D03*
D13*
X007333Y004600D03*
D14*
X008833Y007600D03*
D15*
X008833Y005600D03*
D16*
X008833Y002950D03*
D17*
X008833Y002250D03*
D18*
X008121Y009600D03*
X008121Y010600D03*
D19*
X018833Y005600D03*
X018833Y004600D03*
X018833Y003600D03*
D20*
X018833Y003620D01*
X012273Y003620D01*
X012273Y005780D01*
X012033Y006020D01*
X010833Y006020D01*
X010833Y005600D01*
X011793Y005540D02*
X011833Y005600D01*
X011793Y005540D02*
X011793Y003540D01*
X010353Y002100D01*
X010333Y002100D01*
X008833Y002250D02*
X008833Y002260D01*
X010273Y003700D01*
X010273Y004100D01*
X010333Y004100D01*
X010273Y004100D02*
X010273Y008500D01*
X008193Y010580D01*
X008121Y010600D01*
X010333Y012100D02*
X010353Y012100D01*
X011793Y010660D01*
X011793Y008660D01*
X011833Y008600D01*
X011873Y008580D01*
X011873Y006580D01*
X012833Y005620D01*
X012833Y005600D01*
X014273Y004100D02*
X014333Y004100D01*
X014273Y004100D02*
X014273Y009540D01*
X013873Y009940D01*
X013873Y010260D01*
X015713Y012100D01*
X015833Y012100D01*
X017833Y012100D01*
X014333Y012100D02*
X014273Y012100D01*
X012833Y010660D01*
X012833Y008600D01*
X014333Y010100D02*
X014433Y010100D01*
X016273Y008260D01*
X016273Y007220D01*
X018833Y004660D01*
X018833Y004600D01*
M02*
